<svg width="18" height="13" viewBox="0 0 18 13" fill="none" xmlns="http://www.w3.org/2000/svg">
<g clip-path="url(#clip0_1_496)">
<path d="M17.9953 0.50119H0V12.4806H17.9953V0.50119Z" fill="white"/>
<path d="M17.9969 5.29473H10.0733V0.501984H7.91045V5.29473H0.0078125V7.68978H7.91045V12.4805H10.0733V7.68978H17.9969V5.29473Z" fill="#CE1124"/>
<path d="M0 1.89603V4.50428H3.92503L0 1.89603Z" fill="#00247D"/>
<path d="M2.16493 0.50058L2.10742 0.503883L7.1968 3.90378V0.50058H2.16493Z" fill="#00247D"/>
<path d="M6.04017 4.48788L0 0.501282V1.44092L4.60085 4.48788H6.04017Z" fill="#CE1124"/>
<path d="M11.959 8.49268L17.9992 12.4793V11.5396L13.3983 8.49268H11.959Z" fill="#CE1124"/>
<path d="M0 11.1045V8.49625H3.92503L0 11.1045Z" fill="#00247D"/>
<path d="M2.16493 12.5L2.10742 12.4967L7.1968 9.0968V12.5H2.16493Z" fill="#00247D"/>
<path d="M6.00923 8.4924L0.00390625 12.4772L1.40839 12.479L7.20299 8.65446V8.4924H6.00923Z" fill="#CE1124"/>
<path d="M17.9992 1.89548V4.50372H14.0742L17.9992 1.89548Z" fill="#00247D"/>
<path d="M15.8346 0.5L15.8921 0.503291L10.8027 3.90318V0.5H15.8346Z" fill="#00247D"/>
<path d="M17.9949 0.505569L16.644 0.505432L10.8086 4.35691V4.49203H12.0432L17.9949 0.505569Z" fill="#CE1124"/>
<path d="M17.9992 11.1036V8.4953H14.0742L17.9992 11.1036Z" fill="#00247D"/>
<path d="M15.8346 12.499L15.8921 12.4957L10.8027 9.09583V12.499H15.8346Z" fill="#00247D"/>
</g>
<defs>
<clipPath id="clip0_1_496">
<rect width="18" height="12" fill="white" transform="translate(0 0.5)"/>
</clipPath>
</defs>
</svg>
