<svg width="18" height="13" viewBox="0 0 18 13" fill="none" xmlns="http://www.w3.org/2000/svg">
<path d="M18 0.5H0V12.5H18V0.5Z" fill="#00ABC2"/>
<path d="M9.73027 7.1641C10.4011 7.1641 10.9449 6.43901 10.9449 5.54457C10.9449 4.65013 10.4011 3.92505 9.73027 3.92505C9.05944 3.92505 8.51562 4.65013 8.51562 5.54457C8.51562 6.43901 9.05944 7.1641 9.73027 7.1641Z" fill="#FFEC2D"/>
<path d="M9.8275 3.58031C9.82031 3.42995 9.72636 3.02664 9.72636 3.02664C9.72636 3.02664 9.63242 3.42995 9.62522 3.58031C9.62265 3.63412 9.64287 3.66636 9.66589 3.68554C9.70269 3.71619 9.75003 3.71619 9.78683 3.68554C9.80986 3.66636 9.83008 3.63412 9.8275 3.58031Z" fill="#FFEC2D"/>
<path d="M9.8275 7.50889C9.82031 7.65924 9.72636 8.06255 9.72636 8.06255C9.72636 8.06255 9.63242 7.65924 9.62522 7.50889C9.62265 7.45507 9.64287 7.42284 9.66589 7.40366C9.70269 7.37301 9.75003 7.37301 9.78683 7.40366C9.80986 7.42284 9.83008 7.45507 9.8275 7.50889Z" fill="#FFEC2D"/>
<path d="M11.1977 5.67943C11.3105 5.66983 11.613 5.54457 11.613 5.54457C11.613 5.54457 11.3105 5.41932 11.1977 5.40972C11.1574 5.40628 11.1332 5.43325 11.1188 5.46395C11.0958 5.51301 11.0958 5.57614 11.1188 5.6252C11.1332 5.6559 11.1574 5.68286 11.1977 5.67943Z" fill="#FFEC2D"/>
<path d="M8.25119 5.67943C8.13842 5.66983 7.83594 5.54457 7.83594 5.54457C7.83594 5.54457 8.13842 5.41932 8.25119 5.40972C8.29155 5.40628 8.31572 5.43325 8.3301 5.46395C8.35309 5.51301 8.35309 5.57614 8.3301 5.6252C8.31572 5.6559 8.29155 5.68286 8.25119 5.67943Z" fill="#FFEC2D"/>
<path d="M10.8368 4.25099C10.9114 4.13789 11.0589 3.76413 11.0589 3.76413C11.0589 3.76413 10.7786 3.96074 10.6937 4.06027C10.6634 4.0959 10.6606 4.13776 10.6667 4.17303C10.6765 4.22939 10.7099 4.27403 10.7522 4.28705C10.7787 4.2952 10.8101 4.29147 10.8368 4.25099Z" fill="#FFEC2D"/>
<path d="M8.75577 7.02893C8.67094 7.12846 8.39062 7.32508 8.39062 7.32508C8.39062 7.32508 8.53808 6.95132 8.61273 6.83822C8.63945 6.79774 8.67085 6.79401 8.6973 6.80216C8.73957 6.81518 8.77305 6.85981 8.78281 6.91618C8.78893 6.95145 8.78613 6.99331 8.75577 7.02893Z" fill="#FFEC2D"/>
<path d="M10.6937 7.02893C10.7786 7.12846 11.0589 7.32508 11.0589 7.32508C11.0589 7.32508 10.9114 6.95132 10.8368 6.83822C10.8101 6.79774 10.7787 6.79401 10.7522 6.80216C10.7099 6.81518 10.6765 6.85981 10.6667 6.91618C10.6606 6.95145 10.6634 6.99331 10.6937 7.02893Z" fill="#FFEC2D"/>
<path d="M8.61273 4.25099C8.53808 4.13789 8.39062 3.76413 8.39062 3.76413C8.39062 3.76413 8.67094 3.96074 8.75577 4.06027C8.78613 4.0959 8.78893 4.13776 8.78281 4.17303C8.77305 4.22939 8.73957 4.27403 8.6973 4.28705C8.67085 4.2952 8.63945 4.29147 8.61273 4.25099Z" fill="#FFEC2D"/>
<path d="M10.1158 3.64582C10.1311 3.49654 10.0988 3.07642 10.0988 3.07642C10.0988 3.07642 9.94688 3.44696 9.91752 3.59244C9.907 3.64451 9.92204 3.68145 9.94177 3.70632C9.97329 3.74607 10.0197 3.75857 10.0603 3.73824C10.0857 3.72551 10.1103 3.69925 10.1158 3.64582Z" fill="#FFEC2D"/>
<path d="M9.53832 7.49674C9.50895 7.64222 9.35701 8.01278 9.35701 8.01278C9.35701 8.01278 9.32478 7.59265 9.34004 7.44337C9.3455 7.38994 9.37011 7.36368 9.39553 7.35096C9.43614 7.33062 9.48255 7.34312 9.51407 7.38287C9.53379 7.40774 9.54883 7.44467 9.53832 7.49674Z" fill="#FFEC2D"/>
<path d="M11.1546 6.06549C11.2666 6.08583 11.5817 6.04286 11.5817 6.04286C11.5817 6.04286 11.3038 5.84027 11.1947 5.80111C11.1556 5.7871 11.1279 5.80715 11.1093 5.83345C11.0795 5.87547 11.0701 5.93735 11.0853 5.99151C11.0949 6.0254 11.1146 6.05821 11.1546 6.06549Z" fill="#FFEC2D"/>
<path d="M8.26202 5.28806C8.15291 5.2489 7.875 5.04631 7.875 5.04631C7.875 5.04631 8.19009 5.00334 8.30205 5.02369C8.34212 5.03097 8.36182 5.06378 8.37136 5.09767C8.38661 5.15182 8.37724 5.21371 8.34743 5.25573C8.32877 5.28203 8.30108 5.30208 8.26202 5.28806Z" fill="#FFEC2D"/>
<path d="M11.0146 4.5703C11.1045 4.47913 11.3045 4.15167 11.3045 4.15167C11.3045 4.15167 11.0006 4.27044 10.9027 4.34562C10.8676 4.37253 10.8587 4.41282 10.8594 4.449C10.8606 4.50683 10.8868 4.55942 10.9263 4.58333C10.951 4.5983 10.9824 4.60293 11.0146 4.5703Z" fill="#FFEC2D"/>
<path d="M8.55813 6.74357C8.46021 6.81875 8.15625 6.93751 8.15625 6.93751C8.15625 6.93751 8.35627 6.61006 8.44623 6.51889C8.47842 6.48626 8.50975 6.49089 8.53447 6.50586C8.57398 6.52978 8.60017 6.58236 8.60137 6.64019C8.60212 6.67636 8.59317 6.71666 8.55813 6.74357Z" fill="#FFEC2D"/>
<path d="M10.4559 7.25556C10.5243 7.37551 10.7698 7.64219 10.7698 7.64219C10.7698 7.64219 10.6808 7.23692 10.6244 7.10636C10.6042 7.05963 10.574 7.0477 10.5468 7.0487C10.5035 7.05031 10.464 7.08523 10.4461 7.1379C10.4349 7.17086 10.4314 7.21263 10.4559 7.25556Z" fill="#FFEC2D"/>
<path d="M8.82515 3.98283C8.76876 3.85227 8.67969 3.44699 8.67969 3.44699C8.67969 3.44699 8.92528 3.71368 8.99365 3.83363C9.01813 3.87656 9.01465 3.91832 9.00343 3.95129C8.98549 4.00396 8.94605 4.03888 8.90269 4.04049C8.87555 4.04149 8.84533 4.02956 8.82515 3.98283Z" fill="#FFEC2D"/>
<path d="M10.3841 3.7812C10.4205 3.63861 10.4494 3.21805 10.4494 3.21805C10.4494 3.21805 10.2469 3.5428 10.1972 3.67805C10.1793 3.72646 10.1888 3.76655 10.2045 3.79601C10.2298 3.8431 10.2735 3.86724 10.3163 3.85768C10.3431 3.85171 10.371 3.83224 10.3841 3.7812Z" fill="#FFEC2D"/>
<path d="M9.26007 7.41113C9.2103 7.54638 9.00781 7.87113 9.00781 7.87113C9.00781 7.87113 9.03669 7.45057 9.07317 7.30798C9.08623 7.25694 9.11416 7.23747 9.14093 7.23149C9.18372 7.22194 9.22747 7.24608 9.25268 7.29317C9.26845 7.32263 9.27789 7.36272 9.26007 7.41113Z" fill="#FFEC2D"/>
<path d="M11.0511 6.42042C11.158 6.46906 11.4735 6.50757 11.4735 6.50757C11.4735 6.50757 11.2299 6.23759 11.1285 6.17122C11.0922 6.14747 11.0621 6.16006 11.04 6.18109C11.0047 6.2147 10.9866 6.27303 10.9937 6.33008C10.9982 6.36578 11.0128 6.40302 11.0511 6.42042Z" fill="#FFEC2D"/>
<path d="M8.32938 4.91795C8.22794 4.85158 7.98438 4.5816 7.98438 4.5816C7.98438 4.5816 8.29979 4.62011 8.40674 4.66875C8.44502 4.68616 8.45962 4.7234 8.4641 4.7591C8.47127 4.81615 8.45316 4.87448 8.41785 4.90809C8.39575 4.92912 8.36568 4.94171 8.32938 4.91795Z" fill="#FFEC2D"/>
<path d="M11.1285 4.917C11.2299 4.85056 11.4734 4.58041 11.4734 4.58041C11.4734 4.58041 11.158 4.61914 11.0511 4.66785C11.0128 4.68528 10.9982 4.72253 10.9937 4.75824C10.9866 4.8153 11.0047 4.87361 11.04 4.9072C11.0621 4.92822 11.0922 4.94078 11.1285 4.917Z" fill="#FFEC2D"/>
<path d="M8.4067 6.42132C8.29978 6.47003 7.98438 6.50875 7.98438 6.50875C7.98438 6.50875 8.22783 6.2386 8.32925 6.17217C8.36554 6.14839 8.39562 6.16095 8.41772 6.18197C8.45305 6.21556 8.47118 6.27387 8.46403 6.33093C8.45956 6.36663 8.44498 6.40389 8.4067 6.42132Z" fill="#FFEC2D"/>
<path d="M10.1972 7.4108C10.247 7.54602 10.4496 7.87063 10.4496 7.87063C10.4496 7.87063 10.4206 7.45009 10.384 7.30753C10.371 7.25649 10.343 7.23704 10.3162 7.23109C10.2735 7.22156 10.2297 7.24573 10.2045 7.29283C10.1888 7.3223 10.1793 7.3624 10.1972 7.4108Z" fill="#FFEC2D"/>
<path d="M9.06558 3.78167C9.02904 3.6391 9 3.21857 9 3.21857C9 3.21857 9.20261 3.54317 9.25244 3.67839C9.27028 3.72679 9.26085 3.76689 9.24509 3.79636C9.2199 3.84346 9.17616 3.86763 9.13336 3.85811C9.10659 3.85215 9.07865 3.8327 9.06558 3.78167Z" fill="#FFEC2D"/>
<path d="M10.6319 3.98939C10.6888 3.85924 10.7795 3.45462 10.7795 3.45462C10.7795 3.45462 10.5328 3.71952 10.464 3.83897C10.4393 3.88172 10.4426 3.92351 10.4537 3.95655C10.4714 4.00935 10.5107 4.04455 10.5541 4.04648C10.5812 4.04769 10.6115 4.03597 10.6319 3.98939Z" fill="#FFEC2D"/>
<path d="M8.98742 7.2502C8.91855 7.36964 8.67188 7.63454 8.67188 7.63454C8.67188 7.63454 8.7626 7.22992 8.81952 7.09978C8.83989 7.05319 8.87016 7.04148 8.8973 7.04268C8.94066 7.04461 8.97995 7.07982 8.99768 7.13262C9.00876 7.16566 9.01207 7.20745 8.98742 7.2502Z" fill="#FFEC2D"/>
<path d="M10.8944 6.75207C10.9921 6.82796 11.2955 6.94893 11.2955 6.94893C11.2955 6.94893 11.0968 6.62002 11.0073 6.52821C10.9752 6.49534 10.9439 6.49974 10.9191 6.51453C10.8795 6.53816 10.8531 6.59056 10.8516 6.64837C10.8507 6.68455 10.8595 6.7249 10.8944 6.75207Z" fill="#FFEC2D"/>
<path d="M8.44451 4.56098C8.35493 4.46916 8.15625 4.14026 8.15625 4.14026C8.15625 4.14026 8.45971 4.26123 8.55733 4.33712C8.59227 4.36429 8.60105 4.40464 8.60015 4.44082C8.59871 4.49864 8.5723 4.55103 8.5327 4.57466C8.50791 4.58945 8.47657 4.59385 8.44451 4.56098Z" fill="#FFEC2D"/>
<path d="M11.1941 5.2987C11.3034 5.26033 11.5821 5.05976 11.5821 5.05976C11.5821 5.05976 11.2672 5.0145 11.1552 5.03404C11.1151 5.04103 11.0952 5.0737 11.0856 5.10751C11.0701 5.16156 11.0792 5.2235 11.1088 5.26574C11.1274 5.29218 11.155 5.31243 11.1941 5.2987Z" fill="#FFEC2D"/>
<path d="M8.30195 6.05516C8.18991 6.07469 7.875 6.02943 7.875 6.02943C7.875 6.02943 8.15374 5.82886 8.26301 5.7905C8.30212 5.77677 8.32973 5.79701 8.34828 5.82345C8.37792 5.86569 8.38704 5.92764 8.37156 5.98168C8.36188 6.0155 8.34205 6.04816 8.30195 6.05516Z" fill="#FFEC2D"/>
<path d="M9.90957 7.4981C9.93834 7.64379 10.0888 8.01544 10.0888 8.01544C10.0888 8.01544 10.1227 7.59556 10.1081 7.44617C10.1028 7.3927 10.0783 7.36626 10.053 7.35335C10.0124 7.33273 9.96597 7.34488 9.93429 7.3844C9.91446 7.40913 9.89927 7.44595 9.90957 7.4981Z" fill="#FFEC2D"/>
<path d="M9.34742 3.643C9.33277 3.49362 9.36671 3.07373 9.36671 3.07373C9.36671 3.07373 9.51714 3.44538 9.54592 3.59107C9.55622 3.64322 9.54103 3.68004 9.5212 3.70477C9.48952 3.74429 9.44306 3.75645 9.40252 3.73582C9.37716 3.72291 9.35266 3.69647 9.34742 3.643Z" fill="#FFEC2D"/>
<path d="M9.92329 9.33189C9.92371 9.33192 9.92412 9.33181 9.92451 9.33159L9.94455 9.32014C9.94684 9.31882 9.94684 9.31449 9.94455 9.31318L9.9245 9.30173C9.92411 9.30151 9.9237 9.3014 9.92328 9.30142C9.68846 9.3118 9.60194 9.28409 9.57072 9.26558C9.56021 9.25936 9.54811 9.25899 9.5378 9.26576C9.49677 9.29272 9.42141 9.2767 9.39692 9.2629C9.39514 9.26189 9.39468 9.25881 9.39598 9.25689L9.46352 9.15736C9.46479 9.15549 9.46435 9.15257 9.46268 9.15141C9.44866 9.14177 9.42883 9.13671 9.41881 9.13463C9.41639 9.13412 9.41558 9.13006 9.41747 9.12798L9.49104 9.04694C9.49335 9.0444 9.49155 9.03944 9.48863 9.04033C9.39711 9.06808 9.26966 9.10232 9.25076 9.10738C9.24938 9.10774 9.24845 9.10943 9.24853 9.1113C9.25334 9.23061 9.16654 9.23633 9.14995 9.20149C9.14941 9.20036 9.14853 9.19961 9.14752 9.19961H9.0697C9.06924 9.19961 9.06878 9.19946 9.06837 9.19918L9.03786 9.17763C9.03704 9.17706 9.03605 9.17705 9.03522 9.1776C8.92425 9.25153 8.94453 9.37179 8.95105 9.39977C8.95169 9.40251 8.95431 9.40325 8.9558 9.40118C8.99446 9.34768 9.03121 9.33528 9.04253 9.33261C9.0444 9.33217 9.04604 9.33424 9.04583 9.33676C9.04489 9.34792 9.04172 9.37058 9.03986 9.38347C9.03939 9.38672 9.04206 9.38913 9.04414 9.38732C9.15671 9.28944 9.89858 9.3305 9.92329 9.33189Z" fill="#FFEC2D"/>
<path d="M12.2994 7.11829C12.3757 6.99616 12.5169 6.77225 12.5169 6.77225C12.5169 6.77225 12.536 6.73154 12.5017 6.68574C12.4673 6.63994 12.3986 6.72645 12.3986 6.72645C12.3986 6.72645 12.2116 7.03687 12.0246 7.16409C12.0273 7.1472 12.5553 6.39972 12.4444 6.24301C12.4444 6.24301 12.3719 6.19212 12.3185 6.29899C12.2651 6.40585 12.078 6.76207 12.0093 6.81805C12.0585 6.69822 12.2839 6.1604 12.2154 5.82572C12.2154 5.82572 12.1925 5.76975 12.1429 5.77992C12.0933 5.7901 12.0933 6.03945 12.0361 6.23283C12.0361 6.23283 11.9872 6.49356 11.923 6.58698C11.9351 6.5359 12.0183 5.97374 11.891 6.01909C11.891 6.0191 11.8605 6.0191 11.849 6.09034C11.7636 6.60543 11.6642 6.91475 11.3071 7.45924L11.296 7.4792C11.1249 7.78949 10.3553 8.37519 9.89846 8.33945C9.86047 8.3435 9.82423 8.36288 9.79498 8.39548C9.60641 8.62663 9.47207 8.91894 9.24227 8.96043C9.24228 8.96045 9.08961 9.00625 9.04 9.12329C9.04 9.12329 9.02855 9.17418 9.0858 9.17927C9.0858 9.17927 9.10488 9.17418 9.1545 9.13347C9.15063 9.17342 9.19467 9.21023 9.19266 9.14365C9.19266 9.14365 9.19266 9.12329 9.1774 9.11312C9.27436 9.09606 9.55651 8.85422 9.63921 8.75688C9.70027 8.69074 9.76897 8.57879 9.92927 8.53299C10.2813 8.44059 10.1903 8.48912 10.4983 8.41467C10.5207 8.4083 10.541 8.39278 10.5565 8.3703C10.5997 8.30782 10.7045 8.16451 10.8071 8.09026C10.9407 7.99357 11.2536 7.79511 11.2536 7.79511C11.2536 7.79511 11.2918 7.76966 11.3223 7.64753C11.3223 7.64753 11.433 7.42362 11.5132 7.34729C11.5866 7.27997 11.7423 7.0655 11.9018 7.14798C11.8845 7.42332 11.664 7.50116 11.9178 7.41198C11.949 7.42335 11.9309 7.54869 11.8083 7.66733C11.8027 7.67288 11.805 7.68468 11.8119 7.68592C11.8316 7.68945 11.8621 7.69713 11.8878 7.7132C11.8944 7.71735 11.8947 7.72983 11.8884 7.73472C11.8393 7.77264 11.6771 7.89918 11.6419 7.94227C11.638 7.94704 11.6388 7.95546 11.6434 7.95891L11.6781 7.98492C11.7181 8.01254 11.51 8.07155 11.517 8.13606C11.517 8.13606 11.5437 8.17168 11.5284 8.19712C11.5132 8.22257 11.4178 8.25819 11.4178 8.25819C11.4178 8.25819 11.3758 8.27346 11.391 8.31926C11.391 8.31926 11.4063 8.33452 11.4216 8.35997C11.4216 8.35997 11.372 8.42103 11.2842 8.41086C11.3419 8.56971 11.1875 8.7501 10.7766 8.84341C10.7766 8.84341 11.2307 8.91974 11.517 8.56352L11.372 8.46174C11.372 8.46174 11.5017 8.38032 11.6811 8.38032C11.6811 8.38032 11.7422 8.37523 11.7155 8.33961C11.7155 8.33961 11.5399 8.31417 11.5513 8.28872C11.5628 8.26328 11.6887 8.27346 11.7918 8.21748C11.8948 8.1615 11.8758 8.14115 11.8758 8.14115C11.8758 8.14115 11.8147 8.1157 11.6773 8.12588C11.6773 8.12588 11.6468 8.1157 11.7918 8.05973C11.9368 8.00375 12.0246 7.95286 12.0246 7.95286C12.1304 7.83487 11.8535 7.92924 11.8796 7.86126C11.9101 7.82055 12.2002 7.60173 12.2307 7.54575C12.2612 7.48977 12.3109 7.43889 12.3147 7.35746C12.3185 7.27604 12.2422 7.3422 12.2422 7.3422C12.2422 7.3422 12.1086 7.48469 12.0093 7.45924C12.0093 7.45924 12.2231 7.24042 12.2994 7.11829Z" fill="#FFEC2D"/>
<path d="M7.45981 6.98605C7.48965 6.97501 7.52905 7.00386 7.54653 7.01862C7.55116 7.02254 7.5573 7.01982 7.55924 7.01297C7.56257 7.00122 7.56795 6.98342 7.57462 6.96563C7.59982 6.89842 7.65859 7.01652 7.70411 7.06182C7.7585 7.11594 8.01353 7.54576 8.10364 7.67705C8.38833 8.01411 8.41089 7.76681 8.77685 8.29895C9.02928 8.53698 9.46206 8.38489 9.59743 8.58897L9.6814 8.35489C9.52167 8.35471 9.27868 8.33129 9.00204 8.20731C8.35007 7.91512 8.00383 7.28515 7.91048 7.10303C7.70989 6.71171 7.61891 6.32431 7.57559 6.04073C7.57473 6.03514 7.57335 6.02971 7.57113 6.02484C7.56148 6.00369 7.54597 6.00515 7.5325 6.01234C7.5147 6.02184 7.50105 6.04162 7.49448 6.06564C7.45115 6.22402 7.52118 6.60432 7.52118 6.60432C7.46638 6.53125 7.38087 6.13936 7.35007 5.98586C7.34396 5.95544 7.33885 5.92475 7.33446 5.89381C7.32894 5.85489 7.31516 5.79015 7.28406 5.78364C7.27509 5.78176 7.2659 5.78562 7.2589 5.79333C7.08411 5.98565 7.43788 6.82717 7.42958 6.82822C7.34331 6.76164 7.18899 6.37282 7.07892 6.26064C7.05096 6.23214 7.01119 6.23377 6.98556 6.26593C6.9847 6.26701 6.98388 6.26809 6.98309 6.26916C6.97183 6.28463 6.96788 6.30717 6.97271 6.32774C7.0394 6.61102 7.41808 7.16409 7.41622 7.16409C7.35333 7.16409 7.0773 6.79189 7.01404 6.70783C6.98405 6.66798 6.92469 6.68004 6.92197 6.74172C6.92035 6.77823 6.93992 6.81016 6.94487 6.81805C7.16626 7.17052 7.24257 7.25569 7.24257 7.25569C7.33308 7.35672 7.42039 7.44506 7.41079 7.46586C7.41029 7.46693 7.40927 7.46837 7.40668 7.46941C7.34776 7.49321 7.21505 7.34557 7.14832 7.32995C7.13508 7.32685 7.12383 7.34346 7.12711 7.36085C7.16441 7.55814 7.54335 7.77045 7.62969 7.8165C7.63686 7.82033 7.63568 7.83422 7.62806 7.83595C7.57145 7.84883 7.40685 7.83521 7.36621 7.83157C7.36221 7.83121 7.35973 7.8372 7.36203 7.84158C7.41348 7.93927 7.63022 7.97911 7.70534 7.99015C7.71692 7.99185 7.71919 8.01286 7.7085 8.01904C7.66427 8.04463 7.56738 8.06806 7.52933 8.07663C7.5201 8.07871 7.51761 8.09478 7.52545 8.10158C7.5675 8.13803 7.72149 8.16412 7.78239 8.17322C7.7886 8.17415 7.78964 8.18559 7.78378 8.18849L7.65493 8.25242C7.64887 8.25543 7.64771 8.26627 7.65298 8.27128C7.69762 8.31373 7.86572 8.35364 7.9223 8.36613C7.92727 8.36723 7.92787 8.37643 7.92313 8.3787L7.8069 8.43433C7.80193 8.43671 7.80195 8.44603 7.80692 8.44842C8.12935 8.60337 8.4081 8.80982 8.72342 8.82813C8.44007 8.72913 8.14273 8.59962 7.9848 8.4567C7.98211 8.45427 7.9822 8.44896 7.98493 8.44661L8.08781 8.35811C8.09087 8.35547 8.08971 8.34912 8.08607 8.34871C7.97573 8.33638 7.88947 8.26682 7.86443 8.24463C7.86066 8.24128 7.86039 8.23407 7.86385 8.23018L7.91405 8.17381C7.92175 8.16517 7.92058 8.14894 7.91177 8.14246C7.89282 8.12854 7.86229 8.10876 7.83796 8.10551C7.75227 8.08746 7.78345 8.01673 7.81135 7.98599C7.81931 7.97722 7.81868 7.96077 7.81011 7.95308C7.7936 7.93827 7.77367 7.932 7.75975 7.92935C7.75013 7.92752 7.74322 7.91612 7.744 7.9032L7.74881 7.82304C7.74958 7.81026 7.74293 7.79896 7.73349 7.79652C7.62375 7.76822 7.53947 7.66331 7.51393 7.62838C7.51065 7.6239 7.51282 7.61637 7.5175 7.61595L7.60806 7.6079C7.61202 7.60755 7.61339 7.60078 7.61013 7.59777C7.53858 7.53182 7.46711 7.40253 7.44258 7.35586C7.43875 7.34856 7.44267 7.33854 7.44936 7.33854H7.54524C7.54929 7.33854 7.55256 7.33421 7.55269 7.32881C7.5562 7.18568 7.46639 7.09847 7.44782 7.01554C7.44502 7.00302 7.45034 6.98956 7.45981 6.98605Z" fill="#FFEC2D"/>
<path d="M10.5132 9.07497C10.5132 9.07497 10.4941 9.1055 10.4979 9.14621C10.4979 9.14621 10.4025 9.19201 10.4101 9.20728C10.4178 9.22254 10.433 9.24799 10.4254 9.26834C10.1573 9.61778 9.47086 9.17045 9.32812 9.70853C9.32812 9.70853 9.43499 9.73397 9.58002 9.56095C9.57232 9.73858 9.59369 9.84111 9.76704 9.54569C9.76704 9.54569 9.7823 9.59657 9.77085 9.69326C9.7594 9.78995 9.85482 9.70853 9.85482 9.70853C9.85482 9.70853 9.95405 9.56095 9.97314 9.55586C9.97314 9.55586 9.9655 9.68308 9.97695 9.70853C10.0327 9.7589 10.0863 9.70479 10.1372 9.57112C10.1372 9.57112 10.1525 9.55586 10.1716 9.62711C10.2001 9.73228 10.2626 9.71245 10.3243 9.56095C10.3243 9.56095 10.3433 9.55077 10.3815 9.62711C10.4471 9.72078 10.5352 9.50344 10.5647 9.46426C10.5647 9.46426 10.5647 9.55586 10.6143 9.57622C10.6639 9.59657 10.7021 9.44391 10.7021 9.44391C10.7021 9.44391 10.7174 9.38793 10.7403 9.38284C10.7825 9.43186 10.8852 9.53669 10.9367 9.40207C10.9367 9.40207 10.9502 9.30651 10.954 9.24035C10.9936 9.30493 11.2227 9.43614 11.2498 9.11568C11.2498 9.11568 10.6048 9.03426 10.5132 9.07497Z" fill="#FFEC2D"/>
<path d="M1.593 4.88287C1.593 4.88287 1.62353 4.79112 1.62353 4.67897C1.62353 4.58199 1.58471 4.41391 1.43046 4.36803C1.58471 4.32216 1.62353 4.15408 1.62353 4.0571C1.62353 3.94495 1.593 3.8532 1.593 3.8532C1.593 3.8532 1.23805 2.8847 1.16554 2.66042C1.1464 2.60123 1.16126 2.50851 1.16126 2.50851C1.17176 2.44032 1.21669 2.39178 1.26671 2.37949C1.31217 2.36831 1.36039 2.38106 1.39988 2.41286C1.45152 2.45446 1.46577 2.53625 1.4505 2.61135C1.44281 2.64917 1.42551 2.68428 1.4004 2.70457C1.3534 2.74254 1.28003 2.72159 1.27254 2.63617C1.27254 2.63617 1.26859 2.58396 1.31057 2.58396C1.31057 2.58396 1.36018 2.57886 1.34492 2.68081C1.34492 2.68081 1.39072 2.66042 1.37927 2.58906C1.37927 2.58906 1.41743 2.57377 1.42888 2.54829C1.42888 2.54829 1.41362 2.5228 1.37927 2.5177C1.37927 2.5177 1.39072 2.44124 1.3411 2.42595C1.3411 2.42595 1.34873 2.47182 1.33728 2.49731C1.33728 2.49731 1.32202 2.48202 1.29148 2.48202C1.25956 2.48202 1.23051 2.51767 1.21706 2.55381C1.18404 2.6426 1.21937 2.76584 1.28683 2.80628C1.31919 2.82569 1.35678 2.82401 1.39072 2.81335C1.39072 2.81335 1.33728 2.87452 1.33728 2.92549C1.33728 2.92549 1.36782 2.92039 1.3869 2.92549C1.3869 2.92549 1.35255 2.99176 1.364 3.03253C1.364 3.03253 1.39835 3.01214 1.41362 3.01214C1.41362 3.01214 1.37163 3.27721 1.5701 3.32308C1.5701 3.32308 1.5014 3.15996 1.50522 3.03763C1.50522 3.03763 1.5026 2.93622 1.5249 2.8493C1.5472 2.76237 1.56628 2.65533 1.56247 2.56867C1.55865 2.48202 1.54338 2.38517 1.45942 2.31381C1.45942 2.31381 1.52048 2.30871 1.5502 2.24245H1.54993C1.52021 2.17618 1.45915 2.17108 1.45915 2.17108C1.54311 2.09972 1.55838 2.00287 1.56219 1.91622C1.56601 1.82956 1.54693 1.72252 1.52463 1.63559C1.50233 1.54867 1.50495 1.44726 1.50495 1.44726C1.50113 1.32492 1.56983 1.1618 1.56983 1.1618C1.37136 1.20768 1.41335 1.47274 1.41335 1.47274C1.39808 1.47274 1.36373 1.45235 1.36373 1.45235C1.35228 1.49313 1.38663 1.5594 1.38663 1.5594C1.36755 1.56449 1.33701 1.5594 1.33701 1.5594C1.33701 1.61037 1.39045 1.67154 1.39045 1.67154C1.35651 1.66088 1.31892 1.6592 1.28656 1.6786C1.2191 1.71905 1.18376 1.84229 1.21679 1.93107C1.23024 1.96722 1.25929 2.00287 1.29121 2.00287C1.32175 2.00287 1.33701 1.98758 1.33701 1.98758C1.34846 2.01306 1.34083 2.05894 1.34083 2.05894C1.39045 2.04364 1.379 1.96718 1.379 1.96718C1.41335 1.96209 1.42861 1.9366 1.42861 1.9366C1.41716 1.91112 1.379 1.89582 1.379 1.89582C1.39045 1.82446 1.34465 1.80407 1.34465 1.80407C1.35991 1.90602 1.3103 1.90092 1.3103 1.90092C1.26831 1.90092 1.27226 1.84871 1.27226 1.84871C1.27976 1.7633 1.35313 1.74235 1.40013 1.78032C1.42523 1.8006 1.44255 1.83571 1.45023 1.87354C1.4655 1.94864 1.45125 2.03042 1.39961 2.07202C1.36012 2.10383 1.3119 2.11657 1.26644 2.10539C1.21642 2.0931 1.1753 2.04966 1.16481 1.98147C1.15386 1.91038 1.17361 1.83624 1.19238 1.77063C1.22342 1.6621 1.27007 1.56103 1.29775 1.45159C1.31546 1.38153 1.3291 1.3091 1.29166 1.24471C1.23845 1.15321 1.14301 1.17369 1.0813 1.23603C1.01959 1.17369 0.924153 1.15321 0.870938 1.24471C0.833497 1.30909 0.847133 1.38153 0.86485 1.45159C0.892525 1.56103 0.939179 1.6621 0.970216 1.77063C0.988978 1.83624 1.00873 1.91038 0.997787 1.98147C0.987292 2.04965 0.946171 2.09309 0.896158 2.10539C0.850698 2.11657 0.802471 2.10383 0.762984 2.07202C0.711345 2.03042 0.697098 1.94863 0.712361 1.87354C0.720051 1.83571 0.737359 1.8006 0.762469 1.78032C0.809467 1.74235 0.88283 1.7633 0.89033 1.84871C0.89033 1.84871 0.89428 1.90092 0.852297 1.90092C0.852297 1.90092 0.802681 1.90602 0.817948 1.80407C0.817948 1.80407 0.772148 1.82446 0.783598 1.89582C0.783598 1.89582 0.745432 1.91112 0.733982 1.9366C0.733982 1.9366 0.749248 1.96209 0.783598 1.96718C0.783598 1.96718 0.772148 2.04364 0.821764 2.05894C0.821764 2.05894 0.814131 2.01306 0.825581 1.98758C0.825581 1.98758 0.840847 2.00287 0.87138 2.00287C0.903303 2.00287 0.932359 1.96722 0.945805 1.93107C0.97883 1.84229 0.943492 1.71905 0.876037 1.6786C0.843676 1.6592 0.806082 1.66087 0.772148 1.67154C0.772148 1.67154 0.825581 1.61037 0.825581 1.5594C0.825581 1.5594 0.795048 1.56449 0.775965 1.5594C0.775965 1.5594 0.810314 1.49313 0.798864 1.45235C0.798864 1.45235 0.764515 1.47274 0.749248 1.47274C0.749248 1.47274 0.791231 1.20768 0.592766 1.1618C0.592766 1.1618 0.661466 1.32492 0.657649 1.44726C0.657649 1.44726 0.660267 1.54867 0.637967 1.63559C0.615666 1.72251 0.596583 1.82956 0.6004 1.91622C0.604216 2.00287 0.619483 2.09972 0.703449 2.17108C0.703449 2.17108 0.642382 2.17618 0.612666 2.24245H0.612392C0.642108 2.30871 0.703174 2.31381 0.703174 2.31381C0.619208 2.38517 0.603942 2.48202 0.600125 2.56867C0.596308 2.65533 0.615391 2.76237 0.637692 2.8493C0.659992 2.93622 0.657374 3.03763 0.657374 3.03763C0.661191 3.15996 0.592492 3.32308 0.592492 3.32308C0.790956 3.27721 0.748974 3.01214 0.748974 3.01214C0.76424 3.01214 0.79859 3.03253 0.79859 3.03253C0.81004 2.99176 0.77569 2.92549 0.77569 2.92549C0.794773 2.92039 0.825306 2.92549 0.825306 2.92549C0.825306 2.87452 0.771873 2.81335 0.771873 2.81335C0.805807 2.82401 0.843401 2.82569 0.875762 2.80628C0.943217 2.76584 0.978555 2.6426 0.94553 2.55381C0.932084 2.51767 0.903028 2.48202 0.871106 2.48202C0.840573 2.48202 0.825306 2.49731 0.825306 2.49731C0.813856 2.47182 0.82149 2.42595 0.82149 2.42595C0.771873 2.44124 0.783323 2.5177 0.783323 2.5177C0.748974 2.5228 0.733707 2.54829 0.733707 2.54829C0.745157 2.57377 0.783323 2.58906 0.783323 2.58906C0.771873 2.66042 0.817673 2.68081 0.817673 2.68081C0.802406 2.57887 0.852023 2.58396 0.852023 2.58396C0.894006 2.58396 0.890059 2.63617 0.890059 2.63617C0.882556 2.72159 0.809192 2.74254 0.762198 2.70457C0.737088 2.68428 0.719776 2.64917 0.71209 2.61135C0.696823 2.53624 0.711074 2.45446 0.762713 2.41286C0.8022 2.38106 0.850431 2.36831 0.895887 2.37949C0.9459 2.39178 0.990837 2.44032 1.00133 2.50851C1.00133 2.50851 1.0162 2.60123 0.997058 2.66042C0.924542 2.8847 0.569596 3.8532 0.569596 3.8532C0.569596 3.8532 0.539062 3.94495 0.539062 4.0571C0.539062 4.15408 0.577885 4.32216 0.732131 4.36803C0.577885 4.41391 0.539062 4.58199 0.539062 4.67897C0.539062 4.79112 0.569596 4.88287 0.569596 4.88287C0.569596 4.88287 0.924542 5.85137 0.997058 6.07565C1.0162 6.13484 1.00133 6.22756 1.00133 6.22756C0.990837 6.29575 0.9459 6.34429 0.895887 6.35658C0.850427 6.36776 0.8022 6.35501 0.762713 6.32321C0.711074 6.28161 0.696827 6.19982 0.71209 6.12472C0.719776 6.0869 0.737088 6.05179 0.762198 6.03151C0.809196 5.99354 0.882559 6.01448 0.890059 6.0999C0.890059 6.0999 0.894006 6.15211 0.852023 6.15211C0.852023 6.15211 0.802406 6.15721 0.817673 6.05526C0.817673 6.05526 0.771873 6.07565 0.783323 6.14701C0.783323 6.14701 0.745157 6.1623 0.733707 6.18779C0.733707 6.18779 0.748974 6.21327 0.783323 6.21837C0.783323 6.21837 0.771873 6.29483 0.82149 6.31012C0.82149 6.31012 0.813856 6.26425 0.825306 6.23876C0.825306 6.23876 0.840573 6.25406 0.871106 6.25406C0.903028 6.25406 0.932084 6.21841 0.94553 6.18226C0.978555 6.09348 0.943217 5.97024 0.875762 5.92979C0.843401 5.91039 0.805807 5.91206 0.771873 5.92273C0.771873 5.92273 0.825306 5.86156 0.825306 5.81058C0.825306 5.81058 0.794773 5.81568 0.77569 5.81058C0.77569 5.81058 0.81004 5.74432 0.79859 5.70354C0.79859 5.70354 0.76424 5.72393 0.748974 5.72393C0.748974 5.72393 0.790956 5.45887 0.592492 5.41299C0.592492 5.41299 0.661191 5.57611 0.657374 5.69845C0.657374 5.69845 0.659992 5.79986 0.637692 5.88678C0.615391 5.9737 0.596308 6.08075 0.600125 6.1674C0.603942 6.25406 0.619208 6.35091 0.703174 6.42227C0.703174 6.42227 0.642108 6.42737 0.612392 6.49363C0.642108 6.5599 0.703174 6.56499 0.703174 6.56499C0.619208 6.63636 0.603942 6.73321 0.600125 6.81986C0.596308 6.90652 0.615391 7.01356 0.637692 7.10048C0.659992 7.18741 0.657374 7.28882 0.657374 7.28882C0.661191 7.41115 0.592492 7.57427 0.592492 7.57427C0.790956 7.52839 0.748974 7.26333 0.748974 7.26333C0.76424 7.26333 0.79859 7.28372 0.79859 7.28372C0.81004 7.24295 0.77569 7.17668 0.77569 7.17668C0.794773 7.17158 0.825306 7.17668 0.825306 7.17668C0.825306 7.1257 0.771873 7.06454 0.771873 7.06454C0.805807 7.0752 0.843401 7.07688 0.875762 7.05747C0.943217 7.01703 0.978555 6.89378 0.94553 6.805C0.932084 6.76885 0.903028 6.73321 0.871106 6.73321C0.840573 6.73321 0.825306 6.7485 0.825306 6.7485C0.813856 6.72301 0.82149 6.67714 0.82149 6.67714C0.771873 6.69243 0.783323 6.76889 0.783323 6.76889C0.748974 6.77399 0.733707 6.79947 0.733707 6.79947C0.745157 6.82496 0.783323 6.84025 0.783323 6.84025C0.771873 6.91161 0.817673 6.932 0.817673 6.932C0.802406 6.83006 0.852023 6.83515 0.852023 6.83515C0.894006 6.83515 0.890059 6.88736 0.890059 6.88736C0.882556 6.97278 0.809192 6.99372 0.762198 6.95576C0.737088 6.93547 0.719776 6.90036 0.71209 6.86254C0.696823 6.78744 0.711074 6.70565 0.762713 6.66405C0.8022 6.63225 0.850431 6.6195 0.895887 6.63068C0.9459 6.64298 0.990837 6.69151 1.00133 6.7597C1.00133 6.7597 1.0162 6.85242 0.997058 6.91162C0.924542 7.1359 0.569596 8.1044 0.569596 8.1044C0.569596 8.1044 0.539062 8.19615 0.539062 8.30829C0.539062 8.40528 0.577885 8.57336 0.732131 8.61923C0.577885 8.66511 0.539062 8.83319 0.539062 8.93017C0.539062 9.04232 0.569596 9.13407 0.569596 9.13407C0.569596 9.13407 0.924542 10.1026 0.997058 10.3268C1.0162 10.386 1.00133 10.4788 1.00133 10.4788C0.990837 10.5469 0.9459 10.5955 0.895887 10.6078C0.850427 10.619 0.8022 10.6062 0.762713 10.5744C0.711074 10.5328 0.696827 10.451 0.71209 10.3759C0.719776 10.3381 0.737088 10.303 0.762198 10.2827C0.809196 10.2447 0.882559 10.2657 0.890059 10.3511C0.890059 10.3511 0.894006 10.4033 0.852023 10.4033C0.852023 10.4033 0.802406 10.4084 0.817673 10.3065C0.817673 10.3065 0.771873 10.3268 0.783323 10.3982C0.783323 10.3982 0.745157 10.4135 0.733707 10.439C0.733707 10.439 0.748974 10.4645 0.783323 10.4696C0.783323 10.4696 0.771873 10.546 0.82149 10.5613C0.82149 10.5613 0.813856 10.5154 0.825306 10.49C0.825306 10.49 0.840573 10.5052 0.871106 10.5052C0.903028 10.5052 0.932084 10.4696 0.94553 10.4335C0.978555 10.3447 0.943217 10.2214 0.875762 10.181C0.843401 10.1616 0.805807 10.1633 0.771873 10.1739C0.771873 10.1739 0.825306 10.1128 0.825306 10.0618C0.825306 10.0618 0.794773 10.0669 0.77569 10.0618C0.77569 10.0618 0.81004 9.99551 0.79859 9.95473C0.79859 9.95473 0.76424 9.97513 0.748974 9.97513C0.748974 9.97513 0.790956 9.71006 0.592492 9.66419C0.592492 9.66419 0.661191 9.8273 0.657374 9.94964C0.657374 9.94964 0.659992 10.0511 0.637692 10.138C0.615391 10.2249 0.596308 10.3319 0.600125 10.4186C0.603942 10.5053 0.619208 10.6021 0.703174 10.6735C0.703174 10.6735 0.642108 10.6786 0.612392 10.7448H0.612666C0.642382 10.8111 0.703449 10.8162 0.703449 10.8162C0.619483 10.8875 0.604216 10.9844 0.6004 11.0711C0.596583 11.1577 0.615666 11.2648 0.637967 11.3517C0.660267 11.4386 0.657649 11.54 0.657649 11.54C0.661466 11.6624 0.592766 11.8255 0.592766 11.8255C0.791231 11.7796 0.749248 11.5145 0.749248 11.5145C0.764515 11.5145 0.798864 11.5349 0.798864 11.5349C0.810314 11.4941 0.775965 11.4279 0.775965 11.4279C0.795048 11.4228 0.825581 11.4279 0.825581 11.4279C0.825581 11.3769 0.772148 11.3157 0.772148 11.3157C0.806082 11.3264 0.843676 11.3281 0.876037 11.3087C0.943492 11.2682 0.97883 11.145 0.945805 11.0562C0.932359 11.0201 0.903303 10.9844 0.87138 10.9844C0.840847 10.9844 0.825581 10.9997 0.825581 10.9997C0.814131 10.9742 0.821764 10.9283 0.821764 10.9283C0.772148 10.9436 0.783598 11.0201 0.783598 11.0201C0.749248 11.0252 0.733982 11.0507 0.733982 11.0507C0.745432 11.0762 0.783598 11.0914 0.783598 11.0914C0.772148 11.1628 0.817948 11.1832 0.817948 11.1832C0.802681 11.0813 0.852297 11.0864 0.852297 11.0864C0.89428 11.0864 0.89033 11.1386 0.89033 11.1386C0.88283 11.224 0.809463 11.2449 0.762469 11.207C0.737359 11.1867 0.720047 11.1516 0.712361 11.1137C0.697098 11.0386 0.711345 10.9568 0.762984 10.9152C0.802471 10.8834 0.850698 10.8707 0.896158 10.8819C0.946167 10.8942 0.987292 10.9376 0.997787 11.0058C1.00873 11.0769 0.988982 11.151 0.970216 11.2166C0.939175 11.3252 0.892525 11.4262 0.86485 11.5357C0.847133 11.6057 0.833497 11.6782 0.870938 11.7426C0.924153 11.8341 1.01959 11.8136 1.0813 11.7512C1.14301 11.8136 1.23844 11.8341 1.29166 11.7426C1.3291 11.6782 1.31546 11.6057 1.29775 11.5357C1.27007 11.4262 1.22342 11.3252 1.19238 11.2166C1.17362 11.151 1.15386 11.0769 1.16481 11.0058C1.1753 10.9376 1.21642 10.8942 1.26644 10.8819C1.3119 10.8707 1.36012 10.8834 1.39961 10.9152C1.45125 10.9568 1.4655 11.0386 1.45023 11.1137C1.44255 11.1516 1.42523 11.1867 1.40013 11.207C1.35313 11.2449 1.27976 11.224 1.27226 11.1386C1.27226 11.1386 1.26831 11.0864 1.3103 11.0864C1.3103 11.0864 1.35991 11.0813 1.34465 11.1832C1.34465 11.1832 1.39045 11.1628 1.379 11.0914C1.379 11.0914 1.41716 11.0762 1.42861 11.0507C1.42861 11.0507 1.41335 11.0252 1.379 11.0201C1.379 11.0201 1.39045 10.9436 1.34083 10.9283C1.34083 10.9283 1.34846 10.9742 1.33701 10.9997C1.33701 10.9997 1.32175 10.9844 1.29121 10.9844C1.25929 10.9844 1.23024 11.0201 1.21679 11.0562C1.18376 11.145 1.2191 11.2682 1.28656 11.3087C1.31892 11.3281 1.35651 11.3264 1.39045 11.3157C1.39045 11.3157 1.33701 11.3769 1.33701 11.4279C1.33701 11.4279 1.36755 11.4228 1.38663 11.4279C1.38663 11.4279 1.35228 11.4941 1.36373 11.5349C1.36373 11.5349 1.39808 11.5145 1.41335 11.5145C1.41335 11.5145 1.37136 11.7796 1.56983 11.8255C1.56983 11.8255 1.50113 11.6624 1.50495 11.54C1.50495 11.54 1.50233 11.4386 1.52463 11.3517C1.54693 11.2648 1.56601 11.1577 1.56219 11.0711C1.55838 10.9844 1.54311 10.8876 1.45915 10.8162C1.45915 10.8162 1.52021 10.8111 1.54993 10.7448H1.5502C1.52048 10.6786 1.45942 10.6735 1.45942 10.6735C1.54338 10.6021 1.55865 10.5053 1.56247 10.4186C1.56628 10.3319 1.5472 10.2249 1.5249 10.138C1.5026 10.0511 1.50522 9.94964 1.50522 9.94964C1.5014 9.8273 1.5701 9.66419 1.5701 9.66419C1.37163 9.71006 1.41362 9.97513 1.41362 9.97513C1.39835 9.97513 1.364 9.95473 1.364 9.95473C1.35255 9.99551 1.3869 10.0618 1.3869 10.0618C1.36782 10.0669 1.33728 10.0618 1.33728 10.0618C1.33728 10.1128 1.39072 10.1739 1.39072 10.1739C1.35678 10.1633 1.31919 10.1616 1.28683 10.181C1.21937 10.2214 1.18404 10.3447 1.21706 10.4335C1.23051 10.4696 1.25956 10.5052 1.29148 10.5052C1.32202 10.5052 1.33728 10.49 1.33728 10.49C1.34873 10.5154 1.3411 10.5613 1.3411 10.5613C1.39072 10.546 1.37927 10.4696 1.37927 10.4696C1.41362 10.4645 1.42888 10.439 1.42888 10.439C1.41743 10.4135 1.37927 10.3982 1.37927 10.3982C1.39072 10.3268 1.34492 10.3065 1.34492 10.3065C1.36018 10.4084 1.31057 10.4033 1.31057 10.4033C1.26859 10.4033 1.27254 10.3511 1.27254 10.3511C1.28003 10.2657 1.3534 10.2447 1.4004 10.2827C1.42551 10.303 1.44282 10.3381 1.4505 10.3759C1.46577 10.451 1.45152 10.5328 1.39988 10.5744C1.36039 10.6062 1.31217 10.619 1.26671 10.6078C1.21669 10.5955 1.17176 10.5469 1.16126 10.4788C1.16126 10.4788 1.1464 10.386 1.16554 10.3268C1.23805 10.1026 1.593 9.13407 1.593 9.13407C1.593 9.13407 1.62353 9.04232 1.62353 8.93017C1.62353 8.83319 1.58471 8.66511 1.43046 8.61923C1.58471 8.57336 1.62353 8.40528 1.62353 8.30829C1.62353 8.19615 1.593 8.1044 1.593 8.1044C1.593 8.1044 1.23805 7.1359 1.16554 6.91162C1.1464 6.85242 1.16126 6.7597 1.16126 6.7597C1.17176 6.69151 1.21669 6.64298 1.26671 6.63068C1.31217 6.61951 1.36039 6.63225 1.39988 6.66405C1.45152 6.70566 1.46577 6.78744 1.4505 6.86254C1.44281 6.90036 1.42551 6.93547 1.4004 6.95576C1.3534 6.99372 1.28003 6.97278 1.27254 6.88736C1.27254 6.88736 1.26859 6.83515 1.31057 6.83515C1.31057 6.83515 1.36018 6.83005 1.34492 6.932C1.34492 6.932 1.39072 6.91161 1.37927 6.84025C1.37927 6.84025 1.41743 6.82496 1.42888 6.79947C1.42888 6.79947 1.41362 6.77399 1.37927 6.76889C1.37927 6.76889 1.39072 6.69243 1.3411 6.67714C1.3411 6.67714 1.34873 6.72301 1.33728 6.7485C1.33728 6.7485 1.32202 6.73321 1.29148 6.73321C1.25956 6.73321 1.23051 6.76885 1.21706 6.805C1.18404 6.89378 1.21937 7.01703 1.28683 7.05747C1.31919 7.07688 1.35678 7.0752 1.39072 7.06454C1.39072 7.06454 1.33728 7.1257 1.33728 7.17668C1.33728 7.17668 1.36782 7.17158 1.3869 7.17668C1.3869 7.17668 1.35255 7.24295 1.364 7.28372C1.364 7.28372 1.39835 7.26333 1.41362 7.26333C1.41362 7.26333 1.37163 7.52839 1.5701 7.57427C1.5701 7.57427 1.5014 7.41116 1.50522 7.28882C1.50522 7.28882 1.5026 7.18741 1.5249 7.10048C1.5472 7.01356 1.56628 6.90652 1.56247 6.81986C1.55865 6.73321 1.54338 6.63636 1.45942 6.56499C1.45942 6.56499 1.52048 6.5599 1.5502 6.49363C1.52048 6.42737 1.45942 6.42227 1.45942 6.42227C1.54338 6.35091 1.55865 6.25406 1.56247 6.1674C1.56628 6.08075 1.5472 5.97371 1.5249 5.88678C1.5026 5.79986 1.50522 5.69845 1.50522 5.69845C1.5014 5.57611 1.5701 5.41299 1.5701 5.41299C1.37163 5.45887 1.41362 5.72393 1.41362 5.72393C1.39835 5.72393 1.364 5.70354 1.364 5.70354C1.35255 5.74432 1.3869 5.81058 1.3869 5.81058C1.36782 5.81568 1.33728 5.81058 1.33728 5.81058C1.33728 5.86156 1.39072 5.92273 1.39072 5.92273C1.35678 5.91207 1.31919 5.91039 1.28683 5.92979C1.21937 5.97024 1.18404 6.09348 1.21706 6.18226C1.23051 6.21841 1.25956 6.25406 1.29148 6.25406C1.32202 6.25406 1.33728 6.23876 1.33728 6.23876C1.34873 6.26425 1.3411 6.31012 1.3411 6.31012C1.39072 6.29483 1.37927 6.21837 1.37927 6.21837C1.41362 6.21327 1.42888 6.18779 1.42888 6.18779C1.41743 6.1623 1.37927 6.14701 1.37927 6.14701C1.39072 6.07565 1.34492 6.05526 1.34492 6.05526C1.36018 6.15721 1.31057 6.15211 1.31057 6.15211C1.26859 6.15211 1.27254 6.0999 1.27254 6.0999C1.28003 6.01448 1.3534 5.99354 1.4004 6.03151C1.42551 6.05179 1.44282 6.0869 1.4505 6.12472C1.46577 6.19982 1.45152 6.28161 1.39988 6.32321C1.36039 6.35501 1.31217 6.36776 1.26671 6.35658C1.21669 6.34429 1.17176 6.29575 1.16126 6.22756C1.16126 6.22756 1.1464 6.13484 1.16554 6.07565C1.23805 5.85137 1.593 4.88287 1.593 4.88287ZM0.955346 1.36059C0.955346 1.30937 0.982063 1.30962 0.982063 1.30962C1.01465 1.30479 1.0749 1.36588 1.08102 1.37219V1.37276C1.08102 1.37276 1.08113 1.37265 1.0813 1.37247C1.08146 1.37265 1.08157 1.37276 1.08157 1.37276V1.37219C1.08769 1.36588 1.14795 1.30479 1.18053 1.30962C1.18053 1.30962 1.20724 1.30937 1.20724 1.36059C1.20724 1.44003 1.08754 1.77392 1.0813 1.79129C1.07505 1.77392 0.955346 1.44003 0.955346 1.36059ZM0.882613 2.24244H0.882884C1.03257 2.21317 1.07768 2.09871 1.0813 2.08888C1.08491 2.09871 1.13002 2.21317 1.27971 2.24244H1.27998C1.12355 2.27302 1.0813 2.39674 1.0813 2.39674C1.0813 2.39674 1.03904 2.27302 0.882613 2.24244ZM0.645928 4.03671C0.642112 3.97044 0.657378 3.92457 0.657378 3.92457L1.0813 2.72676L1.50522 3.92457C1.50522 3.92457 1.52048 3.97044 1.51667 4.03671C1.51285 4.10298 1.4785 4.2406 1.364 4.2406C1.364 4.2406 1.24187 4.24061 1.22279 4.08769C1.22279 4.08769 1.21897 4.00613 1.28003 3.99083C1.3411 3.97554 1.35113 4.0804 1.34039 4.13247C1.34039 4.13247 1.4098 4.08768 1.40217 4.00613C1.40217 4.00613 1.45942 3.97554 1.4785 3.94496C1.4785 3.94496 1.45942 3.90418 1.40598 3.88889C1.40598 3.88889 1.42125 3.79714 1.33728 3.75126C1.33728 3.75126 1.364 3.8685 1.30675 3.88379C1.30675 3.88379 1.19607 3.8685 1.15027 3.95006C1.15027 3.95006 1.13119 3.62383 1.15027 3.58305C1.18565 3.50744 1.28767 3.54227 1.30675 3.55247C1.30675 3.55247 1.28385 3.38425 1.12737 3.39955C1.12737 3.39955 1.17699 3.34348 1.17699 3.26192C1.17699 3.18036 1.0813 3.04878 1.0813 3.04878C1.0813 3.04878 0.985608 3.18037 0.985608 3.26192C0.985608 3.34348 1.03522 3.39955 1.03522 3.39955C0.878743 3.38425 0.855843 3.55247 0.855843 3.55247C0.874926 3.54227 0.976941 3.50744 1.01232 3.58305C1.03141 3.62383 1.01232 3.95006 1.01232 3.95006C0.966525 3.8685 0.855843 3.88379 0.855843 3.88379C0.798593 3.8685 0.82531 3.75126 0.82531 3.75126C0.741344 3.79714 0.756611 3.88889 0.756611 3.88889C0.703178 3.90418 0.684095 3.94496 0.684095 3.94496C0.703178 3.97554 0.760427 4.00613 0.760427 4.00613C0.752794 4.08768 0.822203 4.13247 0.822203 4.13247C0.811463 4.0804 0.821493 3.97554 0.882559 3.99083C0.943626 4.00613 0.939809 4.08769 0.939809 4.08769C0.920726 4.24061 0.798593 4.2406 0.798593 4.2406C0.684095 4.2406 0.649745 4.10297 0.645928 4.03671ZM1.0813 4.13247C1.13882 4.33236 1.29056 4.36804 1.29056 4.36804C1.29056 4.36804 1.13882 4.40372 1.0813 4.60361C1.02377 4.40372 0.868217 4.36804 0.868217 4.36804C0.868217 4.36804 1.02377 4.33236 1.0813 4.13247ZM1.20724 11.6267C1.20724 11.6779 1.18053 11.6776 1.18053 11.6776C1.14795 11.6825 1.08769 11.6214 1.08157 11.6151V11.6145C1.08157 11.6145 1.08146 11.6146 1.0813 11.6148C1.08113 11.6146 1.08102 11.6145 1.08102 11.6145V11.6151C1.0749 11.6214 1.01464 11.6825 0.982063 11.6776C0.982063 11.6776 0.955346 11.6779 0.955346 11.6267C0.955346 11.5472 1.07505 11.2133 1.0813 11.196C1.08754 11.2133 1.20724 11.5472 1.20724 11.6267ZM1.27998 10.7448H1.27971C1.13003 10.7741 1.08491 10.8886 1.0813 10.8984C1.07768 10.8886 1.03257 10.7741 0.882888 10.7448H0.882617C1.03905 10.7142 1.0813 10.5905 1.0813 10.5905C1.0813 10.5905 1.12355 10.7142 1.27998 10.7448ZM1.51667 8.95056C1.52048 9.01682 1.50522 9.0627 1.50522 9.0627L1.0813 10.2605L0.657378 9.0627C0.657378 9.0627 0.642112 9.01682 0.645928 8.95056C0.649745 8.88429 0.684095 8.74666 0.798593 8.74666C0.798593 8.74666 0.920726 8.74666 0.939809 8.89958C0.939809 8.89958 0.943626 8.98114 0.882559 8.99643C0.821493 9.01173 0.811463 8.90686 0.822203 8.8548C0.822203 8.8548 0.752794 8.89958 0.760427 8.98114C0.760427 8.98114 0.703178 9.01172 0.684095 9.04231C0.684095 9.04231 0.703178 9.08309 0.756611 9.09838C0.756611 9.09838 0.741344 9.19014 0.82531 9.23601C0.82531 9.23601 0.798593 9.11877 0.855843 9.10348C0.855843 9.10348 0.966525 9.11877 1.01232 9.03722C1.01232 9.03722 1.03141 9.36345 1.01232 9.40422C0.976941 9.47984 0.874926 9.445 0.855843 9.43481C0.855843 9.43481 0.878743 9.60302 1.03522 9.58773C1.03522 9.58773 0.985608 9.6438 0.985608 9.72535C0.985608 9.80691 1.0813 9.9385 1.0813 9.9385C1.0813 9.9385 1.17699 9.80691 1.17699 9.72535C1.17699 9.6438 1.12737 9.58773 1.12737 9.58773C1.28385 9.60302 1.30675 9.43481 1.30675 9.43481C1.28767 9.445 1.18565 9.47984 1.15027 9.40422C1.13119 9.36345 1.15027 9.03722 1.15027 9.03722C1.19607 9.11877 1.30675 9.10348 1.30675 9.10348C1.364 9.11877 1.33728 9.23601 1.33728 9.23601C1.42125 9.19014 1.40598 9.09838 1.40598 9.09838C1.45942 9.08309 1.4785 9.04231 1.4785 9.04231C1.45942 9.01172 1.40217 8.98114 1.40217 8.98114C1.4098 8.89958 1.34039 8.8548 1.34039 8.8548C1.35113 8.90686 1.3411 9.01173 1.28003 8.99643C1.21897 8.98114 1.22279 8.89958 1.22279 8.89958C1.24187 8.74666 1.364 8.74666 1.364 8.74666C1.4785 8.74667 1.51285 8.8843 1.51667 8.95056ZM1.0813 8.8548C1.02377 8.65491 0.868217 8.61923 0.868217 8.61923C0.868217 8.61923 1.02377 8.58355 1.0813 8.38366C1.13882 8.58355 1.29056 8.61923 1.29056 8.61923C1.29056 8.61923 1.13882 8.65491 1.0813 8.8548ZM1.50522 8.17576C1.50522 8.17576 1.52048 8.22164 1.51667 8.2879C1.51285 8.35417 1.4785 8.4918 1.364 8.4918C1.364 8.4918 1.24187 8.4918 1.22279 8.33888C1.22279 8.33888 1.21897 8.25732 1.28003 8.24203C1.3411 8.22674 1.35113 8.3316 1.34039 8.38366C1.34039 8.38366 1.4098 8.33888 1.40217 8.25732C1.40217 8.25732 1.45942 8.22674 1.4785 8.19615C1.4785 8.19615 1.45942 8.15538 1.40598 8.14008C1.40598 8.14008 1.42125 8.04833 1.33728 8.00246C1.33728 8.00246 1.364 8.1197 1.30675 8.13498C1.30675 8.13498 1.19607 8.11969 1.15027 8.20125C1.15027 8.20125 1.13119 7.87502 1.15027 7.83424C1.18565 7.75862 1.28767 7.79346 1.30675 7.80365C1.30675 7.80365 1.28385 7.63544 1.12737 7.65073C1.12737 7.65073 1.17699 7.59466 1.17699 7.51311C1.17699 7.43155 1.0813 7.29997 1.0813 7.29997C1.0813 7.29997 0.985608 7.43155 0.985608 7.51311C0.985608 7.59467 1.03522 7.65073 1.03522 7.65073C0.878743 7.63544 0.855843 7.80365 0.855843 7.80365C0.874926 7.79346 0.976941 7.75862 1.01232 7.83424C1.03141 7.87502 1.01232 8.20125 1.01232 8.20125C0.966525 8.11969 0.855843 8.13498 0.855843 8.13498C0.798593 8.11969 0.82531 8.00246 0.82531 8.00246C0.741344 8.04833 0.756611 8.14008 0.756611 8.14008C0.703178 8.15538 0.684095 8.19615 0.684095 8.19615C0.703178 8.22674 0.760427 8.25732 0.760427 8.25732C0.752794 8.33888 0.822203 8.38366 0.822203 8.38366C0.811463 8.3316 0.821493 8.22674 0.882559 8.24203C0.943626 8.25732 0.939809 8.33888 0.939809 8.33888C0.920726 8.4918 0.798593 8.4918 0.798593 8.4918C0.684095 8.4918 0.649745 8.35417 0.645928 8.2879C0.642112 8.22164 0.657378 8.17576 0.657378 8.17576L1.0813 6.97795L1.50522 8.17576ZM1.27998 6.49363C1.12355 6.52422 1.0813 6.64794 1.0813 6.64794C1.0813 6.64794 1.03904 6.52422 0.882617 6.49363C1.03905 6.46305 1.0813 6.33933 1.0813 6.33933C1.0813 6.33933 1.12355 6.46305 1.27998 6.49363ZM1.0813 6.00931L0.657378 4.81151C0.657378 4.81151 0.642112 4.76563 0.645928 4.69936C0.649745 4.6331 0.684095 4.49547 0.798593 4.49547C0.798593 4.49547 0.920726 4.49547 0.939809 4.64839C0.939809 4.64839 0.943626 4.72995 0.882559 4.74524C0.821493 4.76053 0.811463 4.65567 0.822203 4.60361C0.822203 4.60361 0.752794 4.64839 0.760427 4.72995C0.760427 4.72995 0.703178 4.76053 0.684095 4.79112C0.684095 4.79112 0.703178 4.83189 0.756611 4.84718C0.756611 4.84718 0.741344 4.93894 0.82531 4.98481C0.82531 4.98481 0.798593 4.86758 0.855843 4.85228C0.855843 4.85228 0.966525 4.86757 1.01232 4.78601C1.01232 4.78601 1.03141 5.11224 1.01232 5.15302C0.976941 5.22864 0.874926 5.1938 0.855843 5.18361C0.855843 5.18361 0.878743 5.35182 1.03522 5.33653C1.03522 5.33653 0.985608 5.3926 0.985608 5.47416C0.985608 5.55571 1.0813 5.6873 1.0813 5.6873C1.0813 5.6873 1.17699 5.55571 1.17699 5.47416C1.17699 5.3926 1.12737 5.33653 1.12737 5.33653C1.28385 5.35182 1.30675 5.18361 1.30675 5.18361C1.28767 5.1938 1.18565 5.22864 1.15027 5.15302C1.13119 5.11225 1.15027 4.78601 1.15027 4.78601C1.19607 4.86757 1.30675 4.85228 1.30675 4.85228C1.364 4.86757 1.33728 4.98481 1.33728 4.98481C1.42125 4.93894 1.40598 4.84718 1.40598 4.84718C1.45942 4.83189 1.4785 4.79112 1.4785 4.79112C1.45942 4.76053 1.40217 4.72995 1.40217 4.72995C1.4098 4.64839 1.34039 4.60361 1.34039 4.60361C1.35113 4.65567 1.3411 4.76053 1.28003 4.74524C1.21897 4.72995 1.22279 4.64839 1.22279 4.64839C1.24187 4.49547 1.364 4.49547 1.364 4.49547C1.4785 4.49547 1.51285 4.6331 1.51667 4.69936C1.52048 4.76563 1.50522 4.81151 1.50522 4.81151L1.0813 6.00931Z" fill="#FFEC2D"/>
</svg>
