<svg width="48" height="40" viewBox="0 0 48 40" fill="none" xmlns="http://www.w3.org/2000/svg">
<path d="M10.323 18.3826L12.7316 16.0947L13.2723 16.831L15.1647 14.3853L17.4996 11.3872L18.9743 13.2281L21.3091 9.80934L23.9389 5.96976L26.3721 9.96713L28.0434 12.7285L29.6164 12.334L32.4182 15.7528L33.6717 14.359L40.111 20.6443C40.283 19.645 40.3813 18.593 40.3813 17.5148C40.3813 7.83695 33.0572 0 24.0127 0C14.9681 0 7.64401 7.83695 7.64401 17.5148C7.64401 27.1926 7.74232 19.645 7.91436 20.6706L10.323 18.3563V18.3826Z" fill="#021C69"/>
<path d="M48 27.5871L39.2995 24.3524L39.1275 24.1683L33.7942 18.9612L32.2949 20.618L28.51 15.9895L26.6421 16.4892L23.7911 11.7554L19.1705 18.5141L17.5238 16.4892L13.2473 22.0118L12.3625 20.8547L8.84793 24.1946L8.67588 24.3524L0 27.5871H48Z" fill="#021C69"/>
<path d="M2.72811 32.5575L0 39.8422H1.69585L2.28572 38.1854H5.30876L5.94777 39.8422H7.74194L4.86636 32.5575H2.72811ZM2.72811 36.7916C3.24424 35.3715 3.6129 34.2669 3.76037 33.7147C3.93241 34.2669 4.22734 35.1348 4.86636 36.7916H2.72811Z" fill="#021C69"/>
<path d="M10.2738 32.5575H8.62711V39.8685H13.8621L14.0833 38.4484H10.2738V32.5575Z" fill="#021C69"/>
<path d="M19.563 32.5575H17.4247L17.1052 33.4254L14.6966 39.8685H16.3925L16.9823 38.2117H20.0054L20.6444 39.8685H22.4386L19.563 32.5838V32.5575ZM17.4002 36.7916C17.8426 35.5819 18.1621 34.5825 18.3587 33.9776C18.3833 33.8725 18.4078 33.7936 18.4324 33.7147C18.457 33.8199 18.5061 33.925 18.5307 34.0565C18.7028 34.6088 19.0223 35.4241 19.5384 36.7916H17.4002Z" fill="#021C69"/>
<path d="M30.0085 32.5575H27.8702L27.0591 34.7403L25.1421 39.8422H26.8379L27.4278 38.1854H30.4508L31.0899 39.8422H32.884L30.4263 33.6358L30.0085 32.5575ZM27.8456 36.7916C28.2143 35.7659 28.5092 34.9244 28.6813 34.3195C28.755 34.0828 28.8287 33.8725 28.8533 33.7147C28.9025 33.8462 28.9516 34.0039 29.0008 34.2143C29.1974 34.7666 29.4923 35.5556 29.9593 36.7916H27.821H27.8456Z" fill="#021C69"/>
<path d="M36.1525 36.4234C35.2185 36.2656 35.071 36.1341 35.071 35.9237C35.071 35.7133 35.1694 35.4767 35.7838 35.4767C36.3982 35.4767 36.6686 35.7659 36.7423 36.0026H38.2907C38.217 35.24 37.6025 34.3458 35.833 34.3458C34.0634 34.3458 33.5227 35.2663 33.5227 36.0815C33.5227 36.8968 33.793 37.4753 35.6855 37.7646C36.6932 37.9224 36.9144 38.0539 36.9144 38.3432C36.9144 38.6325 36.7423 38.8166 36.0541 38.8166C35.366 38.8166 35.0465 38.5799 34.9236 38.1854H33.3506C33.4981 39.3425 34.5795 39.9737 35.9558 39.9737C37.3322 39.9737 38.4628 39.1585 38.4628 38.1854C38.4628 37.2124 38.1924 36.7127 36.177 36.3971L36.1525 36.4234Z" fill="#021C69"/>
<path d="M41.02 32.1368H39.447V33.5043H41.02V32.1368Z" fill="#021C69"/>
<path d="M41.02 34.5036H39.447V39.8685H41.02V34.5036Z" fill="#021C69"/>
<path d="M47.3356 36.3445C47.3356 35.4504 47.0161 34.3458 44.8533 34.3458C42.6905 34.3458 42.4447 35.4241 42.3955 36.0815H43.9685C44.0422 35.7659 44.1897 35.503 44.8779 35.503C45.5661 35.503 45.7873 35.8448 45.7873 36.2919V36.4497H44.7304C43.2558 36.4497 42.1006 36.8442 42.1006 38.238C42.1006 39.6318 42.6413 40 44.0177 40C45.394 40 45.5415 39.7107 45.8118 39.2636C45.8118 39.4214 45.8118 39.737 45.861 39.8685H47.3602C47.3602 39.7633 47.3111 39.0533 47.3111 38.3695V36.3708L47.3356 36.3445ZM45.7873 37.6068C45.7873 38.3695 45.3449 38.7903 44.4846 38.7903C43.6244 38.7903 43.649 38.501 43.649 38.1591C43.649 37.8172 43.9685 37.5016 44.7796 37.5016C45.5906 37.5016 45.6889 37.5016 45.7873 37.5016V37.6068Z" fill="#021C69"/>
</svg>
