<svg width="64" height="56" viewBox="0 0 64 56" fill="none" xmlns="http://www.w3.org/2000/svg">
<path d="M13.7633 25.7357L16.9748 22.5326L17.6957 23.5635L20.219 20.1394L23.3322 15.9422L25.2984 18.5194L28.4115 13.7331L31.9179 8.35767L35.1622 13.954L37.3906 17.8199L39.4878 17.2676L43.2236 22.0539L44.8949 20.1026L53.4807 28.9021C53.7101 27.503 53.8411 26.0303 53.8411 24.5207C53.8411 10.9717 44.0757 0 32.0163 0C19.9569 0 10.1914 10.9717 10.1914 24.5207C10.1914 38.0697 10.3225 27.503 10.5518 28.9389L13.7633 25.6989V25.7357Z" fill="#F3DE0E"/>
<path d="M64 38.622L52.3994 34.0934L52.17 33.8356L45.0589 26.5457L43.0599 28.8652L38.0133 22.3853L35.5228 23.0848L31.7215 16.4576L25.5607 25.9198L23.3651 23.0848L17.6631 30.8166L16.4834 29.1966L11.7972 33.8725L11.5678 34.0934L0 38.622H64Z" fill="white"/>
<path d="M3.63748 45.5805L0 55.7791H2.26114L3.04762 53.4595H7.07834L7.93037 55.7791H10.3226L6.48848 45.5805H3.63748ZM3.63748 51.5082C4.32565 49.52 4.81721 47.9737 5.01383 47.2005C5.24322 47.9737 5.63646 49.1887 6.48848 51.5082H3.63748Z" fill="white"/>
<path d="M13.6978 45.5805H11.5022V55.8159H18.4822L18.7771 53.8277H13.6978V45.5805Z" fill="white"/>
<path d="M26.0853 45.5805H23.2343L22.8082 46.7955L19.5968 55.8159H21.8579L22.6444 53.4964H26.6751L27.5271 55.8159H29.9194L26.0853 45.6173V45.5805ZM23.2015 51.5082C23.7913 49.8146 24.2174 48.4155 24.4795 47.5687C24.5123 47.4214 24.5451 47.311 24.5778 47.2005C24.6106 47.3478 24.6761 47.495 24.7089 47.6791C24.9383 48.4523 25.3643 49.5937 26.0525 51.5082H23.2015Z" fill="white"/>
<path d="M40.0125 45.5805H37.1616L36.0801 48.6364L33.5241 55.7791H35.7852L36.5717 53.4595H40.6024L41.4544 55.7791H43.8466L40.5696 47.09L40.0125 45.5805ZM37.1288 51.5082C37.6203 50.0723 38.0136 48.8941 38.243 48.0473C38.3413 47.716 38.4396 47.4214 38.4724 47.2005C38.5379 47.3846 38.6034 47.6055 38.669 47.9C38.9311 48.6732 39.3244 49.7778 39.947 51.5082H37.096H37.1288Z" fill="white"/>
<path d="M48.2052 50.9928C46.9599 50.7719 46.7633 50.5878 46.7633 50.2932C46.7633 49.9987 46.8944 49.6673 47.7136 49.6673C48.5329 49.6673 48.8934 50.0723 48.9917 50.4037H51.0562C50.9579 49.336 50.1386 48.0841 47.7792 48.0841C45.4197 48.0841 44.6988 49.3728 44.6988 50.5141C44.6988 51.6555 45.0593 52.4655 47.5826 52.8705C48.9261 53.0914 49.2211 53.2755 49.2211 53.6805C49.2211 54.0855 48.9917 54.3432 48.0741 54.3432C47.1566 54.3432 46.7305 54.0118 46.5667 53.4596H44.4694C44.666 55.0796 46.1079 55.9632 47.943 55.9632C49.7782 55.9632 51.2856 54.8218 51.2856 53.4596C51.2856 52.0973 50.9251 51.3978 48.238 50.9559L48.2052 50.9928Z" fill="white"/>
<path d="M54.6933 44.9915H52.596V46.906H54.6933V44.9915Z" fill="white"/>
<path d="M54.6933 48.3051H52.596V55.8159H54.6933V48.3051Z" fill="white"/>
<path d="M63.1155 50.8823C63.1155 49.6305 62.6895 48.0841 59.8057 48.0841C56.9219 48.0841 56.5942 49.5937 56.5287 50.5141H58.626C58.7243 50.0723 58.9209 49.7041 59.8385 49.7041C60.756 49.7041 61.0509 50.1828 61.0509 50.8087V51.0296H59.6418C57.6756 51.0296 56.1354 51.5819 56.1354 53.5332C56.1354 55.4846 56.8564 56 58.6915 56C60.5266 56 60.7232 55.595 61.0837 54.9691C61.0837 55.19 61.0837 55.6318 61.1493 55.8159H63.1482C63.1482 55.6686 63.0827 54.6746 63.0827 53.7173V50.9191L63.1155 50.8823ZM61.0509 52.6496C61.0509 53.7173 60.4611 54.3064 59.3141 54.3064C58.1672 54.3064 58.1999 53.9014 58.1999 53.4227C58.1999 52.9441 58.626 52.5023 59.7074 52.5023C60.7888 52.5023 60.9199 52.5023 61.0509 52.5023V52.6496Z" fill="white"/>
</svg>
