<svg width="48" height="40" viewBox="0 0 48 40" fill="none" xmlns="http://www.w3.org/2000/svg">
<path d="M10.3225 18.3827L12.7311 16.0947L13.2718 16.831L15.1643 14.3853L17.4991 11.3873L18.9738 13.2282L21.3087 9.80935L23.9385 5.96976L26.3716 9.96714L28.0429 12.7285L29.6159 12.334L32.4177 15.7528L33.6712 14.359L40.1105 20.6443C40.2826 19.645 40.3809 18.593 40.3809 17.5148C40.3809 7.83696 33.0567 0 24.0122 0C14.9676 0 7.64353 7.83696 7.64353 17.5148C7.64353 27.1927 7.74184 19.645 7.91388 20.6706L10.3225 18.3564V18.3827Z" fill="#FDD835"/>
<path d="M48 27.5871L39.2995 24.3524L39.1275 24.1683L33.7942 18.9612L32.2949 20.618L28.51 15.9895L26.6421 16.4892L23.7911 11.7554L19.1705 18.5141L17.5238 16.4892L13.2473 22.0118L12.3625 20.8547L8.84793 24.1946L8.67588 24.3524L0 27.5871H48Z" fill="#121B60"/>
<path d="M2.72811 32.5575L0 39.8422H1.69585L2.28572 38.1854H5.30876L5.94777 39.8422H7.74194L4.86636 32.5575H2.72811ZM2.72811 36.7916C3.24424 35.3714 3.6129 34.2669 3.76037 33.7146C3.93241 34.2669 4.22734 35.1348 4.86636 36.7916H2.72811Z" fill="#121B60"/>
<path d="M10.2733 32.5575H8.62663V39.8685H13.8617L14.0829 38.4484H10.2733V32.5575Z" fill="#121B60"/>
<path d="M19.5639 32.5575H17.4257L17.1062 33.4254L14.6976 39.8685H16.3934L16.9833 38.2117H20.0063L20.6454 39.8685H22.4395L19.5639 32.5838V32.5575ZM17.4011 36.7916C17.8435 35.5818 18.163 34.5825 18.3596 33.9776C18.3842 33.8724 18.4088 33.7935 18.4334 33.7146C18.458 33.8198 18.5071 33.925 18.5317 34.0565C18.7037 34.6088 19.0232 35.424 19.5394 36.7916H17.4011Z" fill="#121B60"/>
<path d="M30.0094 32.5575H27.8712L27.0601 34.7403L25.1431 39.8422H26.8389L27.4288 38.1854H30.4518L31.0908 39.8422H32.885L30.4272 33.6357L30.0094 32.5575ZM27.8466 36.7916C28.2152 35.7659 28.5102 34.9244 28.6822 34.3195C28.756 34.0828 28.8297 33.8724 28.8543 33.7146C28.9034 33.8461 28.9526 34.0039 29.0017 34.2143C29.1984 34.7666 29.4933 35.5555 29.9603 36.7916H27.822H27.8466Z" fill="#121B60"/>
<path d="M36.1539 36.4234C35.2199 36.2656 35.0725 36.1341 35.0725 35.9237C35.0725 35.7133 35.1708 35.4767 35.7852 35.4767C36.3997 35.4767 36.67 35.7659 36.7438 36.0026H38.2921C38.2184 35.24 37.604 34.3458 35.8344 34.3458C34.0648 34.3458 33.5241 35.2663 33.5241 36.0815C33.5241 36.8968 33.7944 37.4753 35.6869 37.7646C36.6946 37.9224 36.9158 38.0539 36.9158 38.3432C36.9158 38.6325 36.7438 38.8166 36.0556 38.8166C35.3674 38.8166 35.0479 38.5799 34.925 38.1854H33.3521C33.4995 39.3425 34.5809 39.9737 35.9573 39.9737C37.3336 39.9737 38.4642 39.1584 38.4642 38.1854C38.4642 37.2124 38.1938 36.7127 36.1785 36.3971L36.1539 36.4234Z" fill="#121B60"/>
<path d="M41.02 32.1368H39.447V33.5043H41.02V32.1368Z" fill="#121B60"/>
<path d="M41.02 34.5036H39.447V39.8685H41.02V34.5036Z" fill="#121B60"/>
<path d="M47.3366 36.3445C47.3366 35.4504 47.0171 34.3458 44.8543 34.3458C42.6914 34.3458 42.4457 35.4241 42.3965 36.0815H43.9695C44.0432 35.7659 44.1907 35.503 44.8788 35.503C45.567 35.503 45.7882 35.8448 45.7882 36.2919V36.4497H44.7314C43.2567 36.4497 42.1016 36.8442 42.1016 38.238C42.1016 39.6318 42.6423 40 44.0186 40C45.395 40 45.5424 39.7107 45.8128 39.2636C45.8128 39.4214 45.8128 39.737 45.8619 39.8685H47.3612C47.3612 39.7633 47.312 39.0533 47.312 38.3695V36.3708L47.3366 36.3445ZM45.7882 37.6068C45.7882 38.3695 45.3458 38.7903 44.4856 38.7903C43.6254 38.7903 43.65 38.501 43.65 38.1591C43.65 37.8172 43.9695 37.5016 44.7805 37.5016C45.5916 37.5016 45.6899 37.5016 45.7882 37.5016V37.6068Z" fill="#121B60"/>
</svg>
