<svg width="64" height="56" viewBox="0 0 64 56" fill="none" xmlns="http://www.w3.org/2000/svg">
<path d="M13.764 25.7357L16.9754 22.5325L17.6964 23.5634L20.2197 20.1394L23.3328 15.9421L25.299 18.5194L28.4122 13.7331L31.9186 8.35766L35.1628 13.954L37.3912 17.8199L39.4885 17.2676L43.2243 22.0539L44.8956 20.1026L53.4813 28.902C53.7107 27.503 53.8418 26.0302 53.8418 24.5207C53.8418 10.9717 44.0763 0 32.0169 0C19.9575 0 10.192 10.9717 10.192 24.5207C10.192 38.0697 10.3231 27.503 10.5525 28.9389L13.764 25.6989V25.7357Z" fill="#FAFBFF"/>
<path d="M64 38.622L52.3994 34.0934L52.17 33.8356L45.0589 26.5457L43.0599 28.8652L38.0133 22.3853L35.5228 23.0848L31.7215 16.4576L25.5607 25.9198L23.3651 23.0848L17.6631 30.8166L16.4834 29.1966L11.7972 33.8725L11.5678 34.0934L0 38.622H64Z" fill="#FAFBFF"/>
<path d="M3.63748 45.5805L0 55.7791H2.26114L3.04762 53.4596H7.07834L7.93037 55.7791H10.3226L6.48848 45.5805H3.63748ZM3.63748 51.5082C4.32565 49.5201 4.81721 47.9737 5.01383 47.2005C5.24322 47.9737 5.63646 49.1887 6.48848 51.5082H3.63748Z" fill="#FAFBFF"/>
<path d="M13.6984 45.5805H11.5028V55.8159H18.4828L18.7778 53.8277H13.6984V45.5805Z" fill="#FAFBFF"/>
<path d="M26.084 45.5805H23.233L22.807 46.7955L19.5955 55.8159H21.8566L22.6431 53.4964H26.6738L27.5259 55.8159H29.9181L26.084 45.6174V45.5805ZM23.2002 51.5082C23.7901 49.8146 24.2161 48.4155 24.4782 47.5687C24.511 47.4214 24.5438 47.311 24.5765 47.2005C24.6093 47.3478 24.6749 47.4951 24.7076 47.6792C24.937 48.4523 25.363 49.5937 26.0512 51.5082H23.2002Z" fill="#FAFBFF"/>
<path d="M40.0113 45.5805H37.1603L36.0789 48.6364L33.5228 55.7791H35.7839L36.5704 53.4596H40.6011L41.4532 55.7791H43.8454L40.5684 47.0901L40.0113 45.5805ZM37.1275 51.5082C37.6191 50.0723 38.0123 48.8941 38.2417 48.0473C38.34 47.716 38.4383 47.4214 38.4711 47.2005C38.5366 47.3846 38.6022 47.6055 38.6677 47.9001C38.9299 48.6732 39.3231 49.7778 39.9457 51.5082H37.0947H37.1275Z" fill="#FAFBFF"/>
<path d="M48.2033 50.9928C46.958 50.7719 46.7614 50.5878 46.7614 50.2932C46.7614 49.9987 46.8925 49.6673 47.7117 49.6673C48.531 49.6673 48.8915 50.0723 48.9898 50.4037H51.0543C50.956 49.336 50.1367 48.0842 47.7773 48.0842C45.4178 48.0842 44.6969 49.3728 44.6969 50.5141C44.6969 51.6555 45.0574 52.4655 47.5807 52.8705C48.9242 53.0914 49.2192 53.2755 49.2192 53.6805C49.2192 54.0855 48.9898 54.3432 48.0722 54.3432C47.1546 54.3432 46.7286 54.0118 46.5648 53.4596H44.4675C44.6641 55.0796 46.106 55.9632 47.9411 55.9632C49.7762 55.9632 51.2837 54.8218 51.2837 53.4596C51.2837 52.0973 50.9232 51.3978 48.236 50.9559L48.2033 50.9928Z" fill="#FAFBFF"/>
<path d="M54.6933 44.9915H52.596V46.906H54.6933V44.9915Z" fill="#FAFBFF"/>
<path d="M54.6933 48.3051H52.596V55.8159H54.6933V48.3051Z" fill="#FAFBFF"/>
<path d="M63.1142 50.8823C63.1142 49.6305 62.6882 48.0842 59.8044 48.0842C56.9206 48.0842 56.5929 49.5937 56.5274 50.5141H58.6247C58.723 50.0723 58.9196 49.7041 59.8372 49.7041C60.7547 49.7041 61.0497 50.1828 61.0497 50.8087V51.0296H59.6406C57.6744 51.0296 56.1342 51.5818 56.1342 53.5332C56.1342 55.4845 56.8551 56 58.6902 56C60.5254 56 60.722 55.595 61.0824 54.9691C61.0824 55.19 61.0824 55.6318 61.148 55.8159H63.147C63.147 55.6686 63.0814 54.6746 63.0814 53.7173V50.9191L63.1142 50.8823ZM61.0497 52.6496C61.0497 53.7173 60.4598 54.3064 59.3129 54.3064C58.1659 54.3064 58.1987 53.9014 58.1987 53.4227C58.1987 52.9441 58.6247 52.5023 59.7061 52.5023C60.7875 52.5023 60.9186 52.5023 61.0497 52.5023V52.6496Z" fill="#FAFBFF"/>
</svg>
