<svg width="154" height="31" viewBox="0 0 154 31" fill="none" xmlns="http://www.w3.org/2000/svg">
<g clip-path="url(#clip0_171_2)">
<path d="M118.713 -1.02249C114.046 -0.850821 110.671 0.843855 108.845 3.93389C108.597 4.35645 108.162 5.32484 108.03 5.76502C107.747 6.68058 107.615 7.53893 107.615 8.49851C107.607 9.77061 107.81 10.7522 108.29 11.8042C108.434 12.1256 108.873 12.8827 109.013 13.0543C109.053 13.1027 109.209 13.2964 109.356 13.4813C110.435 14.8238 112.496 16.14 114.51 16.7694C120.454 18.6357 121.425 18.9527 121.956 19.2212C122.703 19.5953 123.243 20.1896 123.447 20.8674C123.518 21.1007 123.53 21.2284 123.518 21.5717C123.506 21.9459 123.486 22.0295 123.359 22.3288C123.063 23.0111 122.492 23.4997 121.617 23.8122C121.074 24.0059 120.734 24.0587 120.051 24.0543C118.633 24.0499 117.446 23.5613 116.655 22.6678C116.092 22.0251 115.764 21.1492 115.708 20.1103L115.684 19.7318L115.565 19.7054C115.405 19.6702 107.351 19.6702 107.191 19.7054L107.067 19.7318V20.0487C107.067 20.4757 107.171 21.4529 107.271 21.9899C107.667 24.0851 108.522 25.8458 109.832 27.2852C110.403 27.9102 110.903 28.3504 111.562 28.8038C112.852 29.6886 114.462 30.34 116.152 30.6569C119 31.1984 122.344 31.0267 124.805 30.2212C125.6 29.9571 126.159 29.715 126.862 29.3188C127.869 28.7554 128.596 28.1788 129.319 27.382C130.633 25.9295 131.492 24.0455 131.78 21.9635C131.88 21.2724 131.876 19.9563 131.78 19.3488C131.492 17.5705 130.817 16.1312 129.683 14.8766C128.308 13.3668 126.83 12.6362 122.847 11.4961C119.04 10.4089 118.357 10.1888 117.586 9.79262C116.34 9.15877 115.776 8.26521 115.988 7.26602C116.148 6.53092 116.595 6.05553 117.422 5.74301C118.025 5.51852 118.709 5.43489 119.436 5.50531C120.187 5.57574 120.794 5.77382 121.321 6.12596C122.172 6.69379 122.632 7.49491 122.747 8.59535L122.771 8.85065H126.926H131.077V8.46329C131.077 7.43328 130.793 6.03793 130.37 5.01232C128.964 1.58335 125.752 -0.516287 121.277 -0.938856C120.562 -1.00488 119.332 -1.0489 118.713 -1.02249Z" fill="#121B60"/>
<path d="M56.8115 14.9911V30.1155L64.9931 30.0979C73.9337 30.0803 73.4304 30.0979 74.6368 29.825C76.2708 29.4597 77.645 28.7598 78.7716 27.721C80.6332 25.9955 81.6319 23.328 81.4562 20.5241C81.3163 18.2572 80.5213 16.5845 78.9433 15.2508C78.42 14.8062 77.8168 14.4277 77.0937 14.0843C76.854 13.9743 76.6583 13.8687 76.6543 13.8555C76.6503 13.8422 76.874 13.6662 77.1576 13.4593C78.8874 12.1872 79.7144 10.8623 79.9621 8.97831C80.038 8.38847 80.038 7.25282 79.9621 6.67179C79.6744 4.46211 78.5399 2.50773 76.842 1.29725C75.9591 0.667795 74.8446 0.223217 73.5702 -0.0100746C73.0508 -0.102512 73.0429 -0.102512 64.9332 -0.115717L56.8115 -0.128923V14.9911ZM70.8856 6.98872C71.4449 7.18679 71.8444 7.55654 72.0761 8.08916C72.2519 8.49412 72.3238 8.92549 72.2958 9.40088C72.2319 10.5717 71.6886 11.3068 70.6539 11.6326C70.3383 11.7294 70.3063 11.7294 67.7096 11.747L65.081 11.7602V9.34365C65.081 8.01432 65.093 6.91389 65.109 6.89628C65.1249 6.87867 66.3714 6.87427 67.8774 6.87867C70.542 6.89628 70.6219 6.89628 70.8856 6.98872ZM71.0774 17.8699C72.2199 17.9711 72.955 18.5785 73.2626 19.679C73.3904 20.1324 73.4064 20.4053 73.3345 20.8586C73.1547 22.0075 72.4556 22.8438 71.4049 23.1696C71.0973 23.262 71.0374 23.262 68.0892 23.2796L65.081 23.2928V20.5637V17.8346L67.8495 17.8302C69.3675 17.8302 70.8217 17.8478 71.0774 17.8699Z" fill="#121B60"/>
<path d="M90.0688 -0.0761433C90.0568 -0.045332 89.941 0.302406 89.8091 0.698565C89.6773 1.09472 89.4176 1.88704 89.2299 2.45927C89.0421 3.0315 88.8544 3.59932 88.8104 3.72257C88.6986 4.0571 88.0354 6.0599 87.5001 7.68415C87.2364 8.48087 86.9208 9.43165 86.801 9.79699C86.6771 10.1579 86.3855 11.0427 86.1538 11.7558C85.9181 12.4689 85.5785 13.4989 85.3948 14.0447C85.211 14.5905 84.8794 15.5809 84.6637 16.2456C84.444 16.9102 83.9087 18.5257 83.4772 19.833C83.0458 21.1403 82.4745 22.8614 82.2108 23.6625C81.9472 24.4592 81.5117 25.7798 81.2401 26.5897C80.9724 27.3996 80.6089 28.4912 80.4411 29.0107C80.2693 29.5301 80.1215 29.9834 80.1135 30.0099C80.0975 30.0539 81.0004 30.0671 84.5518 30.0671H89.0062L89.0541 29.8778C89.0781 29.7766 89.1859 29.3364 89.2938 28.9006C89.4017 28.4648 89.5375 27.919 89.5934 27.6901C89.6494 27.4612 89.7213 27.1839 89.7492 27.0739C89.7772 26.9638 89.8571 26.6381 89.929 26.3476C89.9969 26.0571 90.0728 25.7534 90.0928 25.6741L90.1367 25.5333H94.3194H98.5021L98.6978 26.2023C98.8017 26.5721 98.9215 26.9858 98.9615 27.1179C98.9974 27.25 99.1572 27.8046 99.317 28.3504C99.4728 28.8962 99.6486 29.5037 99.7085 29.7017L99.8124 30.0671H104.299C106.768 30.0671 108.785 30.0627 108.785 30.0539C108.785 30.0187 107.874 27.2323 107.407 25.8414C107.351 25.6829 107.067 24.8202 106.772 23.9266C105.226 19.2256 101.818 8.90344 101.494 7.92625C101.291 7.31 101.003 6.43845 100.855 5.98948C100.711 5.5405 100.44 4.71737 100.256 4.16275C100.068 3.60372 99.6766 2.41525 99.381 1.52169L98.8456 -0.106956L94.4672 -0.120161C90.9837 -0.128965 90.0808 -0.120161 90.0688 -0.0761433ZM94.5871 10.6773C94.8228 11.5709 95.0425 12.4336 95.0824 12.5921C95.1224 12.7506 95.398 13.8202 95.7016 14.9691C96.3688 17.5265 96.7203 18.8822 96.7203 18.9086C96.7203 18.9218 95.6138 18.9306 94.2635 18.9306C92.9132 18.9306 91.8066 18.9218 91.8066 18.9086C91.8066 18.891 93.029 13.5209 93.7601 10.3252C93.9119 9.66934 94.0478 9.07511 94.0637 9.00468C94.0917 8.88583 94.0957 8.88143 94.1276 8.96066C94.1476 9.00908 94.3554 9.77939 94.5871 10.6773Z" fill="#121B60"/>
<path d="M133.274 8.37968C133.274 13.0631 133.262 19.8639 133.246 23.4997L133.222 30.1111L137.393 30.1023L141.564 30.0891L141.576 25.4321L141.584 20.7794H147.176H152.769V16.9719V13.1644H147.196H141.623V10.5013V7.83826H147.876H154.124L154.128 3.85467V-0.128916H143.701H133.274V8.37968Z" fill="#121B60"/>
<path d="M2.14092 -0.0277557C2.12894 -0.00134468 2.12494 6.80817 2.12894 15.1011L2.14092 30.1771L15.7156 30.1903L29.2864 30.1991L29.2784 15.0703L29.2664 -0.0629692L15.7116 -0.0717735C4.94136 -0.0805759 2.15291 -0.0717735 2.14092 -0.0277557ZM20.5775 14.991V20.8234H15.3641H10.1507V15.0218C10.1507 11.8306 10.1627 9.20272 10.1787 9.18952C10.1907 9.17191 12.5397 9.15871 15.3921 9.15871H20.5775V14.991Z" fill="#121B60"/>
<path d="M38.0231 9.18959C37.9912 9.2248 37.9872 20.6606 38.0191 20.753C38.0431 20.8146 38.5824 20.8234 43.2525 20.8234H48.4618V14.9911V9.15877H43.2565C40.3921 9.15877 38.0351 9.17198 38.0231 9.18959Z" fill="#121B60"/>
</g>
<defs>
<clipPath id="clip0_171_2">
<rect width="154" height="31" fill="white"/>
</clipPath>
</defs>
</svg>
