<svg width="120" height="41" viewBox="0 0 120 41" fill="none" xmlns="http://www.w3.org/2000/svg">
<g clip-path="url(#clip0_171_10)">
<path d="M41.0842 8.42797L30.7718 15.068L30.6759 14.844C30.6199 14.724 30.4281 14.228 30.2442 13.756C29.8765 12.788 28.8453 10.916 28.2137 10.06C26.1033 7.20397 22.7938 5.10797 19.1005 4.26797C18.2771 4.08397 17.2459 3.90797 16.6863 3.85997C16.1027 3.81197 12.6093 3.77997 7.87684 3.77997H0.034668V20.508V37.236L8.21259 37.196C16.0628 37.164 16.4225 37.156 17.4617 36.996C20.0678 36.58 21.1869 36.22 23.3214 35.116C24.5524 34.476 26.1113 33.292 27.0546 32.292C28.5335 30.716 29.8445 28.54 30.54 26.508C30.7558 25.892 30.9557 25.38 30.9877 25.38C31.0116 25.38 35.6162 28.484 41.2201 32.268C46.8159 36.06 51.4365 39.172 51.4844 39.196C51.5324 39.212 56.105 36.316 61.6369 32.748L71.7014 26.268L71.7254 31.74L71.7414 37.22H83.053H94.3646V31.86V26.5H89.0485H83.7325V15.14V3.77997H77.7369H71.7414L71.7254 9.47597L71.7014 15.172L63.7074 20.268C59.3106 23.076 55.6413 25.412 55.5454 25.46C55.4015 25.54 55.2177 25.452 54.1065 24.78C53.411 24.348 52.8035 23.972 52.7715 23.94C52.7395 23.908 56.3049 21.516 60.7016 18.612C65.0983 15.716 68.7036 13.324 68.7036 13.3C68.6956 13.252 61.8048 8.65997 61.7328 8.65997C61.6849 8.65997 54.4422 13.244 45.8726 18.708L45.4569 18.964L44.1699 18.1L42.8748 17.244L50.9089 12.06C55.3296 9.20397 58.9509 6.85197 58.9509 6.82797C58.9429 6.76397 51.6043 1.82797 51.4844 1.80397C51.4365 1.79597 46.7599 4.77197 41.0842 8.42797ZM16.5504 14.564C18.1652 15.172 19.1645 16.108 19.8519 17.652C20.2277 18.492 20.3636 19.22 20.3636 20.38C20.3556 22.012 20.0278 23.068 19.1804 24.22C18.413 25.26 17.6376 25.812 16.3425 26.22C15.695 26.436 15.5751 26.444 13.5686 26.484L11.4662 26.524V20.38V14.244L13.6885 14.276L15.9029 14.316L16.5504 14.564Z" fill="#121B60"/>
<path d="M97.4023 20.5V37.22L108.738 37.204L120.066 37.18V31.86V26.54L114.773 26.516L109.473 26.5V15.14V3.77997H103.438H97.4023V20.5Z" fill="#121B60"/>
</g>
<defs>
<clipPath id="clip0_171_10">
<rect width="120" height="40" fill="white" transform="translate(0 0.5)"/>
</clipPath>
</defs>
</svg>
