<svg width="114" height="33" viewBox="0 0 114 33" fill="none" xmlns="http://www.w3.org/2000/svg">
<g clip-path="url(#clip0_73_85)">
<path d="M0.495605 16.5451V32.5902H56.9956H113.496V16.5451V0.499996H56.9956H0.495605V16.5451ZM32.2544 11.8802H33.7912V13.9307V15.9812H32.2544H30.7177V18.9237C30.7177 21.5278 30.7382 21.9174 30.9021 22.2352C31.189 22.8094 31.6807 22.8606 33.2789 22.4813L33.5453 22.4198L33.7502 24.3575C33.8731 25.4135 33.9551 26.2952 33.9448 26.3055C33.9346 26.326 33.3916 26.4285 32.7257 26.5413C31.2505 26.7873 29.0581 26.8181 28.0131 26.5925C26.7325 26.326 25.79 25.4648 25.4417 24.2345C25.1855 23.3528 25.0831 21.8764 25.0831 18.8724V15.9812H24.0586H23.0341V13.9307V11.8802H24.0586H25.0728L25.1036 10.5372L25.1343 9.19409L27.9004 7.77925L30.6665 6.35416L30.6972 9.11207L30.7177 11.8802H32.2544ZM42.0894 8.24061V10.1373H39.3233H36.5573V8.24061V6.3439H39.3233H42.0894V8.24061ZM57.2722 11.6854C58.3069 11.8802 59.2392 12.5159 59.8129 13.4079L60.1408 13.9L60.7145 13.3463C61.9233 12.1878 62.8556 11.7367 64.3514 11.5829C67.599 11.2343 69.6172 12.7414 70.0577 15.8274C70.1089 16.2273 70.1602 18.7494 70.1602 21.4355V26.3362H67.3428H64.5255V21.9482C64.5255 19.4056 64.4845 17.4166 64.4231 17.2115C64.3718 17.0065 64.1362 16.6681 63.9108 16.4426C63.5523 16.094 63.4396 16.0427 62.9068 16.0017C61.9336 15.93 61.2984 16.3503 60.9194 17.3038C60.694 17.8574 60.694 18.0215 60.653 22.1532L60.612 26.4387H57.8664H55.1106L55.0798 21.8559L55.0491 17.2628L54.7622 16.7707C54.6086 16.5041 54.3729 16.217 54.2398 16.1248C53.6046 15.7147 52.5801 15.8787 51.9449 16.4836C51.279 17.1295 51.2688 17.1808 51.238 22.0609L51.1971 26.4387L48.4105 26.4182L45.6239 26.3875L45.5932 19.1287L45.5727 11.8802H48.1851H50.7975V12.8542V13.818L51.2995 13.3156C51.9347 12.6799 52.8977 12.0443 53.5841 11.8187C54.5573 11.5009 56.0428 11.4394 57.2722 11.6854ZM16.3033 11.9212C17.5327 12.2391 18.424 12.7209 19.2948 13.5309C20.77 14.915 21.4257 16.5964 21.5691 19.3338L21.6306 20.5948H16.0267H10.433L10.4945 20.8717C10.7916 22.2455 11.4063 23.0247 12.4205 23.3117C13.4757 23.6193 14.3875 23.3835 15.2379 22.5941L15.7501 22.1122L18.424 22.3685C19.889 22.5018 21.1184 22.6453 21.1491 22.6761C21.1798 22.7068 21.0364 22.9939 20.8213 23.3117C19.6226 25.1367 18.0552 26.1517 15.8628 26.5515C14.6949 26.7668 11.4268 26.7361 10.3306 26.5105C7.92308 26.0081 6.01755 24.3165 5.16723 21.9379C4.85988 21.087 4.84964 21.0049 4.84964 19.262C4.84964 17.5601 4.85988 17.4268 5.14674 16.5554C5.74094 14.7407 7.03178 13.2643 8.72217 12.4544C9.53151 12.0648 10.1667 11.87 11.4575 11.6342C11.601 11.6034 12.523 11.6034 13.5065 11.6239C15.0227 11.6547 15.453 11.6957 16.3033 11.9212ZM83.8472 11.8085C86.3879 12.3724 88.15 13.859 88.9798 16.1555C89.2872 17.0167 89.5228 18.5238 89.5228 19.6926V20.5948H83.9496H78.3765L78.4994 21.128C78.7863 22.3173 79.401 23.0349 80.3947 23.3322C81.3987 23.6193 82.4437 23.3425 83.2837 22.5531L83.7345 22.1122L86.0396 22.3275C87.3099 22.4505 88.5393 22.5736 88.7749 22.6043L89.2155 22.6556L88.7852 23.2912C87.8324 24.7061 86.5723 25.7313 85.2507 26.1824C84.0521 26.5823 83.1403 26.6951 81.0709 26.6951C78.7453 26.6951 77.813 26.531 76.5222 25.9056C74.9752 25.1674 73.6639 23.5988 73.0594 21.7739C72.8136 21.0254 72.7828 20.8101 72.7828 19.262C72.7726 17.7652 72.8033 17.4781 73.0082 16.8014C73.418 15.5199 73.9097 14.6792 74.8215 13.7769C75.9587 12.6389 77.0959 12.0648 78.899 11.7162C79.862 11.5317 82.833 11.5932 83.8472 11.8085ZM42.0894 19.1595V26.4387H39.3233H36.5573V19.1595V11.8802H39.3233H42.0894V19.1595ZM97.6367 13.6539C98.1899 14.6279 98.7021 15.5199 98.7841 15.6224C98.907 15.7967 99.03 15.6531 100.229 13.8487L101.54 11.8802H104.603C106.294 11.8802 107.656 11.9212 107.636 11.9725C107.625 12.0135 106.529 13.5616 105.218 15.3968C103.896 17.232 102.81 18.7596 102.81 18.7904C102.8 18.8109 103.958 20.5026 105.382 22.5326C106.796 24.5728 107.963 26.2747 107.963 26.3362C107.963 26.3977 106.847 26.4387 104.747 26.4387H101.53L100.208 24.1319C99.491 22.8709 98.8763 21.8354 98.8456 21.8354C98.8148 21.8354 98.0977 22.8606 97.2576 24.1114L95.7107 26.3875L92.7192 26.4182C91.0698 26.4285 89.7277 26.408 89.7277 26.3772C89.7277 26.3362 90.8854 24.6343 92.2991 22.5941C93.7232 20.5436 94.8808 18.8417 94.8808 18.8007C94.8706 18.7596 93.7949 17.232 92.4835 15.3968C91.162 13.5616 90.076 12.0135 90.0555 11.9725C90.035 11.9212 91.5103 11.8802 93.3339 11.8802H96.6429L97.6367 13.6539Z" fill="#121B60"/>
<path d="M12.7378 14.956C12.1538 15.0483 11.744 15.2943 11.283 15.8172C10.863 16.2888 10.5352 17.0988 10.5352 17.6524V17.96L11.324 17.8882C11.7543 17.8574 12.9427 17.8267 13.9774 17.8267H15.8522L15.7907 17.4371C15.6985 16.8527 15.3605 16.012 15.0838 15.6839C14.6126 15.12 13.6393 14.8125 12.7378 14.956Z" fill="#121B60"/>
<path d="M80.7021 14.9662C80.446 15.0072 80.0976 15.1098 79.9337 15.1918C79.2166 15.5711 78.6224 16.5041 78.4892 17.4781L78.4277 17.96L79.2883 17.8984C79.7596 17.8574 80.9684 17.8267 81.9827 17.8267H83.8062L83.7448 17.4781C83.5194 16.2786 83.0891 15.5404 82.4334 15.202C82.0134 14.9867 81.2655 14.8842 80.7021 14.9662Z" fill="#121B60"/>
</g>
<defs>
<clipPath id="clip0_73_85">
<rect width="113" height="32" fill="white" transform="translate(0.495605 0.5)"/>
</clipPath>
</defs>
</svg>
