<svg width="114" height="33" viewBox="0 0 114 33" fill="none" xmlns="http://www.w3.org/2000/svg">
<g clip-path="url(#clip0_73_85)">
<path d="M0.499512 16.5451V32.5902H56.9995H113.5V16.5451V0.499981H56.9995H0.499512V16.5451ZM32.2584 11.8802H33.7951V13.9307V15.9812H32.2584H30.7216V18.9237C30.7216 21.5278 30.7421 21.9174 30.906 22.2352C31.1929 22.8094 31.6846 22.8606 33.2828 22.4813L33.5492 22.4198L33.7541 24.3575C33.877 25.4135 33.959 26.2952 33.9487 26.3054C33.9385 26.326 33.3955 26.4285 32.7296 26.5413C31.2544 26.7873 29.062 26.8181 28.017 26.5925C26.7364 26.326 25.7939 25.4647 25.4456 24.2344C25.1894 23.3527 25.087 21.8764 25.087 18.8724V15.9812H24.0625H23.038V13.9307V11.8802H24.0625H25.0768L25.1075 10.5371L25.1382 9.19407L27.9043 7.77923L30.6704 6.35414L30.7011 9.11205L30.7216 11.8802H32.2584ZM42.0933 8.24059V10.1373H39.3273H36.5612V8.24059V6.34389H39.3273H42.0933V8.24059ZM57.2761 11.6854C58.3108 11.8802 59.2431 12.5159 59.8168 13.4078L60.1447 13.9L60.7184 13.3463C61.9273 12.1878 62.8595 11.7367 64.3553 11.5829C67.6029 11.2343 69.6211 12.7414 70.0616 15.8274C70.1128 16.2273 70.1641 18.7494 70.1641 21.4355V26.3362H67.3467H64.5294V21.9481C64.5294 19.4055 64.4884 17.4166 64.427 17.2115C64.3758 17.0065 64.1401 16.6681 63.9147 16.4426C63.5562 16.094 63.4435 16.0427 62.9108 16.0017C61.9375 15.9299 61.3023 16.3503 60.9233 17.3038C60.6979 17.8574 60.6979 18.0215 60.6569 22.1532L60.6159 26.4387H57.8703H55.1145L55.0837 21.8559L55.053 17.2628L54.7661 16.7706C54.6125 16.5041 54.3768 16.217 54.2437 16.1247C53.6085 15.7146 52.584 15.8787 51.9488 16.4836C51.2829 17.1295 51.2727 17.1807 51.2419 22.0609L51.201 26.4387L48.4144 26.4182L45.6278 26.3875L45.5971 19.1287L45.5766 11.8802H48.189H50.8014V12.8542V13.8179L51.3034 13.3156C51.9386 12.6799 52.9016 12.0443 53.588 11.8187C54.5613 11.5009 56.0467 11.4394 57.2761 11.6854ZM16.3072 11.9212C17.5366 12.2391 18.4279 12.7209 19.2987 13.5309C20.7739 14.915 21.4296 16.5964 21.573 19.3338L21.6345 20.5948H16.0306H10.437L10.4984 20.8716C10.7955 22.2455 11.4102 23.0247 12.4244 23.3117C13.4797 23.6193 14.3914 23.3835 15.2418 22.5941L15.754 22.1122L18.4279 22.3685C19.8929 22.5018 21.1223 22.6453 21.153 22.6761C21.1837 22.7068 21.0403 22.9939 20.8252 23.3117C19.6265 25.1367 18.0591 26.1517 15.8667 26.5515C14.6988 26.7668 11.4307 26.7361 10.3345 26.5105C7.92698 26.0081 6.02145 24.3165 5.17113 21.9379C4.86379 21.0869 4.85355 21.0049 4.85355 19.262C4.85355 17.5601 4.86379 17.4268 5.15064 16.5553C5.74484 14.7407 7.03569 13.2643 8.72608 12.4544C9.53541 12.0648 10.1706 11.87 11.4614 11.6342C11.6049 11.6034 12.5269 11.6034 13.5104 11.6239C15.0266 11.6547 15.4569 11.6957 16.3072 11.9212ZM83.8511 11.8085C86.3918 12.3723 88.1539 13.8589 88.9837 16.1555C89.2911 17.0167 89.5267 18.5238 89.5267 19.6926V20.5948H83.9535H78.3804L78.5033 21.1279C78.7902 22.3172 79.4049 23.0349 80.3986 23.3322C81.4026 23.6193 82.4476 23.3425 83.2876 22.553L83.7384 22.1122L86.0435 22.3275C87.3138 22.4505 88.5432 22.5735 88.7788 22.6043L89.2194 22.6556L88.7891 23.2912C87.8363 24.7061 86.5762 25.7313 85.2546 26.1824C84.056 26.5823 83.1442 26.695 81.0748 26.695C78.7492 26.695 77.8169 26.531 76.5261 25.9056C74.9791 25.1674 73.6678 23.5988 73.0633 21.7739C72.8175 21.0254 72.7867 20.8101 72.7867 19.262C72.7765 17.7651 72.8072 17.4781 73.0121 16.8014C73.4219 15.5198 73.9137 14.6791 74.8254 13.7769C75.9626 12.6389 77.0998 12.0648 78.9029 11.7162C79.8659 11.5316 82.8369 11.5932 83.8511 11.8085ZM42.0933 19.1595V26.4387H39.3273H36.5612V19.1595V11.8802H39.3273H42.0933V19.1595ZM97.6406 13.6539C98.1938 14.6279 98.706 15.5198 98.788 15.6224C98.9109 15.7967 99.0339 15.6531 100.233 13.8487L101.544 11.8802H104.607C106.297 11.8802 107.66 11.9212 107.639 11.9725C107.629 12.0135 106.533 13.5616 105.222 15.3968C103.9 17.232 102.814 18.7596 102.814 18.7904C102.804 18.8109 103.962 20.5025 105.386 22.5325C106.799 24.5728 107.967 26.2747 107.967 26.3362C107.967 26.3977 106.851 26.4387 104.75 26.4387H101.534L100.212 24.1319C99.4949 22.8709 98.8802 21.8354 98.8495 21.8354C98.8187 21.8354 98.1016 22.8606 97.2615 24.1114L95.7146 26.3875L92.7231 26.4182C91.0737 26.4285 89.7316 26.408 89.7316 26.3772C89.7316 26.3362 90.8893 24.6343 92.303 22.5941C93.7271 20.5436 94.8847 18.8416 94.8847 18.8006C94.8745 18.7596 93.7988 17.232 92.4874 15.3968C91.1659 13.5616 90.0799 12.0135 90.0594 11.9725C90.0389 11.9212 91.5142 11.8802 93.3378 11.8802H96.6468L97.6406 13.6539Z" fill="#121B60"/>
<path d="M12.7417 14.956C12.1577 15.0483 11.7479 15.2943 11.2869 15.8172C10.8669 16.2888 10.5391 17.0988 10.5391 17.6524V17.96L11.3279 17.8882C11.7582 17.8574 12.9466 17.8267 13.9813 17.8267H15.8561L15.7946 17.4371C15.7024 16.8527 15.3644 16.012 15.0877 15.6839C14.6165 15.12 13.6432 14.8125 12.7417 14.956Z" fill="#121B60"/>
<path d="M80.706 14.9662C80.4499 15.0072 80.1015 15.1098 79.9376 15.1918C79.2205 15.5711 78.6263 16.5041 78.4931 17.4781L78.4316 17.96L79.2922 17.8984C79.7635 17.8574 80.9723 17.8267 81.9866 17.8267H83.8102L83.7487 17.4781C83.5233 16.2786 83.093 15.5404 82.4374 15.202C82.0173 14.9867 81.2694 14.8842 80.706 14.9662Z" fill="#121B60"/>
</g>
<defs>
<clipPath id="clip0_73_85">
<rect width="113" height="32" fill="white" transform="translate(0.499512 0.5)"/>
</clipPath>
</defs>
</svg>
