<svg width="307" height="51" viewBox="0 0 307 51" fill="none" xmlns="http://www.w3.org/2000/svg">
<path d="M60.087 0.863007C55.5357 1.82304 51.4467 3.88532 47.7488 7.0143C46.5044 8.08099 45.5088 8.72101 45.5088 8.47212C45.5088 8.22322 45.8288 6.65873 46.2199 4.98757C46.611 3.31641 46.931 1.82304 46.931 1.68081C46.931 1.53858 39.6775 1.43191 30.8595 1.50303C16.7079 1.6097 14.6101 1.68081 13.4723 2.21416C11.8367 2.9964 10.0233 4.84534 9.34772 6.37428C8.88549 7.47653 -0.00366211 48.2244 -0.00366211 49.3266C-0.00366211 49.6822 1.45416 49.7889 7.28544 49.7889C14.539 49.7889 14.5745 49.7889 14.7523 48.9711C15.0368 47.8333 18.4858 31.5839 18.4858 31.4417C18.4858 31.3706 22.6103 31.2994 27.6594 31.2994H36.7974L37.4019 34.144C39.4642 44.1709 47.1799 50.5 57.2425 50.5C65.8471 50.4644 74.523 45.4865 79.8209 37.5574C81.5632 34.9262 83.1988 31.7261 83.1988 30.9083C83.1988 30.7305 82.5232 30.5883 81.7054 30.5883H80.1765L78.8609 33.1839C74.4874 41.682 65.9183 47.2999 57.3491 47.2999C49.2422 47.2999 43.0198 42.6776 40.7442 34.8907C40.0331 32.4017 39.9975 26.8904 40.7086 23.8326C41.9887 18.4635 46.291 11.8855 50.8423 8.50768C58.4514 2.81862 68.0517 1.96526 74.4874 6.40984C76.4786 7.76099 78.7897 10.4277 79.8564 12.5256C80.7809 14.339 81.7765 17.7879 81.7765 19.1035V19.9213H64.3893C45.011 19.9213 46.931 19.6724 46.3977 22.3036L46.1488 23.477H65.6338H85.0833L84.8699 19.9925C84.3721 11.2455 79.3587 4.312 71.5362 1.57414C68.3361 0.471886 63.3937 0.187431 60.087 0.863007ZM39.9975 16.899L38.5752 19.8858L29.7572 19.9213H20.9036L21.1525 18.748C21.7214 15.9034 22.1125 14.9434 22.8592 14.4101C23.4992 13.9834 25.0993 13.8767 32.5306 13.8767H41.4553L39.9975 16.899Z" fill="#121B60"/>
<path d="M99.5557 25.6104V40.1886H102.045H104.534V33.7884V27.3882H111.112H117.69V25.2548V23.1214H111.112H104.534V19.388V15.6545H112H119.467V13.3434V11.0322H109.512H99.5557V25.6104Z" fill="#121B60"/>
<path d="M144.357 13.3434V15.6545H146.846H149.335V13.3434V11.0322H146.846H144.357V13.3434Z" fill="#121B60"/>
<path d="M154.314 13.3434V15.6545H156.625H158.936V13.3434V11.0322H156.625H154.314V13.3434Z" fill="#121B60"/>
<path d="M175.292 25.6104V40.1886H185.781H196.27V38.0552V35.9218H188.27H180.269V31.655V27.3882H187.559H194.848V25.2548V23.1214H187.559H180.269V19.388V15.6545L188.199 15.5834L196.092 15.4768V13.3434V11.21L185.71 11.1033L175.292 11.0322V25.6104Z" fill="#121B60"/>
<path d="M199.469 25.6104V40.1886H201.781H204.092V25.6104V11.0322H201.781H199.469V25.6104Z" fill="#121B60"/>
<path d="M279.829 13.3434V15.6545H282.14H284.487L284.38 13.4145L284.274 11.21L282.069 11.1033L279.829 10.9966V13.3434Z" fill="#121B60"/>
<path d="M253.516 16.0101V19.2102H251.738H249.96V20.988V22.7659H251.738H253.516V29.6994C253.516 36.8107 253.765 38.3396 255.009 39.4063C255.791 40.0464 259.418 40.6153 261.018 40.3664L262.405 40.1175V38.3752V36.6329H260.627C259.276 36.6329 258.778 36.4907 258.494 35.9574C258.28 35.5307 258.138 32.6506 258.138 29.0238V22.8014L260.2 22.6947L262.227 22.5881L262.334 20.8814L262.44 19.2102H260.307H258.138V16.0101V12.81H255.827H253.516V16.0101Z" fill="#121B60"/>
<path d="M214.404 18.9969C209.675 20.2413 206.83 24.1881 206.83 29.4861C206.83 32.7928 207.292 34.5706 208.75 36.7396C212.306 42.1442 221.871 42.0375 225.106 36.6329C225.64 35.744 226.173 34.6773 226.315 34.2151C226.528 33.4684 226.457 33.4328 224.395 33.4328C222.368 33.4328 222.226 33.504 221.693 34.4995C220.022 37.7352 214.51 37.8419 212.448 34.7129C212.128 34.2151 211.772 33.1839 211.666 32.3661L211.452 30.9439H219.168H226.848V29.166C226.848 22.4103 220.626 17.3257 214.404 18.9969ZM219.666 23.1214C220.733 23.797 222.191 26.1793 222.226 27.2815C222.226 27.6371 220.91 27.7438 216.857 27.7438H211.488L211.701 26.606C212.412 23.0503 216.573 21.2369 219.666 23.1214Z" fill="#121B60"/>
<path d="M235.805 19.1746C231.076 20.8102 228.409 26.1437 229.369 32.0817C229.974 35.744 231.93 38.553 234.845 39.8686C236.516 40.6508 240.748 40.7575 242.881 40.1175C245.512 39.3352 247.966 36.5263 248.712 33.3262L248.961 32.3661H246.65C244.339 32.3661 244.339 32.3661 243.948 33.5395C243.272 35.5307 241.743 36.7396 239.574 36.9174C235.876 37.2018 233.778 34.5706 233.814 29.6994C233.85 25.0059 235.77 22.4103 239.219 22.4103C241.636 22.4103 243.165 23.2281 243.805 24.8992L244.374 26.3215H246.65C249.281 26.3215 249.388 26.1437 248.001 23.2281C246.223 19.3169 240.676 17.5035 235.805 19.1746Z" fill="#121B60"/>
<path d="M275.031 18.8191C273.289 19.2458 271.76 20.1702 270.8 21.4147L269.876 22.5881V20.8814V19.2102H267.565H265.253V29.6994V40.1886H267.529H269.805L269.947 34.0373C270.125 27.3171 270.374 26.2148 272.329 24.4015C273.183 23.5837 273.823 23.3348 275.387 23.1925L277.343 23.0503V20.988C277.343 19.4235 277.2 18.8902 276.774 18.7124C276.454 18.6057 276.205 18.4991 276.169 18.5346C276.134 18.5702 275.636 18.6768 275.031 18.8191Z" fill="#121B60"/>
<path d="M294.584 18.8191C291.348 19.708 289.179 21.5214 288.006 24.2948C286.832 26.8904 286.619 31.2283 287.508 34.0373C288.326 36.5974 290.957 39.4419 293.197 40.1175C295.01 40.6508 298.744 40.6864 300.557 40.153C302.406 39.6552 304.646 37.5574 305.642 35.3884C306.957 32.5795 306.886 32.3661 304.255 32.3661H302.015L301.517 33.8595C300.842 35.8151 299.135 36.9885 297.001 36.9885C293.481 36.9885 291.846 34.9262 291.632 30.2683C291.526 27.6015 291.632 26.9971 292.344 25.6104C293.552 23.2281 295.152 22.3036 297.677 22.4814C299.953 22.6592 300.948 23.2992 301.766 25.1481C302.228 26.2859 302.299 26.3215 304.362 26.3215C306.282 26.3215 306.495 26.2504 306.495 25.6104C306.495 24.5437 305.535 22.3747 304.611 21.4147C302.619 19.2813 297.606 17.9657 294.584 18.8191Z" fill="#121B60"/>
<path d="M121.245 27.2104C121.245 35.9218 121.422 36.9174 123.271 38.8374C125.903 41.5753 132.089 41.2197 134.365 38.1619L135.076 37.1663L135.112 38.6596V40.1886H137.423H139.734V29.6994V19.2102H137.245H134.756V26.3571C134.756 34.464 134.472 35.6373 132.409 36.4907C131.023 37.0596 128.605 37.1307 127.609 36.6329C126.08 35.7796 125.867 34.6062 125.867 26.6771V19.2102H123.556H121.245V27.2104Z" fill="#121B60"/>
<path d="M144.355 31.5839C144.355 40.7219 144.248 44.0642 143.928 44.3843C143.68 44.6332 142.968 44.8109 142.328 44.8109C141.155 44.8109 141.155 44.8109 141.155 46.5532C141.155 47.7977 141.297 48.3666 141.724 48.5088C143.857 49.3266 147.306 47.9044 148.409 45.6998C149.12 44.3487 149.155 43.5665 149.262 31.7261L149.404 19.2102H146.88H144.355V31.5839Z" fill="#121B60"/>
<path d="M154.314 29.6994V40.1886H156.625H158.936V29.6994V19.2102H156.625H154.314V29.6994Z" fill="#121B60"/>
<path d="M279.829 29.6994V40.1886H282.14H284.451V29.6994V19.2102H282.14H279.829V29.6994Z" fill="#121B60"/>
</svg>
