<svg width="307" height="51" viewBox="0 0 307 51" fill="none" xmlns="http://www.w3.org/2000/svg">
<path d="M60.0906 0.863007C55.5394 1.82304 51.4504 3.88532 47.7525 7.0143C46.508 8.08099 45.5124 8.72101 45.5124 8.47212C45.5124 8.22322 45.8324 6.65873 46.2236 4.98757C46.6147 3.31641 46.9347 1.82304 46.9347 1.68081C46.9347 1.53858 39.6812 1.43191 30.8631 1.50303C16.7116 1.6097 14.6138 1.68081 13.4759 2.21416C11.8403 2.9964 10.027 4.84534 9.35138 6.37428C8.88915 7.47653 0 48.2244 0 49.3266C0 49.6822 1.45782 49.7889 7.2891 49.7889C14.5426 49.7889 14.5782 49.7889 14.756 48.9711C15.0404 47.8333 18.4894 31.5839 18.4894 31.4417C18.4894 31.3706 22.614 31.2994 27.663 31.2994H36.8011L37.4055 34.144C39.4678 44.1709 47.1836 50.5 57.2461 50.5C65.8508 50.4644 74.5266 45.4865 79.8245 37.5574C81.5668 34.9262 83.2024 31.7261 83.2024 30.9083C83.2024 30.7305 82.5268 30.5883 81.709 30.5883H80.1801L78.8645 33.1839C74.4911 41.682 65.9219 47.2999 57.3528 47.2999C49.2459 47.2999 43.0235 42.6776 40.7479 34.8907C40.0367 32.4017 40.0012 26.8904 40.7123 23.8326C41.9923 18.4635 46.2947 11.8855 50.8459 8.50768C58.455 2.81862 68.0553 1.96526 74.4911 6.40984C76.4822 7.76099 78.7934 10.4277 79.8601 12.5256C80.7846 14.339 81.7802 17.7879 81.7802 19.1035V19.9213H64.393C45.0146 19.9213 46.9347 19.6724 46.4014 22.3036L46.1525 23.477H65.6375H85.0869L84.8736 19.9925C84.3758 11.2455 79.3623 4.312 71.5399 1.57414C68.3398 0.471886 63.3974 0.187431 60.0906 0.863007ZM40.0012 16.899L38.5789 19.8858L29.7609 19.9213H20.9073L21.1562 18.748C21.7251 15.9034 22.1162 14.9434 22.8629 14.4101C23.5029 13.9834 25.103 13.8767 32.5343 13.8767H41.459L40.0012 16.899Z" fill="#121B60"/>
<path d="M99.5596 25.6104V40.1886H102.049H104.537V33.7884V27.3882H111.115H117.693V25.2548V23.1214H111.115H104.537V19.388V15.6546H112.004H119.471V13.3434V11.0322H109.515H99.5596V25.6104Z" fill="#121B60"/>
<path d="M144.361 13.3434V15.6545H146.85H149.339V13.3434V11.0322H146.85H144.361V13.3434Z" fill="#121B60"/>
<path d="M154.317 13.3434V15.6545H156.629H158.94V13.3434V11.0322H156.629H154.317V13.3434Z" fill="#121B60"/>
<path d="M175.295 25.6104V40.1886H185.785H196.274V38.0552V35.9218H188.274H180.273V31.655V27.3882H187.562H194.852V25.2548V23.1214H187.562H180.273V19.388V15.6546L188.202 15.5834L196.096 15.4768V13.3434V11.21L185.713 11.1033L175.295 11.0322V25.6104Z" fill="#121B60"/>
<path d="M199.473 25.6104V40.1886H201.784H204.096V25.6104V11.0322H201.784H199.473V25.6104Z" fill="#121B60"/>
<path d="M279.833 13.3434V15.6545H282.144H284.491L284.384 13.4145L284.278 11.21L282.073 11.1033L279.833 10.9966V13.3434Z" fill="#121B60"/>
<path d="M253.52 16.0101V19.2102H251.742H249.964V20.988V22.7659H251.742H253.52V29.6994C253.52 36.8107 253.768 38.3397 255.013 39.4064C255.795 40.0464 259.422 40.6153 261.022 40.3664L262.409 40.1175V38.3752V36.6329H260.631C259.28 36.6329 258.782 36.4907 258.497 35.9574C258.284 35.5307 258.142 32.6506 258.142 29.0238V22.8014L260.204 22.6948L262.231 22.5881L262.338 20.8814L262.444 19.2102H260.311H258.142V16.0101V12.81H255.831H253.52V16.0101Z" fill="#121B60"/>
<path d="M214.407 18.9969C209.678 20.2413 206.833 24.1881 206.833 29.4861C206.833 32.7928 207.296 34.5706 208.754 36.7396C212.309 42.1442 221.874 42.0375 225.11 36.6329C225.643 35.744 226.176 34.6773 226.319 34.2151C226.532 33.4684 226.461 33.4328 224.398 33.4328C222.372 33.4328 222.229 33.504 221.696 34.4995C220.025 37.7352 214.514 37.8419 212.451 34.7129C212.131 34.2151 211.776 33.1839 211.669 32.3661L211.456 30.9439H219.172H226.852V29.166C226.852 22.4103 220.629 17.3257 214.407 18.9969ZM219.669 23.1214C220.736 23.797 222.194 26.1793 222.229 27.2815C222.229 27.6371 220.914 27.7438 216.86 27.7438H211.491L211.705 26.606C212.416 23.0503 216.576 21.2369 219.669 23.1214Z" fill="#121B60"/>
<path d="M235.809 19.1746C231.08 20.8102 228.413 26.1437 229.373 32.0817C229.978 35.744 231.933 38.553 234.849 39.8686C236.52 40.6508 240.751 40.7575 242.885 40.1175C245.516 39.3352 247.969 36.5262 248.716 33.3261L248.965 32.3661H246.654C244.342 32.3661 244.342 32.3661 243.951 33.5395C243.276 35.5307 241.747 36.7396 239.578 36.9174C235.88 37.2018 233.782 34.5706 233.818 29.6994C233.853 25.0059 235.773 22.4103 239.222 22.4103C241.64 22.4103 243.169 23.2281 243.809 24.8992L244.378 26.3215H246.654C249.285 26.3215 249.391 26.1437 248.005 23.2281C246.227 19.3168 240.68 17.5035 235.809 19.1746Z" fill="#121B60"/>
<path d="M275.035 18.8191C273.293 19.2458 271.764 20.1702 270.804 21.4147L269.88 22.5881V20.8814V19.2102H267.569H265.257V29.6994V40.1886H267.533H269.809L269.951 34.0373C270.129 27.3171 270.377 26.2149 272.333 24.4015C273.186 23.5837 273.826 23.3348 275.391 23.1925L277.347 23.0503V20.988C277.347 19.4236 277.204 18.8902 276.778 18.7124C276.458 18.6057 276.209 18.4991 276.173 18.5346C276.138 18.5702 275.64 18.6769 275.035 18.8191Z" fill="#121B60"/>
<path d="M294.587 18.8191C291.351 19.708 289.182 21.5214 288.009 24.2948C286.836 26.8904 286.622 31.2283 287.511 34.0373C288.329 36.5974 290.96 39.4419 293.2 40.1175C295.014 40.6508 298.747 40.6864 300.56 40.153C302.409 39.6552 304.649 37.5574 305.645 35.3884C306.961 32.5795 306.89 32.3661 304.258 32.3661H302.018L301.521 33.8595C300.845 35.8151 299.138 36.9885 297.005 36.9885C293.485 36.9885 291.849 34.9262 291.636 30.2683C291.529 27.6016 291.636 26.9971 292.347 25.6104C293.556 23.2281 295.156 22.3036 297.68 22.4814C299.956 22.6592 300.952 23.2992 301.769 25.1481C302.232 26.286 302.303 26.3215 304.365 26.3215C306.285 26.3215 306.498 26.2504 306.498 25.6104C306.498 24.5437 305.538 22.3747 304.614 21.4147C302.623 19.2813 297.609 17.9657 294.587 18.8191Z" fill="#121B60"/>
<path d="M121.248 27.2104C121.248 35.9218 121.426 36.9174 123.275 38.8374C125.906 41.5753 132.093 41.2197 134.368 38.1618L135.08 37.1663L135.115 38.6596V40.1886H137.426H139.737V29.6994V19.2102H137.249H134.76V26.357C134.76 34.464 134.475 35.6373 132.413 36.4907C131.026 37.0596 128.608 37.1307 127.613 36.6329C126.084 35.7795 125.87 34.6062 125.87 26.6771V19.2102H123.559H121.248V27.2104Z" fill="#121B60"/>
<path d="M144.359 31.5839C144.359 40.7219 144.252 44.0642 143.932 44.3842C143.683 44.6331 142.972 44.8109 142.332 44.8109C141.159 44.8109 141.159 44.8109 141.159 46.5532C141.159 47.7977 141.301 48.3666 141.728 48.5088C143.861 49.3266 147.31 47.9043 148.412 45.6998C149.123 44.3487 149.159 43.5664 149.266 31.7261L149.408 19.2102H146.883H144.359V31.5839Z" fill="#121B60"/>
<path d="M154.317 29.6994V40.1886H156.629H158.94V29.6994V19.2102H156.629H154.317V29.6994Z" fill="#121B60"/>
<path d="M279.833 29.6994V40.1886H282.144H284.455V29.6994V19.2102H282.144H279.833V29.6994Z" fill="#121B60"/>
</svg>
