<svg width="182" height="29" viewBox="0 0 182 29" fill="none" xmlns="http://www.w3.org/2000/svg">
<g clip-path="url(#clip0_73_23)">
<path d="M-0.00366211 14.5549V28.6098H3.7263H7.41237L7.54402 23.2514L7.67566 17.849L13.0731 17.7173L18.4267 17.5855V23.1196V28.6098H22.3761H26.3255V14.5549V0.500011H22.3761H18.4267V5.99021V11.4804H12.9415H7.45625V5.99021V0.500011H3.7263H-0.00366211V14.5549Z" fill="#121B60"/>
<path d="M30.7139 14.5549V28.6098H41.6843H52.6548V25.5353V22.4608H45.3704H38.1299L38.2615 20.133L38.3932 17.849L43.7907 17.7173L49.1442 17.5855V14.5549V11.4804H43.659H38.1738V9.28433V7.08825H45.4143H52.6548V3.79413V0.500011H41.6843H30.7139V14.5549Z" fill="#121B60"/>
<path d="M57.4814 14.5549V28.6098H60.7726H64.0637V19.6498C64.0637 14.6867 64.2393 10.5581 64.4148 10.4263C64.6342 10.2945 65.9068 14.2914 67.2232 19.2985L69.6367 28.3902L72.9279 28.522L76.1751 28.6537L78.5009 19.9573C79.8173 15.1698 81.046 11.0851 81.2215 10.8216C81.4409 10.602 81.6165 14.3353 81.6165 19.5181V28.6098H85.3464H89.0764V14.5549V0.500017H84.03C79.2907 0.500017 78.9836 0.54394 78.4131 1.46629C78.062 2.03727 76.8333 5.90237 75.6924 10.0749C74.5515 14.2475 73.4544 17.5416 73.2789 17.322C73.1034 17.1463 72.138 13.5008 71.0848 9.28433C69.9878 4.76041 68.9346 1.37845 68.5397 1.02708C68.057 0.675705 66.1701 0.500017 62.6595 0.500017H57.4814V14.5549Z" fill="#121B60"/>
<path d="M93.9038 14.511V28.6098H97.546H101.144V24.3494V20.0451L106.103 19.7377C110.14 19.5181 111.5 19.2545 113.124 18.42C115.933 16.9706 117.688 14.3792 117.951 11.3047C118.214 8.31805 117.468 6.12197 115.494 3.9259C112.729 0.895308 112.246 0.763544 102.592 0.587858L93.9038 0.41217V14.511ZM110.14 7.96668C111.325 9.15256 111.281 11.5243 110.096 12.6224C109.35 13.3251 108.473 13.4569 105.138 13.4569H101.144L101.013 10.2506L100.881 7.08825H105.094C108.692 7.08825 109.394 7.22001 110.14 7.96668Z" fill="#121B60"/>
<path d="M121.11 14.5549V28.6098H132.081H143.051V25.5353V22.4608H135.547H128.088L128.219 20.133L128.351 17.849L133.748 17.7173L139.102 17.5855V14.5549V11.4804H133.617H128.131V9.28433V7.08825L135.504 7.0004L142.832 6.86864L142.964 3.66236L143.095 0.500011H132.081H121.11V14.5549Z" fill="#121B60"/>
<path d="M147.439 14.5549V28.6098H157.883H168.283L168.239 25.6671L168.152 22.6804L161.526 22.5486L154.899 22.4169V11.4804V0.500011H151.169H147.439V14.5549Z" fill="#121B60"/>
</g>
<defs>
<clipPath id="clip0_73_23">
<rect width="182" height="28" fill="white" transform="translate(-0.00366211 0.5)"/>
</clipPath>
</defs>
</svg>
