<svg width="182" height="29" viewBox="0 0 182 29" fill="none" xmlns="http://www.w3.org/2000/svg">
<g clip-path="url(#clip0_73_23)">
<path d="M0 14.5549V28.6098H3.72996H7.41603L7.54768 23.2514L7.67932 17.849L13.0768 17.7173L18.4304 17.5855V23.1196V28.6098H22.3797H26.3291V14.5549V0.499996H22.3797H18.4304V5.99019V11.4804H12.9451H7.45992V5.99019V0.499996H3.72996H0V14.5549Z" fill="#121B60"/>
<path d="M30.7173 14.5549V28.6098H41.6877H52.6582V25.5353V22.4608H45.3738H38.1333L38.265 20.1329L38.3966 17.849L43.7941 17.7173L49.1477 17.5855V14.5549V11.4804H43.6624H38.1772V9.28431V7.08823H45.4177H52.6582V3.79412V0.499996H41.6877H30.7173V14.5549Z" fill="#121B60"/>
<path d="M57.4849 14.5549V28.6098H60.776H64.0671V19.6498C64.0671 14.6867 64.2427 10.5581 64.4182 10.4263C64.6376 10.2945 65.9102 14.2914 67.2266 19.2985L69.6401 28.3902L72.9313 28.522L76.1785 28.6537L78.5043 19.9573C79.8207 15.1698 81.0494 11.0851 81.2249 10.8216C81.4444 10.602 81.6199 14.3353 81.6199 19.5181V28.6098H85.3498H89.0798V14.5549V0.500017H84.0334C79.2941 0.500017 78.987 0.54394 78.4165 1.46629C78.0655 2.03727 76.8368 5.90237 75.6958 10.0749C74.5549 14.2475 73.4579 17.5416 73.2823 17.322C73.1068 17.1463 72.1414 13.5008 71.0882 9.28433C69.9912 4.76041 68.938 1.37845 68.5431 1.02708C68.0604 0.675705 66.1735 0.500017 62.6629 0.500017H57.4849V14.5549Z" fill="#121B60"/>
<path d="M93.9072 14.511V28.6098H97.5494H101.148V24.3494V20.0451L106.106 19.7376C110.144 19.518 111.504 19.2545 113.127 18.42C115.936 16.9706 117.691 14.3792 117.954 11.3047C118.218 8.31804 117.472 6.12196 115.497 3.92588C112.733 0.895292 112.25 0.763529 102.596 0.587843L93.9072 0.412155V14.511ZM110.144 7.96667C111.328 9.15255 111.284 11.5243 110.1 12.6224C109.354 13.3251 108.476 13.4569 105.141 13.4569H101.148L101.016 10.2506L100.884 7.08823H105.097C108.695 7.08823 109.398 7.22 110.144 7.96667Z" fill="#121B60"/>
<path d="M121.114 14.5549V28.6098H132.084H143.055V25.5353V22.4608H135.551H128.091L128.223 20.1329L128.354 17.849L133.752 17.7173L139.105 17.5855V14.5549V11.4804H133.62H128.135V9.28431V7.08823L135.507 7.00039L142.835 6.86862L142.967 3.66235L143.099 0.499996H132.084H121.114V14.5549Z" fill="#121B60"/>
<path d="M147.443 14.5549V28.6098H157.887H168.287L168.243 25.6671L168.155 22.6804L161.529 22.5486L154.903 22.4169V11.4804V0.499996H151.173H147.443V14.5549Z" fill="#121B60"/>
</g>
<defs>
<clipPath id="clip0_73_23">
<rect width="182" height="28" fill="white" transform="translate(0 0.5)"/>
</clipPath>
</defs>
</svg>
