<svg width="154" height="27" viewBox="0 0 154 27" fill="none" xmlns="http://www.w3.org/2000/svg">
<g clip-path="url(#clip0_73_114)">
<path d="M0.572754 13.5V27H77.1493H153.726V13.5V0H77.1493H0.572754V13.5ZM19.8701 5.4C20.4214 6.48 20.789 8.76 20.789 11.7V16.2H22.6268C24.2809 16.2 24.4646 16.02 24.4646 14.4C24.4646 12.9 24.7097 12.6 25.9962 12.6C27.4664 12.6 27.5277 12.78 27.5277 16.2V19.8H22.6268H17.7872L17.6034 12.72L17.4196 5.7H15.8881C14.3565 5.7 14.3565 5.7 14.0502 12.6L13.7439 19.5L9.02681 19.68L4.24843 19.86V16.2C4.24843 12.78 4.30969 12.6 5.77996 12.6C7.06645 12.6 7.31149 12.9 7.31149 14.4C7.31149 16.02 7.49528 16.2 9.14933 16.2H10.9872V11.22C10.9872 5.1 11.4773 4.32 15.5818 4.02C17.2971 3.9 18.7061 3.78 18.7673 3.72C18.8286 3.66 19.3187 4.38 19.8701 5.4ZM88.1151 5.76C89.2791 6.72 90.0142 7.86 90.0142 8.76C90.0142 10.02 89.7691 10.2 87.5025 10.2C85.9097 10.2 84.6845 9.84 84.2556 9.3C83.643 8.46 83.398 8.46 82.3565 9.24C81.1926 10.08 81.2538 10.2 84.1944 11.4C88.7277 13.32 90.0142 14.7 90.0142 17.76C90.0142 22.92 85.052 25.74 79.2935 23.88C77.3331 23.28 76.7205 22.68 76.1692 21C75.7403 19.86 75.5565 18.72 75.7403 18.42C76.2917 17.58 80.7025 17.94 81.0701 18.96C81.4376 19.98 84.1944 19.92 84.1944 18.9C84.1944 18.6 82.8466 17.64 81.1926 16.8C76.1692 14.16 74.8214 11.4 76.6592 7.44C78.252 4.02 84.8682 3.06 88.1151 5.76ZM103.063 4.92C104.901 5.88 105.881 7.26 105.942 8.82C105.942 10.08 105.636 10.2 103.185 10.2C101.654 10.2 100.429 9.9 100.429 9.6C100.429 9.24 99.8773 9 99.2034 9C96.998 9 97.9169 10.62 100.612 11.64C105.881 13.62 107.719 17.34 105.207 21C103.185 23.88 101.348 24.72 97.6719 24.36C94.3025 24 92.0971 22.26 91.7295 19.8C91.5457 18.42 91.7908 18.3 93.9962 18.12C95.7115 17.94 96.6304 18.18 97.1205 18.9C97.9169 19.92 99.816 19.92 99.9998 18.9C100.061 18.54 98.7133 17.58 97.0592 16.68C92.0971 14.04 90.7493 11.4 92.5259 7.62C93.8124 4.8 99.8773 3.24 103.063 4.92ZM45.4773 8.4L46.7025 11.7L47.8052 9.3C48.4178 7.98 49.0304 6.42 49.2142 5.82C49.398 4.98 50.1331 4.8 53.1962 4.8H56.9331V6.6C56.9331 7.56 56.6881 8.4 56.3205 8.4C55.9529 8.4 55.7079 10.68 55.7079 14.1C55.7079 17.52 55.9529 19.8 56.3205 19.8C56.6881 19.8 56.9331 20.76 56.9331 21.9V24H52.9511H48.9692V21.9C48.9692 20.76 49.2755 19.8 49.5818 19.8C49.9493 19.8 50.1944 18.36 50.1331 16.62V13.5L48.7854 17.1C47.8052 19.74 47.1313 20.76 46.1511 20.88C45.1097 21 44.6196 20.46 43.5169 17.4C42.7818 15.42 42.0466 13.8 41.8628 13.8C41.6791 13.8 41.6178 15.12 41.7403 16.8C41.8628 18.42 42.1079 19.8 42.4142 19.8C42.6592 19.8 42.843 20.76 42.843 21.96V24.06L40.025 23.88C37.3908 23.7 37.1457 23.58 36.9619 22.02C36.8394 21 37.1457 20.22 37.6971 19.98C38.861 19.56 38.9223 9.48 37.7583 8.46C37.0845 7.98 36.9007 6.36 37.2682 4.92C37.3295 4.8 38.861 4.8 40.7601 4.92L44.1908 5.1L45.4773 8.4ZM71.8809 12.3C72.861 16.26 73.9025 19.56 74.2088 19.68C74.4538 19.8 74.6989 20.82 74.6989 21.96V24.06L70.9007 23.88C67.3475 23.7 67.0412 23.58 66.8574 22.26C66.6737 21.36 67.0412 20.46 67.7151 19.98C68.6953 19.32 68.5115 19.2 66.3061 19.2H63.7944L64.1007 21.6L64.4683 24H61.2827H58.1583V21.9C58.1583 20.58 58.4646 19.8 58.9547 19.8C60.0574 19.8 62.9367 8.88 61.9565 8.52C61.5277 8.4 61.2214 7.5 61.2214 6.54V4.74L65.6935 4.92L70.1043 5.1L71.8809 12.3ZM120.277 12.3C121.257 16.26 122.483 19.8 122.973 20.16C123.402 20.46 123.708 21.42 123.585 22.26C123.402 23.58 123.095 23.7 119.603 23.88L115.744 24.06V22.32C115.744 21.42 116.05 20.34 116.479 19.92C117.03 19.38 116.663 19.2 114.764 19.2H112.313L112.558 21.6L112.803 24H109.679C106.616 24 106.555 23.94 106.555 22.2C106.555 21.24 106.922 20.22 107.412 19.98C108.699 19.26 111.394 8.88 110.414 8.58C109.985 8.4 109.618 7.5 109.618 6.54V4.74L114.09 4.92L118.501 5.1L120.277 12.3ZM141.474 6.54C141.474 7.56 141.229 8.52 140.861 8.7C140.555 8.88 140.248 9.66 140.248 10.32C140.248 11.58 140.248 11.58 141.535 10.44C142.454 9.66 142.699 8.76 142.576 7.2L142.393 5.1L146.252 4.92L150.05 4.74V6.48C150.05 7.86 149.621 8.4 147.906 9.18C146.742 9.72 145.762 10.62 145.762 11.1C145.762 12.24 149.376 19.44 150.111 19.68C150.418 19.8 150.663 20.82 150.663 21.96V24H146.62H142.576L142.76 21.48C143.005 18 142.27 15.9 141.106 16.86C140.065 17.7 140.003 19.32 140.922 20.22C141.29 20.58 141.474 21.48 141.351 22.26C141.167 23.58 140.861 23.7 137.369 23.88L133.51 24.06V21.96C133.51 20.82 133.755 19.8 134 19.68C134.306 19.56 134.735 17.28 134.919 14.58C135.225 10.68 135.102 9.48 134.429 8.76C133.939 8.28 133.51 7.2 133.51 6.36C133.51 4.86 133.632 4.8 137.492 4.8H141.474V6.54ZM131.672 14.1V16.2H127.384H123.095V14.1V12H127.384H131.672V14.1ZM27.5277 23.1V25.2H15.8881H4.24843V23.1V21H15.8881H27.5277V23.1Z" fill="#121B60"/>
<path d="M65.1421 12.96C64.5295 14.88 64.5295 15 65.8772 15C67.1637 15 67.225 14.88 66.6124 13.02C66.2448 12 65.8772 11.04 65.8772 10.98C65.816 10.92 65.5097 11.82 65.1421 12.96Z" fill="#121B60"/>
<path d="M113.722 12.54C113.232 14.82 113.415 15.18 114.702 14.88C115.437 14.76 115.437 14.34 114.824 12.6L114.089 10.56L113.722 12.54Z" fill="#121B60"/>
</g>
<defs>
<clipPath id="clip0_73_114">
<rect width="153" height="27" fill="white" transform="translate(0.495605)"/>
</clipPath>
</defs>
</svg>
