<svg width="154" height="27" viewBox="0 0 154 27" fill="none" xmlns="http://www.w3.org/2000/svg">
<g clip-path="url(#clip0_73_114)">
<path d="M0.57666 13.5V27H77.1532H153.73V13.5V0H77.1532H0.57666V13.5ZM19.874 5.4C20.4253 6.48 20.7929 8.76 20.7929 11.7V16.2H22.6307C24.2848 16.2 24.4686 16.02 24.4686 14.4C24.4686 12.9 24.7136 12.6 26.0001 12.6C27.4704 12.6 27.5316 12.78 27.5316 16.2V19.8H22.6307H17.7911L17.6073 12.72L17.4235 5.7H15.892C14.3604 5.7 14.3604 5.7 14.0541 12.6L13.7478 19.5L9.03071 19.68L4.25234 19.86V16.2C4.25234 12.78 4.3136 12.6 5.78387 12.6C7.07035 12.6 7.3154 12.9 7.3154 14.4C7.3154 16.02 7.49918 16.2 9.15324 16.2H10.9911V11.22C10.9911 5.1 11.4812 4.32 15.5857 4.02C17.301 3.9 18.71 3.78 18.7713 3.72C18.8325 3.66 19.3226 4.38 19.874 5.4ZM88.119 5.76C89.283 6.72 90.0181 7.86 90.0181 8.76C90.0181 10.02 89.7731 10.2 87.5064 10.2C85.9136 10.2 84.6884 9.84 84.2595 9.3C83.6469 8.46 83.4019 8.46 82.3604 9.24C81.1965 10.08 81.2577 10.2 84.1983 11.4C88.7316 13.32 90.0181 14.7 90.0181 17.76C90.0181 22.92 85.0559 25.74 79.2974 23.88C77.337 23.28 76.7244 22.68 76.1731 21C75.7442 19.86 75.5604 18.72 75.7442 18.42C76.2956 17.58 80.7064 17.94 81.074 18.96C81.4415 19.98 84.1983 19.92 84.1983 18.9C84.1983 18.6 82.8505 17.64 81.1965 16.8C76.1731 14.16 74.8253 11.4 76.6631 7.44C78.2559 4.02 84.8722 3.06 88.119 5.76ZM103.067 4.92C104.905 5.88 105.885 7.26 105.946 8.82C105.946 10.08 105.64 10.2 103.189 10.2C101.658 10.2 100.433 9.9 100.433 9.6C100.433 9.24 99.8812 9 99.2073 9C97.0019 9 97.9208 10.62 100.616 11.64C105.885 13.62 107.723 17.34 105.211 21C103.189 23.88 101.351 24.72 97.6758 24.36C94.3064 24 92.101 22.26 91.7334 19.8C91.5496 18.42 91.7947 18.3 94.0001 18.12C95.7154 17.94 96.6343 18.18 97.1244 18.9C97.9208 19.92 99.8199 19.92 100.004 18.9C100.065 18.54 98.7172 17.58 97.0631 16.68C92.101 14.04 90.7532 11.4 92.5298 7.62C93.8163 4.8 99.8812 3.24 103.067 4.92ZM45.4812 8.4L46.7064 11.7L47.8091 9.3C48.4217 7.98 49.0343 6.42 49.2181 5.82C49.4019 4.98 50.137 4.8 53.2001 4.8H56.937V6.6C56.937 7.56 56.692 8.4 56.3244 8.4C55.9568 8.4 55.7118 10.68 55.7118 14.1C55.7118 17.52 55.9568 19.8 56.3244 19.8C56.692 19.8 56.937 20.76 56.937 21.9V24H52.955H48.9731V21.9C48.9731 20.76 49.2794 19.8 49.5857 19.8C49.9532 19.8 50.1983 18.36 50.137 16.62V13.5L48.7893 17.1C47.8091 19.74 47.1352 20.76 46.155 20.88C45.1136 21 44.6235 20.46 43.5208 17.4C42.7857 15.42 42.0505 13.8 41.8668 13.8C41.683 13.8 41.6217 15.12 41.7442 16.8C41.8668 18.42 42.1118 19.8 42.4181 19.8C42.6631 19.8 42.8469 20.76 42.8469 21.96V24.06L40.0289 23.88C37.3947 23.7 37.1496 23.58 36.9659 22.02C36.8433 21 37.1496 20.22 37.701 19.98C38.8649 19.56 38.9262 9.48 37.7622 8.46C37.0884 7.98 36.9046 6.36 37.2722 4.92C37.3334 4.8 38.8649 4.8 40.764 4.92L44.1947 5.1L45.4812 8.4ZM71.8848 12.3C72.865 16.26 73.9064 19.56 74.2127 19.68C74.4577 19.8 74.7028 20.82 74.7028 21.96V24.06L70.9046 23.88C67.3514 23.7 67.0451 23.58 66.8613 22.26C66.6776 21.36 67.0451 20.46 67.719 19.98C68.6992 19.32 68.5154 19.2 66.31 19.2H63.7983L64.1046 21.6L64.4722 24H61.2866H58.1622V21.9C58.1622 20.58 58.4686 19.8 58.9586 19.8C60.0613 19.8 62.9406 8.88 61.9604 8.52C61.5316 8.4 61.2253 7.5 61.2253 6.54V4.74L65.6974 4.92L70.1082 5.1L71.8848 12.3ZM120.281 12.3C121.261 16.26 122.487 19.8 122.977 20.16C123.405 20.46 123.712 21.42 123.589 22.26C123.405 23.58 123.099 23.7 119.607 23.88L115.748 24.06V22.32C115.748 21.42 116.054 20.34 116.483 19.92C117.034 19.38 116.667 19.2 114.768 19.2H112.317L112.562 21.6L112.807 24H109.683C106.62 24 106.559 23.94 106.559 22.2C106.559 21.24 106.926 20.22 107.416 19.98C108.703 19.26 111.398 8.88 110.418 8.58C109.989 8.4 109.622 7.5 109.622 6.54V4.74L114.094 4.92L118.505 5.1L120.281 12.3ZM141.478 6.54C141.478 7.56 141.233 8.52 140.865 8.7C140.559 8.88 140.252 9.66 140.252 10.32C140.252 11.58 140.252 11.58 141.539 10.44C142.458 9.66 142.703 8.76 142.58 7.2L142.396 5.1L146.256 4.92L150.054 4.74V6.48C150.054 7.86 149.625 8.4 147.91 9.18C146.746 9.72 145.766 10.62 145.766 11.1C145.766 12.24 149.38 19.44 150.115 19.68C150.422 19.8 150.667 20.82 150.667 21.96V24H146.624H142.58L142.764 21.48C143.009 18 142.274 15.9 141.11 16.86C140.069 17.7 140.007 19.32 140.926 20.22C141.294 20.58 141.478 21.48 141.355 22.26C141.171 23.58 140.865 23.7 137.373 23.88L133.514 24.06V21.96C133.514 20.82 133.759 19.8 134.004 19.68C134.31 19.56 134.739 17.28 134.923 14.58C135.229 10.68 135.106 9.48 134.433 8.76C133.942 8.28 133.514 7.2 133.514 6.36C133.514 4.86 133.636 4.8 137.496 4.8H141.478V6.54ZM131.676 14.1V16.2H127.387H123.099V14.1V12H127.387H131.676V14.1ZM27.5316 23.1V25.2H15.892H4.25234V23.1V21H15.892H27.5316V23.1Z" fill="#121B60"/>
<path d="M65.146 12.96C64.5334 14.88 64.5334 15 65.8811 15C67.1676 15 67.2289 14.88 66.6163 13.02C66.2487 12 65.8811 11.04 65.8811 10.98C65.8199 10.92 65.5136 11.82 65.146 12.96Z" fill="#121B60"/>
<path d="M113.726 12.54C113.236 14.82 113.419 15.18 114.706 14.88C115.441 14.76 115.441 14.34 114.828 12.6L114.093 10.56L113.726 12.54Z" fill="#121B60"/>
</g>
<defs>
<clipPath id="clip0_73_114">
<rect width="153" height="27" fill="white" transform="translate(0.499512)"/>
</clipPath>
</defs>
</svg>
