<svg width="298" height="57" viewBox="0 0 298 57" fill="none" xmlns="http://www.w3.org/2000/svg">
<g clip-path="url(#clip0_73_11)">
<path d="M272.882 1.47841C271.933 3.38199 270.626 4.68379 268.876 5.4575C268.457 5.64171 268.1 5.82593 268.1 5.86277C268.1 5.89962 268.556 6.15752 269.123 6.43999C270.848 7.32423 271.883 8.36812 272.783 10.0875C273.054 10.6033 273.301 11.0208 273.35 11.0331C273.387 11.0331 273.559 10.7507 273.707 10.4191C274.521 8.67515 275.876 7.28738 277.577 6.42771L278.686 5.88734L277.799 5.4575C275.95 4.57326 274.841 3.49252 273.83 1.56438L273.325 0.581891L272.882 1.47841Z" fill="#121B60"/>
<path d="M284.589 1.47842C283.64 3.382 282.333 4.68379 280.583 5.45751C280.165 5.64172 279.807 5.82594 279.807 5.86278C279.807 5.89963 280.288 6.16981 280.892 6.46456C282.358 7.21371 283.714 8.55235 284.465 10.0384C284.761 10.6156 285.02 11.0823 285.045 11.0823C285.069 11.0823 285.328 10.6156 285.624 10.0384C286.375 8.55235 287.731 7.21371 289.197 6.46456C289.801 6.16981 290.282 5.89963 290.282 5.86278C290.282 5.82594 289.925 5.64172 289.506 5.45751C287.768 4.68379 286.548 3.49253 285.537 1.55211L285.032 0.5819L284.589 1.47842Z" fill="#121B60"/>
<path d="M272.882 13.1455C271.933 15.0491 270.626 16.3509 268.876 17.1246C268.457 17.3088 268.1 17.493 268.1 17.5299C268.1 17.5667 268.494 17.7755 268.975 18.0088C270.663 18.8194 271.896 20.0229 272.783 21.7423C273.066 22.2949 273.313 22.7493 273.337 22.7493C273.362 22.7493 273.621 22.2826 273.917 21.7054C274.668 20.2194 276.024 18.8808 277.49 18.1316C278.094 17.8369 278.575 17.5667 278.575 17.5299C278.575 17.493 278.218 17.3088 277.799 17.1246C276.073 16.3631 274.829 15.135 273.83 13.2315L273.325 12.249L272.882 13.1455Z" fill="#121B60"/>
<path d="M284.589 13.1455C283.64 15.0491 282.333 16.3509 280.583 17.1246C280.165 17.3088 279.807 17.493 279.807 17.5299C279.807 17.5667 280.288 17.8369 280.892 18.1316C282.358 18.8808 283.714 20.2194 284.465 21.7054C284.761 22.2826 285.02 22.7493 285.045 22.7493C285.069 22.7493 285.328 22.2826 285.624 21.7054C286.375 20.2194 287.731 18.8808 289.197 18.1316C289.801 17.8369 290.282 17.5667 290.282 17.5299C290.282 17.493 289.925 17.3088 289.506 17.1246C287.768 16.3509 286.548 15.1596 285.537 13.2192L285.032 12.249L284.589 13.1455Z" fill="#121B60"/>
<path d="M52.4798 27.539C52.5291 27.6372 52.9727 28.2635 53.4903 28.9267L54.4269 30.1426L47.1438 39.992C43.1511 45.408 39.1091 50.7871 38.1848 51.9538C37.2606 53.1083 36.4596 54.1399 36.3856 54.2136C36.2994 54.3364 36.743 54.3732 38.5299 54.3732H40.7974L48.5364 43.136C52.8002 36.9586 56.3247 31.8988 56.3863 31.8988C56.4356 31.8988 58.4936 34.7603 60.9459 38.2481L65.3946 44.6097L57.0394 44.6466L48.6966 44.6711L49.7317 45.715L50.7792 46.7712L58.8509 46.6852L66.9227 46.5993L69.2271 49.9643C70.4964 51.8187 71.7041 53.5627 71.9013 53.8574L72.2833 54.3732H78.1985C81.4518 54.3732 84.1137 54.3364 84.1137 54.2995C84.1137 54.2627 80.0716 48.7853 75.1423 42.1167C70.213 35.448 65.752 29.418 65.2467 28.7057L64.3225 27.4161L58.3703 27.3793C53.1699 27.3547 52.4305 27.3793 52.4798 27.539Z" fill="#121B60"/>
<path d="M144.375 27.4898C144.375 27.5635 144.818 28.1899 145.348 28.8776L146.334 30.1426L137.523 42.1535C132.68 48.7607 128.724 54.2136 128.724 54.275C128.724 54.3364 129.648 54.3609 130.782 54.3487L132.84 54.3118L139.901 43.9957C143.783 38.3218 147.271 33.2497 147.628 32.7216L148.293 31.7637L152.791 38.1867L157.302 44.6097L148.959 44.6466L140.628 44.6711L141.664 45.715L142.711 46.7712L150.783 46.6975L158.855 46.6238L161.504 50.4924L164.141 54.3732H170.106C174.838 54.3732 176.045 54.3364 175.972 54.2136C175.922 54.1399 171.856 48.6256 166.926 41.9693C162.009 35.3129 157.573 29.3074 157.08 28.6074L156.18 27.3547H150.278C146.112 27.3547 144.375 27.3916 144.375 27.4898Z" fill="#121B60"/>
<path d="M1.757 28.6197C2.42245 29.2583 3.17417 29.9583 3.43296 30.1671L3.88892 30.5724V42.4728V54.3732H8.87985H13.8708V42.0307V29.6882H22.1274H30.384V36.9463V44.2167L22.7805 44.1185L15.1647 44.0325L16.2985 45.1747L17.4199 46.3045L24.5551 46.1694C30.0636 46.0589 31.912 45.9852 32.7254 45.8378C36.3115 45.1747 38.8377 43.6395 40.3042 41.2324C41.2777 39.6236 41.7337 37.3884 41.4872 35.3498C40.982 31.2356 38.2955 28.8408 32.9718 27.76C32.023 27.5758 30.4825 27.5512 16.2368 27.5144L0.549316 27.4653L1.757 28.6197Z" fill="#121B60"/>
<path d="M86.0848 27.9934C86.3929 28.2758 87.1569 29.0004 87.7854 29.5899L88.9192 30.6829V42.5219V54.3732H93.9101H98.901V42.0307V29.6882H107.404H115.907V36.934V44.1799H108.057H100.195L101.181 45.1747L102.167 46.1694L105.962 46.1203L109.77 46.0835L112.358 50.0748C113.775 52.2731 115.008 54.1399 115.094 54.2258C115.205 54.3364 116.523 54.3732 121.132 54.3487L127.01 54.3118L123.548 49.9766C121.637 47.5818 120.097 45.6168 120.122 45.5922C120.146 45.5799 120.578 45.3834 121.095 45.1747C123.56 44.1553 125.113 42.7553 126.086 40.6552C126.727 39.3043 126.912 38.3341 126.924 36.4428C126.936 34.5883 126.752 33.7041 126.135 32.4514C124.94 30.032 122.66 28.6197 118.532 27.76C117.682 27.5758 115.796 27.5512 101.551 27.5144L85.5303 27.4776L86.0848 27.9934Z" fill="#121B60"/>
<path d="M178.3 29.0864L179.989 30.6952V42.5342V54.3855L194.567 54.3364L209.133 54.2995L210.365 54.0171C215.332 52.8995 217.772 50.1117 218.634 44.5852C218.918 42.7676 218.918 38.7148 218.634 36.8849C217.821 31.6409 215.356 29.0618 210.057 27.8706L208.64 27.5512L192.62 27.5144L176.6 27.4776L178.3 29.0864ZM207.716 40.9254V52.1626H198.905H190.094V40.9254V29.6882H198.905H207.716V40.9254Z" fill="#121B60"/>
<path d="M220.606 29.7127C222.713 31.5672 224.266 33.1146 229.368 38.506L235.567 45.0518V49.731V54.4101L236.959 54.3364C237.711 54.2873 239.929 54.2504 241.888 54.2504H245.425V50.259V46.2677L252.942 38.113L260.447 29.9706L263.442 29.8847C269.135 29.7373 280.608 29.5408 281.175 29.5899L281.73 29.6268L273.547 38.4078C269.049 43.2342 264.44 48.1835 263.306 49.3994L261.236 51.6222L260.916 52.9363C260.731 53.6486 260.583 54.275 260.583 54.3118C260.583 54.3487 268.876 54.3732 279.006 54.3732C289.136 54.3732 297.429 54.3364 297.429 54.2873C297.429 54.2381 296.85 53.6118 296.135 52.8995L294.841 51.61L284.404 51.8679C278.649 52.0152 273.929 52.1135 273.904 52.0889C273.88 52.0644 274.323 51.5363 274.902 50.9099C275.482 50.2836 280.004 45.3343 284.946 39.9183L293.942 30.0689L294.349 28.9267C294.57 28.3004 294.78 27.7109 294.817 27.6249C294.854 27.5144 290.479 27.4776 273.202 27.4776L251.525 27.4898L244.809 35.2884C241.112 39.5745 238.007 43.1974 237.896 43.3325C237.711 43.5781 237.415 43.2711 230.502 35.534L223.305 27.4898H220.68L218.055 27.4776L220.606 29.7127Z" fill="#121B60"/>
</g>
<defs>
<clipPath id="clip0_73_11">
<rect width="297" height="56" fill="white" transform="translate(0.495605 0.5)"/>
</clipPath>
</defs>
</svg>
