<svg width="298" height="31" viewBox="0 0 298 31" fill="none" xmlns="http://www.w3.org/2000/svg">
<g clip-path="url(#clip0_171_26)">
<path d="M52.4837 2.03903C52.533 2.13728 52.9767 2.76362 53.4942 3.4268L54.4308 4.64263L47.1477 14.4921C43.155 19.9081 39.113 25.2872 38.1887 26.4539C37.2645 27.6083 36.4635 28.6399 36.3895 28.7136C36.3033 28.8364 36.7469 28.8733 38.5338 28.8733H40.8013L48.5403 17.6361C52.8041 11.4587 56.3286 6.39883 56.3902 6.39883C56.4395 6.39883 58.4975 9.26034 60.9498 12.7482L65.3985 19.1098L57.0433 19.1466L48.7005 19.1712L49.7356 20.2151L50.7831 21.2713L58.8549 21.1853L66.9266 21.0993L69.231 24.4644C70.5003 26.3188 71.708 28.0627 71.9052 28.3575L72.2872 28.8733H78.2024C81.4557 28.8733 84.1176 28.8364 84.1176 28.7996C84.1176 28.7628 80.0755 23.2854 75.1462 16.6167C70.2169 9.94808 65.7559 3.91805 65.2506 3.20574L64.3264 1.91622L58.3742 1.87938C53.1738 1.85482 52.4344 1.87938 52.4837 2.03903Z" fill="#121B60"/>
<path d="M144.379 1.98991C144.379 2.0636 144.822 2.68994 145.352 3.37768L146.338 4.64263L137.527 16.6536C132.684 23.2608 128.728 28.7136 128.728 28.775C128.728 28.8364 129.652 28.861 130.786 28.8487L132.844 28.8119L139.905 18.4957C143.787 12.8219 147.275 7.74976 147.632 7.22167L148.297 6.26374L152.795 12.6868L157.306 19.1098L148.963 19.1466L140.632 19.1712L141.667 20.2151L142.715 21.2713L150.787 21.1976L158.858 21.1239L161.508 24.9925L164.145 28.8733H170.11C174.842 28.8733 176.049 28.8364 175.975 28.7136C175.926 28.6399 171.859 23.1257 166.93 16.4694C162.013 9.81299 157.577 3.80752 157.084 3.10749L156.184 1.85482H150.281C146.116 1.85482 144.379 1.89166 144.379 1.98991Z" fill="#121B60"/>
<path d="M1.7609 3.11978C2.42636 3.75839 3.17808 4.45842 3.43687 4.6672L3.89283 5.07247V16.9729V28.8733H8.88375H13.8747V16.5308V4.18823H22.1313H30.3879V11.4464V18.7168L22.7844 18.6186L15.1686 18.5326L16.3024 19.6747L17.4238 20.8046L24.559 20.6695C30.0675 20.559 31.916 20.4853 32.7293 20.3379C36.3154 19.6747 38.8416 18.1396 40.3081 15.7325C41.2816 14.1237 41.7376 11.8885 41.4911 9.84983C40.9859 5.73565 38.2994 3.34084 32.9758 2.2601C32.0269 2.07588 30.4865 2.05132 16.2407 2.01447L0.553223 1.96535L1.7609 3.11978Z" fill="#121B60"/>
<path d="M86.0887 2.49344C86.3968 2.77591 87.1609 3.50049 87.7893 4.08998L88.9231 5.18301V17.022V28.8733H93.914H98.9049V16.5308V4.18823H107.408H115.911V11.4341V18.68H108.061H100.199L101.185 19.6747L102.171 20.6695L105.966 20.6204L109.774 20.5835L112.362 24.5749C113.779 26.7732 115.011 28.6399 115.098 28.7259C115.209 28.8364 116.527 28.8733 121.136 28.8487L127.014 28.8119L123.551 24.4766C121.641 22.0818 120.101 20.1169 120.126 20.0923C120.15 20.08 120.582 19.8835 121.099 19.6747C123.564 18.6554 125.117 17.2553 126.09 15.1553C126.731 13.8044 126.916 12.8341 126.928 10.9429C126.94 9.0884 126.756 8.20416 126.139 6.95149C124.944 4.53211 122.664 3.11978 118.536 2.2601C117.686 2.07588 115.8 2.05132 101.554 2.01448L85.5342 1.97763L86.0887 2.49344Z" fill="#121B60"/>
<path d="M178.304 3.58638L179.992 5.19521V17.0342V28.8855L194.571 28.8364L209.137 28.7995L210.369 28.5171C215.336 27.3995 217.776 24.6117 218.638 19.0852C218.922 17.2676 218.922 13.2148 218.638 11.3849C217.825 6.14086 215.36 3.56182 210.061 2.37055L208.644 2.05124L192.624 2.0144L176.604 1.97756L178.304 3.58638ZM207.72 15.4254V26.6626H198.909H190.097V15.4254V4.18816H198.909H207.72V15.4254Z" fill="#121B60"/>
<path d="M220.61 4.21282C222.717 6.06727 224.27 7.61469 229.372 13.0061L235.57 19.5519V24.231V28.9102L236.963 28.8365C237.715 28.7873 239.933 28.7505 241.892 28.7505H245.429V24.7591V20.7678L252.946 12.6131L260.451 4.47072L263.446 4.38475C269.139 4.23738 280.612 4.04088 281.179 4.09001L281.733 4.12685L273.551 12.9079C269.053 17.7343 264.444 22.6836 263.31 23.8995L261.24 26.1223L260.919 27.4364C260.735 28.1487 260.587 28.7751 260.587 28.8119C260.587 28.8488 268.88 28.8733 279.01 28.8733C289.14 28.8733 297.433 28.8365 297.433 28.7873C297.433 28.7382 296.854 28.1119 296.139 27.3996L294.845 26.1101L284.408 26.368C278.653 26.5153 273.933 26.6136 273.908 26.589C273.884 26.5645 274.327 26.0364 274.906 25.41C275.486 24.7837 280.008 19.8344 284.95 14.4184L293.946 4.56897L294.352 3.42682C294.574 2.80049 294.784 2.21099 294.821 2.12503C294.858 2.0145 290.483 1.97765 273.206 1.97765L251.529 1.98993L244.813 9.78845C241.116 14.0746 238.01 17.6975 237.9 17.8326C237.715 18.0782 237.419 17.7712 230.506 10.0341L223.309 1.98993H220.684L218.059 1.97765L220.61 4.21282Z" fill="#121B60"/>
</g>
<defs>
<clipPath id="clip0_171_26">
<rect width="297" height="31" fill="white" transform="translate(0.499512)"/>
</clipPath>
</defs>
</svg>
