<svg width="72" height="33" viewBox="0 0 72 33" fill="none" xmlns="http://www.w3.org/2000/svg">
<g clip-path="url(#clip0_171_21)">
<path d="M59.6192 0.671158C53.5494 1.93535 48.5208 5.88597 45.9049 11.4958C44.4319 14.63 44.0002 16.421 43.8224 19.9765C43.4414 27.43 45.9303 31.2753 52.0002 32.6185C55.251 33.3296 59.5176 32.8292 63.5557 31.2489L65.2065 30.5905L67.0605 24.4802C68.0764 21.109 69.0922 18.0802 69.2954 17.7378C69.4986 17.3954 70.0319 16.895 70.4891 16.6317L71.3018 16.1049H65.3589H59.416L60.1018 16.658C60.5589 17.0267 60.7621 17.4481 60.7621 18.0275C60.7621 18.5016 60.0002 21.3987 59.0605 24.5065C57.1557 30.7485 57.1303 30.8012 55.0478 30.4588C52.7875 30.0637 51.3145 28.2728 50.9843 25.4547C50.6795 22.979 51.6192 17.8695 53.143 13.7609C55.3525 7.83494 59.3906 3.59461 63.3779 3.04153C65.0287 2.80449 67.4922 3.5156 69.4224 4.83247C70.2859 5.38556 70.997 5.8333 71.0478 5.78062C71.251 5.51725 72.1906 1.80367 72.0891 1.69832C72.0129 1.6193 71.0732 1.32959 69.9811 1.03988C67.3398 0.381447 62.0065 0.197083 59.6192 0.671158Z" fill="#121B60"/>
<path d="M9.53649 1.01353C9.76506 1.30324 9.96824 1.85633 9.96824 2.27773C9.96824 3.19954 1.94284 29.9584 1.38411 30.8539C1.18094 31.2226 0.774588 31.6703 0.520619 31.8547C0.266651 32.039 0.0634766 32.2761 0.0634766 32.3814C0.0634766 32.4868 2.39998 32.5658 5.26983 32.5658C8.13967 32.5658 10.4762 32.4868 10.4762 32.4078C10.4762 32.3024 10.2984 32.0917 10.0952 31.9074C9.4857 31.3806 9.61268 30.6168 11.1365 25.481L12.5841 20.6349L16.0381 20.5032C18.0444 20.4242 20.127 20.1872 21.0159 19.9238C24.546 18.923 27.5936 16.737 29.2698 13.9979C30.3365 12.286 31.3016 9.07279 31.3016 7.33452C31.3016 5.46456 30.3365 3.48925 28.9397 2.40942C26.9079 0.855509 26.146 0.750158 17.2063 0.618471C9.23173 0.513123 9.10475 0.539459 9.53649 1.01353ZM21.3714 3.54193C23.0984 4.4374 23.5047 6.46538 22.6666 9.81024C21.6254 14.0506 19.4413 16.974 16.7492 17.8168C15.1746 18.2909 13.5238 18.3436 13.5238 17.8958C13.5238 17.7115 13.9047 16.3156 14.3873 14.788C15.2254 12.1279 17.3587 5.01682 17.7143 3.77896C17.8666 3.27855 18.0444 3.19954 19.3143 3.19954C20.1016 3.19954 21.0413 3.35756 21.3714 3.54193Z" fill="#121B60"/>
<path d="M35.7207 8.36167C33.1048 9.33615 31.5302 11.8382 30.9969 15.8415C30.7937 17.6061 30.5906 18.3172 30.3112 18.3962C26.5271 19.7394 23.962 21.6357 22.9461 23.8217C22.2858 25.2176 22.235 27.7987 22.8191 29.2209C24.4445 33.3032 29.6001 34.1197 34.908 31.1962L36.5842 30.2481L37.8033 31.3279L38.9969 32.4341H42.3747C44.2287 32.4341 45.9048 32.5131 46.1334 32.5921C46.362 32.6711 46.5398 32.6448 46.5398 32.5394C46.5398 32.4078 46.0064 32.0654 45.3461 31.802C44.0001 31.2226 40.8001 29.0629 40.089 28.2464C39.6318 27.7197 39.6572 27.6934 40.6731 26.1131C41.689 24.5065 42.2223 23.1106 42.2223 21.9518C42.2223 21.3987 42.1207 21.3724 40.4445 21.3724C38.6921 21.3724 38.6667 21.3987 38.9461 21.9255C39.3271 22.6892 38.7175 25.5864 38.1842 25.5864C37.7017 25.5864 35.3652 20.4506 35.3652 19.3971C35.3652 19.1864 36.2287 18.5543 37.3461 17.9748C40.9779 16.0785 42.7302 14.1032 42.7302 11.9436C42.7302 10.3897 41.9937 9.17813 40.5969 8.49335C39.3271 7.83492 37.2699 7.78224 35.7207 8.36167ZM39.3017 10.6004C39.581 11.4695 38.2858 13.8135 36.7366 15.2884C35.9493 16.0259 35.2128 16.6316 35.0858 16.6316C34.4255 16.6316 35.2382 12.3913 36.1779 11.0481C37.1937 9.52052 38.9207 9.28348 39.3017 10.6004ZM31.8096 22.3205C32.2921 23.7954 33.689 26.6925 34.3747 27.7197L34.8572 28.4308L33.5112 29.0366C31.7842 29.8267 29.4731 29.8794 28.4064 29.1419C27.0096 28.1938 26.6033 26.0604 27.4667 24.3222C28.1525 22.9526 30.5398 20.7666 31.1493 20.951C31.2763 20.9773 31.581 21.5831 31.8096 22.3205Z" fill="#121B60"/>
</g>
<defs>
<clipPath id="clip0_171_21">
<rect width="72" height="32" fill="white" transform="translate(0 0.5)"/>
</clipPath>
</defs>
</svg>
