<svg width="190" height="55" viewBox="0 0 190 55" fill="none" xmlns="http://www.w3.org/2000/svg">
<g clip-path="url(#clip0_73_92)">
<path d="M19.0688 0.737183C19.3838 1.62159 19.5282 3.27159 19.397 4.32759C19.1082 6.65079 18.1107 8.72319 15.5251 12.406C11.942 17.5144 10.787 19.4416 9.81571 21.8968C7.93883 26.6884 8.13571 32.0344 10.4063 37.7236C10.6032 38.2252 10.7345 38.6608 10.6951 38.7004C10.472 38.9248 8.55571 37.1428 7.75508 35.968C6.44258 34.0408 5.23508 30.4504 4.88071 27.4672L4.78883 26.6752L4.53946 27.1768C4.10633 28.0216 3.27946 30.7012 3.03008 32.008C2.71508 33.7504 2.72821 37.1824 3.04321 38.872C3.35821 40.4824 4.26383 43.2808 4.89383 44.548C6.98071 48.7324 10.4195 52.1776 13.7401 53.4052C14.6982 53.7616 15.1051 53.8276 16.457 53.8936C18.2026 53.9596 19.0163 53.8276 20.1188 53.3128C21.1032 52.8508 21.6938 52.2832 22.1401 51.412C22.652 50.3692 22.757 49.498 22.4945 48.244C22.2057 46.858 21.6282 45.736 19.8695 43.1092C17.4545 39.5056 15.7876 35.8624 15.1051 32.6548C14.7376 30.9652 14.777 26.926 15.1707 25.5004C15.9713 22.5964 17.1001 20.6164 19.2263 18.4252C20.0401 17.5804 20.7357 16.9336 20.7751 16.9732C20.8145 17.0128 20.6832 17.422 20.4995 17.8708C20.3157 18.3328 20.0138 19.2832 19.817 19.9828C19.5151 21.1048 19.4757 21.4876 19.4626 23.362C19.4626 25.8172 19.6857 26.8204 20.6176 28.6684C21.602 30.622 22.7438 32.0608 25.8151 35.242C27.4295 36.9052 29.1095 38.7136 29.5163 39.2416C31.5376 41.776 32.3776 44.2576 32.0101 46.528C31.8395 47.5708 31.3276 49.2076 31.2095 49.0756C31.157 49.0096 30.9863 48.5872 30.8157 48.112C30.422 46.99 29.6082 45.34 28.9388 44.35C28.1907 43.228 26.5895 41.6704 25.4345 40.9576C24.3582 40.2844 22.9932 39.6904 23.1638 39.9544C23.2163 40.0468 23.597 40.6276 24.0038 41.248C24.962 42.6868 25.8282 44.4424 26.3007 45.868C26.642 46.8844 26.6682 47.1616 26.6682 48.838C26.6682 50.4616 26.642 50.7784 26.3795 51.4384C25.9726 52.4548 25.0801 53.6164 24.1745 54.3292C23.7676 54.646 23.5051 54.9232 23.5838 54.9496C23.6626 54.976 24.4763 54.844 25.382 54.646C33.9526 52.8376 39.2945 47.9272 40.4757 40.7332C40.7382 39.0964 40.6726 36.0868 40.3313 34.516C39.767 31.942 38.8351 29.764 37.247 27.4012C35.6851 25.0648 34.5695 22.3324 34.1626 19.864C33.7951 17.5672 33.9657 14.4124 34.5432 12.7624C34.6482 12.4588 34.7007 12.208 34.6482 12.208C34.5957 12.208 33.9657 12.4984 33.2438 12.8548C30.9863 13.9768 29.2801 15.6928 28.217 17.9104C27.9545 18.478 27.7051 18.94 27.6657 18.94C27.6263 18.94 27.6132 18.4252 27.6395 17.8048C27.692 16.3396 27.4688 13.8316 27.1276 12.142C26.1432 7.27119 23.6626 3.27159 20.1713 0.948387C19.5545 0.539188 19.0032 0.195984 18.9638 0.195984C18.9245 0.195984 18.9638 0.433582 19.0688 0.737183ZM31.3407 24.5896C31.6426 25.936 32.5613 27.8896 33.8607 29.9752C35.252 32.1928 35.4882 32.6152 35.8688 33.6448C36.8795 36.3376 36.8401 39.2284 35.7638 41.974L35.3438 43.03L35.2651 41.578C35.1338 39.2548 34.6482 38.278 32.1413 35.176C29.5688 31.9948 28.8601 29.7112 29.4376 26.4244C29.6345 25.2496 30.1332 23.7448 30.5926 22.834L30.8682 22.306L30.9732 22.9C31.0388 23.23 31.2095 23.9824 31.3407 24.5896Z" fill="#121B60"/>
<path d="M140.804 27.982V39.664H143.298H145.792V27.982V16.3H143.298H140.804V27.982Z" fill="#121B60"/>
<path d="M129.817 17.356C126.627 17.7652 123.924 19.0852 122.047 21.1444C121.128 22.1344 120.078 24.1276 119.737 25.474C118.831 29.0644 119.396 32.8264 121.22 35.5324C122.427 37.3276 124.593 38.7796 126.929 39.3868C129.987 40.1788 134.004 40.0072 137.889 38.9248L138.702 38.7004V32.9056V27.124H134.634H130.565V29.038V30.952H132.271H133.977V33.262V35.5588L133.439 35.704C132.665 35.9152 130.368 35.8756 129.476 35.638C127.717 35.176 126.181 34.0144 125.407 32.5756C124.252 30.4108 124.252 26.8732 125.394 24.748C126.168 23.3224 127.94 22.0156 129.646 21.6064C131.405 21.184 133.912 21.316 135.815 21.9232C136.406 22.108 136.904 22.24 136.931 22.2136C137.036 22.0948 137.915 18.3856 137.862 18.2932C137.771 18.148 136.038 17.6464 135.027 17.488C133.781 17.29 130.906 17.224 129.817 17.356Z" fill="#121B60"/>
<path d="M56.8304 17.5012C56.0823 17.5672 55.2029 17.6596 54.8617 17.7256L54.2448 17.818L54.2054 28.7476L54.1792 39.664H56.6729H59.1667V35.6644V31.678L61.1748 31.6648C63.5373 31.6648 64.4298 31.48 66.1886 30.622C68.6036 29.4472 69.7717 27.6784 70.0342 24.8272L70.1261 23.7976L73.1186 31.2952C74.7592 35.4268 76.0979 38.9512 76.0979 39.1492C76.0979 39.6112 75.468 40.5484 74.7198 41.2216C74.0504 41.8156 72.7379 42.5152 72.0423 42.6472C71.7404 42.7132 71.6486 42.7924 71.688 42.9508C71.7273 43.0696 71.9373 43.8748 72.1473 44.746C72.3704 45.6172 72.5936 46.462 72.6329 46.6336C72.7511 47.0296 73.1448 47.0164 74.4704 46.5412C76.3998 45.868 78.0798 44.4952 79.3661 42.5416C80.0879 41.4592 81.4136 38.7004 82.188 36.694C82.5161 35.8228 83.6973 32.5228 84.813 29.368L86.8211 23.626L84.3142 23.5864C82.9361 23.5732 81.7417 23.5864 81.663 23.6128C81.5842 23.6392 80.9279 26.0416 80.2323 28.9324C78.7492 35.044 78.8673 34.5688 78.7754 34.4896C78.7361 34.45 78.5392 33.7636 78.3292 32.9848C78.0405 31.8364 76.3736 26.1736 75.6911 23.9824L75.5467 23.56H72.8036H70.0604L69.9817 23.1904C69.9423 22.9924 69.8504 22.5964 69.7717 22.306C69.4042 20.788 67.9867 19.1116 66.4904 18.412C64.8629 17.6464 63.8392 17.4616 60.8729 17.422C59.3898 17.3956 57.5786 17.4352 56.8304 17.5012ZM63.4586 21.6592C64.5086 22.2004 64.9811 22.8868 65.0467 24.0352C65.0861 24.5236 65.0336 25.1572 64.9286 25.5136C64.7055 26.332 63.7867 27.256 62.9073 27.5728C62.1986 27.8236 60.0723 28.0084 59.5079 27.8632L59.1667 27.784V24.5632V21.3292L59.4686 21.2632C59.6261 21.2368 60.4136 21.2236 61.2273 21.2368C62.5661 21.2632 62.7629 21.3028 63.4586 21.6592Z" fill="#121B60"/>
<path d="M94.904 23.362C93.6047 23.758 92.6597 24.5764 92.0297 25.8172C91.8459 26.1868 91.6622 26.464 91.6359 26.4244C91.5965 26.3848 91.5309 25.738 91.4784 24.9988L91.3865 23.626L89.234 23.5864L87.0815 23.5468L87.1734 24.3652C87.2128 24.814 87.2522 28.444 87.2522 32.4172V39.664H89.7459H92.2397V35.2024C92.2397 30.358 92.2922 29.9092 92.9484 29.038C93.1322 28.8004 93.6178 28.4308 94.0115 28.2328C94.6547 27.9292 94.8909 27.8764 95.9147 27.8896L97.0959 27.9028V25.6192C97.0959 23.6524 97.0697 23.3092 96.8859 23.2432C96.5447 23.1112 95.4947 23.164 94.904 23.362Z" fill="#121B60"/>
<path d="M103.765 23.296C100.313 23.89 98.0163 25.936 97.137 29.236C96.7826 30.5692 96.822 33.1036 97.2157 34.384C97.8326 36.3904 98.7776 37.684 100.392 38.74C103.857 40.9972 109.369 40.2052 111.824 37.1164C114.396 33.856 114.173 28.312 111.351 25.474C109.553 23.6788 106.587 22.8208 103.765 23.296ZM106.088 26.8732C106.915 27.0976 107.781 28.0876 108.123 29.1964C108.884 31.6516 108.411 34.5424 107.046 35.77C106.193 36.5488 105.038 36.6676 103.923 36.1C102.531 35.3872 101.731 33.0376 102.059 30.5824C102.439 27.7708 104.014 26.3056 106.088 26.8732Z" fill="#121B60"/>
<path d="M152.552 23.3092C151.423 23.4544 149.507 23.9956 148.811 24.352C148.221 24.6556 148.221 24.484 148.798 26.464C148.995 27.1504 149.218 27.7048 149.284 27.6916C149.349 27.6784 149.769 27.5068 150.229 27.322C153.326 26.0284 156.424 26.5828 156.476 28.4308L156.489 28.906L154.914 28.9984C151.384 29.1964 148.824 30.4108 147.788 32.3644C146.396 34.9912 147.328 38.2516 149.809 39.4792C151.83 40.4692 154.77 40.0732 156.384 38.5684C156.988 38.0008 156.988 38.0008 157.172 39.004L157.29 39.598L159.495 39.6376L161.7 39.664L161.621 39.1096C161.582 38.7928 161.516 36.3112 161.477 33.592C161.424 30.8728 161.333 28.3384 161.267 27.9688C160.847 25.7644 159.285 24.088 157.067 23.4808C156.161 23.2432 153.746 23.1376 152.552 23.3092ZM156.686 33.262C156.686 34.7272 156.463 35.3344 155.689 35.9152C154.324 36.9712 152.473 36.5752 152.079 35.1496C151.817 34.1728 152.329 33.0904 153.287 32.5888C153.851 32.2984 155.085 32.0344 155.938 32.0212L156.686 32.008V33.262Z" fill="#121B60"/>
<path d="M168.392 23.3092C166.804 23.5732 165.203 24.418 164.494 25.3552C163.772 26.3188 163.457 27.2296 163.457 28.444C163.457 29.4076 163.497 29.6584 163.812 30.2656C164.481 31.5592 165.781 32.5228 167.815 33.2488C169.036 33.6844 169.521 33.9352 169.981 34.3576C170.637 34.9912 170.361 36.0208 169.442 36.3772C168.524 36.7336 166.463 36.4564 164.77 35.77C164.337 35.5852 163.943 35.4928 163.891 35.5456C163.851 35.5984 163.628 36.3772 163.405 37.2616L163.011 38.8984L163.681 39.202C164.927 39.7432 166.306 39.9808 168.235 39.9808C171.582 39.9676 173.695 38.9512 174.653 36.9052C174.955 36.2584 174.994 36.0076 174.994 34.78C174.994 33.5392 174.955 33.328 174.64 32.734C173.971 31.4404 172.789 30.5692 170.729 29.8168C169.232 29.2756 168.524 28.8796 168.301 28.444C168.025 27.916 168.051 27.7312 168.432 27.2824C169.18 26.3848 171.004 26.4508 173.367 27.4408C173.551 27.52 173.642 27.2692 173.997 25.8568C174.469 23.956 174.522 24.1012 173.275 23.7052C171.726 23.2168 169.862 23.0584 168.392 23.3092Z" fill="#121B60"/>
<path d="M180.99 23.3092C179.402 23.5732 177.801 24.418 177.092 25.3552C176.37 26.3188 176.055 27.2296 176.055 28.444C176.055 29.4076 176.095 29.6584 176.41 30.2656C177.079 31.5592 178.378 32.5228 180.413 33.2488C181.633 33.6844 182.119 33.9352 182.578 34.3576C183.235 34.9912 182.959 36.0208 182.04 36.3772C181.121 36.7336 179.061 36.4564 177.368 35.77C176.935 35.5852 176.541 35.4928 176.488 35.5456C176.449 35.5984 176.226 36.3772 176.003 37.2616L175.609 38.8984L176.278 39.202C177.525 39.7432 178.903 39.9808 180.833 39.9808C184.18 39.9676 186.293 38.9512 187.251 36.9052C187.553 36.2584 187.592 36.0076 187.592 34.78C187.592 33.5392 187.553 33.328 187.238 32.734C186.568 31.4404 185.387 30.5692 183.326 29.8168C181.83 29.2756 181.121 28.8796 180.898 28.444C180.623 27.916 180.649 27.7312 181.03 27.2824C181.778 26.3848 183.602 26.4508 185.965 27.4408C186.148 27.52 186.24 27.2692 186.595 25.8568C187.067 23.956 187.12 24.1012 185.873 23.7052C184.324 23.2168 182.46 23.0584 180.99 23.3092Z" fill="#121B60"/>
</g>
<defs>
<clipPath id="clip0_73_92">
<rect width="189" height="54" fill="white" transform="translate(0.495605 0.5)"/>
</clipPath>
</defs>
</svg>
