<svg width="190" height="55" viewBox="0 0 190 55" fill="none" xmlns="http://www.w3.org/2000/svg">
<g clip-path="url(#clip0_73_92)">
<path d="M19.0727 0.737183C19.3877 1.62159 19.5321 3.27159 19.4009 4.32759C19.1121 6.65079 18.1146 8.72319 15.529 12.406C11.9459 17.5144 10.7909 19.4416 9.81961 21.8968C7.94274 26.6884 8.13961 32.0344 10.4102 37.7236C10.6071 38.2252 10.7384 38.6608 10.699 38.7004C10.4759 38.9248 8.55961 37.1428 7.75899 35.968C6.44649 34.0408 5.23899 30.4504 4.88461 27.4672L4.79274 26.6752L4.54336 27.1768C4.11024 28.0216 3.28336 30.7012 3.03399 32.008C2.71899 33.7504 2.73211 37.1824 3.04711 38.872C3.36211 40.4824 4.26774 43.2808 4.89774 44.548C6.98461 48.7324 10.4234 52.1776 13.744 53.4052C14.7021 53.7616 15.109 53.8276 16.4609 53.8936C18.2065 53.9596 19.0202 53.8276 20.1227 53.3128C21.1071 52.8508 21.6977 52.2832 22.144 51.412C22.6559 50.3692 22.7609 49.498 22.4984 48.244C22.2096 46.858 21.6321 45.736 19.8734 43.1092C17.4584 39.5056 15.7915 35.8624 15.109 32.6548C14.7415 30.9652 14.7809 26.926 15.1746 25.5004C15.9752 22.5964 17.104 20.6164 19.2302 18.4252C20.044 17.5804 20.7396 16.9336 20.779 16.9732C20.8184 17.0128 20.6871 17.422 20.5034 17.8708C20.3196 18.3328 20.0177 19.2832 19.8209 19.9828C19.519 21.1048 19.4796 21.4876 19.4665 23.362C19.4665 25.8172 19.6896 26.8204 20.6215 28.6684C21.6059 30.622 22.7477 32.0608 25.819 35.242C27.4334 36.9052 29.1134 38.7136 29.5202 39.2416C31.5415 41.776 32.3815 44.2576 32.014 46.528C31.8434 47.5708 31.3315 49.2076 31.2134 49.0756C31.1609 49.0096 30.9902 48.5872 30.8196 48.112C30.4259 46.99 29.6121 45.34 28.9427 44.35C28.1946 43.228 26.5934 41.6704 25.4384 40.9576C24.3621 40.2844 22.9971 39.6904 23.1677 39.9544C23.2202 40.0468 23.6009 40.6276 24.0077 41.248C24.9659 42.6868 25.8321 44.4424 26.3046 45.868C26.6459 46.8844 26.6721 47.1616 26.6721 48.838C26.6721 50.4616 26.6459 50.7784 26.3834 51.4384C25.9765 52.4548 25.084 53.6164 24.1784 54.3292C23.7715 54.646 23.509 54.9232 23.5877 54.9496C23.6665 54.976 24.4802 54.844 25.3859 54.646C33.9565 52.8376 39.2984 47.9272 40.4796 40.7332C40.7421 39.0964 40.6765 36.0868 40.3352 34.516C39.7709 31.942 38.839 29.764 37.2509 27.4012C35.689 25.0648 34.5734 22.3324 34.1665 19.864C33.799 17.5672 33.9696 14.4124 34.5471 12.7624C34.6521 12.4588 34.7046 12.208 34.6521 12.208C34.5996 12.208 33.9696 12.4984 33.2477 12.8548C30.9902 13.9768 29.284 15.6928 28.2209 17.9104C27.9584 18.478 27.709 18.94 27.6696 18.94C27.6302 18.94 27.6171 18.4252 27.6434 17.8048C27.6959 16.3396 27.4727 13.8316 27.1315 12.142C26.1471 7.27119 23.6665 3.27159 20.1752 0.948387C19.5584 0.539188 19.0071 0.195984 18.9677 0.195984C18.9284 0.195984 18.9677 0.433582 19.0727 0.737183ZM31.3446 24.5896C31.6465 25.936 32.5652 27.8896 33.8646 29.9752C35.2559 32.1928 35.4921 32.6152 35.8727 33.6448C36.8834 36.3376 36.844 39.2284 35.7677 41.974L35.3477 43.03L35.269 41.578C35.1377 39.2548 34.6521 38.278 32.1452 35.176C29.5727 31.9948 28.864 29.7112 29.4415 26.4244C29.6384 25.2496 30.1371 23.7448 30.5965 22.834L30.8721 22.306L30.9771 22.9C31.0427 23.23 31.2134 23.9824 31.3446 24.5896Z" fill="#121B60"/>
<path d="M140.808 27.982V39.664H143.302H145.796V27.982V16.3H143.302H140.808V27.982Z" fill="#121B60"/>
<path d="M129.821 17.356C126.631 17.7652 123.928 19.0852 122.051 21.1444C121.132 22.1344 120.082 24.1276 119.741 25.474C118.835 29.0644 119.399 32.8264 121.224 35.5324C122.431 37.3276 124.597 38.7796 126.933 39.3868C129.991 40.1788 134.008 40.0072 137.893 38.9248L138.706 38.7004V32.9056V27.124H134.638H130.569V29.038V30.952H132.275H133.981V33.262V35.5588L133.443 35.704C132.669 35.9152 130.372 35.8756 129.479 35.638C127.721 35.176 126.185 34.0144 125.411 32.5756C124.256 30.4108 124.256 26.8732 125.398 24.748C126.172 23.3224 127.944 22.0156 129.65 21.6064C131.409 21.184 133.916 21.316 135.819 21.9232C136.409 22.108 136.908 22.24 136.934 22.2136C137.039 22.0948 137.919 18.3856 137.866 18.2932C137.774 18.148 136.042 17.6464 135.031 17.488C133.784 17.29 130.91 17.224 129.821 17.356Z" fill="#121B60"/>
<path d="M56.8344 17.5012C56.0862 17.5672 55.2069 17.6596 54.8656 17.7256L54.2487 17.818L54.2094 28.7476L54.1831 39.664H56.6769H59.1706V35.6644V31.678L61.1787 31.6648C63.5412 31.6648 64.4337 31.48 66.1925 30.622C68.6075 29.4472 69.7756 27.6784 70.0381 24.8272L70.13 23.7976L73.1225 31.2952C74.7631 35.4268 76.1019 38.9512 76.1019 39.1492C76.1019 39.6112 75.4719 40.5484 74.7237 41.2216C74.0544 41.8156 72.7419 42.5152 72.0462 42.6472C71.7444 42.7132 71.6525 42.7924 71.6919 42.9508C71.7312 43.0696 71.9412 43.8748 72.1512 44.746C72.3744 45.6172 72.5975 46.462 72.6369 46.6336C72.755 47.0296 73.1487 47.0164 74.4744 46.5412C76.4037 45.868 78.0837 44.4952 79.37 42.5416C80.0919 41.4592 81.4175 38.7004 82.1919 36.694C82.52 35.8228 83.7012 32.5228 84.8169 29.368L86.825 23.626L84.3181 23.5864C82.94 23.5732 81.7456 23.5864 81.6669 23.6128C81.5881 23.6392 80.9319 26.0416 80.2362 28.9324C78.7531 35.044 78.8712 34.5688 78.7794 34.4896C78.74 34.45 78.5431 33.7636 78.3331 32.9848C78.0444 31.8364 76.3775 26.1736 75.695 23.9824L75.5506 23.56H72.8075H70.0644L69.9856 23.1904C69.9462 22.9924 69.8544 22.5964 69.7756 22.306C69.4081 20.788 67.9906 19.1116 66.4944 18.412C64.8669 17.6464 63.8431 17.4616 60.8769 17.422C59.3937 17.3956 57.5825 17.4352 56.8344 17.5012ZM63.4625 21.6592C64.5125 22.2004 64.985 22.8868 65.0506 24.0352C65.09 24.5236 65.0375 25.1572 64.9325 25.5136C64.7094 26.332 63.7906 27.256 62.9112 27.5728C62.2025 27.8236 60.0762 28.0084 59.5119 27.8632L59.1706 27.784V24.5632V21.3292L59.4725 21.2632C59.63 21.2368 60.4175 21.2236 61.2312 21.2368C62.57 21.2632 62.7669 21.3028 63.4625 21.6592Z" fill="#121B60"/>
<path d="M94.9079 23.362C93.6086 23.758 92.6636 24.5764 92.0336 25.8172C91.8498 26.1868 91.6661 26.464 91.6398 26.4244C91.6004 26.3848 91.5348 25.738 91.4823 24.9988L91.3904 23.626L89.2379 23.5864L87.0854 23.5468L87.1773 24.3652C87.2167 24.814 87.2561 28.444 87.2561 32.4172V39.664H89.7498H92.2436V35.2024C92.2436 30.358 92.2961 29.9092 92.9523 29.038C93.1361 28.8004 93.6217 28.4308 94.0154 28.2328C94.6586 27.9292 94.8948 27.8764 95.9186 27.8896L97.0998 27.9028V25.6192C97.0998 23.6524 97.0736 23.3092 96.8898 23.2432C96.5486 23.1112 95.4986 23.164 94.9079 23.362Z" fill="#121B60"/>
<path d="M103.769 23.296C100.317 23.89 98.0202 25.936 97.1409 29.236C96.7865 30.5692 96.8259 33.1036 97.2196 34.384C97.8365 36.3904 98.7815 37.684 100.396 38.74C103.861 40.9972 109.373 40.2052 111.828 37.1164C114.4 33.856 114.177 28.312 111.355 25.474C109.557 23.6788 106.591 22.8208 103.769 23.296ZM106.092 26.8732C106.919 27.0976 107.785 28.0876 108.126 29.1964C108.888 31.6516 108.415 34.5424 107.05 35.77C106.197 36.5488 105.042 36.6676 103.926 36.1C102.535 35.3872 101.735 33.0376 102.063 30.5824C102.443 27.7708 104.018 26.3056 106.092 26.8732Z" fill="#121B60"/>
<path d="M152.556 23.3092C151.427 23.4544 149.511 23.9956 148.815 24.352C148.225 24.6556 148.225 24.484 148.802 26.464C148.999 27.1504 149.222 27.7048 149.288 27.6916C149.353 27.6784 149.773 27.5068 150.233 27.322C153.33 26.0284 156.428 26.5828 156.48 28.4308L156.493 28.906L154.918 28.9984C151.388 29.1964 148.828 30.4108 147.791 32.3644C146.4 34.9912 147.332 38.2516 149.813 39.4792C151.834 40.4692 154.774 40.0732 156.388 38.5684C156.992 38.0008 156.992 38.0008 157.176 39.004L157.294 39.598L159.499 39.6376L161.704 39.664L161.625 39.1096C161.586 38.7928 161.52 36.3112 161.481 33.592C161.428 30.8728 161.336 28.3384 161.271 27.9688C160.851 25.7644 159.289 24.088 157.071 23.4808C156.165 23.2432 153.75 23.1376 152.556 23.3092ZM156.69 33.262C156.69 34.7272 156.467 35.3344 155.693 35.9152C154.328 36.9712 152.477 36.5752 152.083 35.1496C151.821 34.1728 152.333 33.0904 153.291 32.5888C153.855 32.2984 155.089 32.0344 155.942 32.0212L156.69 32.008V33.262Z" fill="#121B60"/>
<path d="M168.396 23.3092C166.808 23.5732 165.207 24.418 164.498 25.3552C163.776 26.3188 163.461 27.2296 163.461 28.444C163.461 29.4076 163.501 29.6584 163.816 30.2656C164.485 31.5592 165.785 32.5228 167.819 33.2488C169.04 33.6844 169.525 33.9352 169.985 34.3576C170.641 34.9912 170.365 36.0208 169.446 36.3772C168.528 36.7336 166.467 36.4564 164.774 35.77C164.341 35.5852 163.947 35.4928 163.895 35.5456C163.855 35.5984 163.632 36.3772 163.409 37.2616L163.015 38.8984L163.685 39.202C164.931 39.7432 166.31 39.9808 168.239 39.9808C171.586 39.9676 173.699 38.9512 174.657 36.9052C174.959 36.2584 174.998 36.0076 174.998 34.78C174.998 33.5392 174.959 33.328 174.644 32.734C173.975 31.4404 172.793 30.5692 170.733 29.8168C169.236 29.2756 168.528 28.8796 168.305 28.444C168.029 27.916 168.055 27.7312 168.436 27.2824C169.184 26.3848 171.008 26.4508 173.371 27.4408C173.555 27.52 173.646 27.2692 174.001 25.8568C174.473 23.956 174.526 24.1012 173.279 23.7052C171.73 23.2168 169.866 23.0584 168.396 23.3092Z" fill="#121B60"/>
<path d="M180.994 23.3092C179.406 23.5732 177.805 24.418 177.096 25.3552C176.374 26.3188 176.059 27.2296 176.059 28.444C176.059 29.4076 176.098 29.6584 176.413 30.2656C177.083 31.5592 178.382 32.5228 180.417 33.2488C181.637 33.6844 182.123 33.9352 182.582 34.3576C183.238 34.9912 182.963 36.0208 182.044 36.3772C181.125 36.7336 179.065 36.4564 177.372 35.77C176.938 35.5852 176.545 35.4928 176.492 35.5456C176.453 35.5984 176.23 36.3772 176.007 37.2616L175.613 38.8984L176.282 39.202C177.529 39.7432 178.907 39.9808 180.837 39.9808C184.183 39.9676 186.297 38.9512 187.255 36.9052C187.557 36.2584 187.596 36.0076 187.596 34.78C187.596 33.5392 187.557 33.328 187.242 32.734C186.572 31.4404 185.391 30.5692 183.33 29.8168C181.834 29.2756 181.125 28.8796 180.902 28.444C180.627 27.916 180.653 27.7312 181.033 27.2824C181.782 26.3848 183.606 26.4508 185.968 27.4408C186.152 27.52 186.244 27.2692 186.598 25.8568C187.071 23.956 187.123 24.1012 185.877 23.7052C184.328 23.2168 182.464 23.0584 180.994 23.3092Z" fill="#121B60"/>
</g>
<defs>
<clipPath id="clip0_73_92">
<rect width="189" height="54" fill="white" transform="translate(0.499512 0.5)"/>
</clipPath>
</defs>
</svg>
