<svg width="176" height="29" viewBox="0 0 176 29" fill="none" xmlns="http://www.w3.org/2000/svg">
<g clip-path="url(#clip0_73_90)">
<path d="M1.0309 27.0098V21.6743C4.02373 22.635 6.68807 23.1153 8.98743 23.1153C12.1773 23.1153 13.7614 22.2655 13.7614 20.5511C13.7676 20.2492 13.708 19.9497 13.5869 19.6738C13.4658 19.3979 13.2861 19.1525 13.0606 18.9549C12.6007 18.4893 11.3817 17.8612 9.41811 17.0483C5.92161 15.5851 3.62225 14.351 2.56381 13.3017C1.88741 12.6367 1.35459 11.837 0.999023 10.953C0.643454 10.069 0.472866 9.11989 0.498036 8.16575C0.498036 5.50541 1.51268 3.45843 3.52006 2.06915C5.49094 0.679861 8.08959 0 11.2722 0C13.0241 0 15.5716 0.317765 18.9002 0.982848V6.09659C16.7143 5.16362 14.3739 4.65716 12.0022 4.60385C9.00933 4.60385 7.52752 5.43151 7.52752 7.109C7.52752 7.72974 7.8195 8.21747 8.43267 8.62391C8.92174 8.93428 10.3087 9.61414 12.5569 10.6413C15.8125 12.0971 17.9732 13.3608 19.0608 14.4545C19.7028 15.1046 20.2052 15.8819 20.5368 16.7376C20.8684 17.5934 21.022 18.5092 20.9879 19.4278C21.0323 20.786 20.7029 22.13 20.0365 23.3097C19.3701 24.4893 18.3929 25.4582 17.214 26.1082C15.1848 27.3645 12.5423 28 9.30861 28C6.52061 27.999 3.74236 27.6666 1.0309 27.0098ZM25.1925 0.465556H32.6234V27.4384H25.1852L25.1925 0.465556ZM39.4485 27.4384V0.465556H58.5442V5.34284H46.624V11.4468H57.004V15.8955H46.624V22.2951H58.8508V27.4458L39.4485 27.4384ZM63.7196 27.4384V0.465556H73.3696L80.0633 17.706L86.9468 0.465556H96.1224V27.4384H89.0491V8.34309L81.2386 27.7192H76.6325L68.968 8.34309V27.4458H63.7123L63.7196 27.4384ZM102.94 27.4384V0.465556H122.029V5.34284H110.116V11.4468H120.488V15.8955H110.116V22.2951H122.35V27.4458L102.94 27.4384ZM127.248 27.4384V0.465556H135.861L145.022 18.5336V0.472949H150.278V27.4458H141.869L132.489 9.15598V27.4532L127.248 27.4384ZM155.555 27.0098V21.6743C158.519 22.635 161.176 23.1153 163.512 23.1153C166.695 23.1153 168.279 22.2655 168.279 20.5511C168.282 20.253 168.225 19.9575 168.111 19.6828C167.997 19.4081 167.828 19.1603 167.614 18.9549C167.133 18.4893 165.906 17.8612 163.943 17.0483C160.439 15.5999 158.147 14.3584 157.081 13.3017C156.401 12.6343 155.866 11.8311 155.509 10.9432C155.152 10.0552 154.982 9.10184 155.008 8.14357C155.008 5.49063 156.015 3.45843 158.023 2.06915C160.008 0.679861 162.592 0 165.768 0C167.585 0 169.899 0.280814 172.746 0.857219L173.403 0.982848V6.09659C171.217 5.16413 168.876 4.65769 166.505 4.60385C163.519 4.60385 162.03 5.43151 162.03 7.109C162.03 7.72974 162.322 8.21747 162.935 8.61652C163.417 8.9269 164.789 9.59936 167.096 10.6413C170.33 12.0897 172.483 13.3608 173.571 14.4545C174.212 15.105 174.713 15.8825 175.043 16.7383C175.374 17.5941 175.526 18.5097 175.491 19.4278C175.491 22.3542 174.25 24.5859 171.768 26.1082C169.702 27.3645 167.067 28 163.819 28C161.037 28 158.271 27.6601 155.555 27.0098Z" fill="#121B60"/>
</g>
<defs>
<clipPath id="clip0_73_90">
<rect width="175" height="29" fill="white" transform="translate(0.495605)"/>
</clipPath>
</defs>
</svg>
