<svg width="176" height="29" viewBox="0 0 176 29" fill="none" xmlns="http://www.w3.org/2000/svg">
<g clip-path="url(#clip0_73_90)">
<path d="M1.03481 27.0098V21.6743C4.02763 22.635 6.69198 23.1153 8.99134 23.1153C12.1813 23.1153 13.7653 22.2655 13.7653 20.5511C13.7715 20.2492 13.7119 19.9497 13.5908 19.6738C13.4697 19.3979 13.29 19.1525 13.0645 18.9549C12.6046 18.4893 11.3856 17.8612 9.42201 17.0483C5.92552 15.5851 3.62616 14.351 2.56772 13.3017C1.89132 12.6367 1.3585 11.837 1.00293 10.953C0.64736 10.069 0.476772 9.11989 0.501942 8.16575C0.501942 5.50541 1.51658 3.45843 3.52396 2.06915C5.49485 0.679861 8.09349 0 11.2761 0C13.028 0 15.5755 0.317765 18.9042 0.982848V6.09659C16.7182 5.16362 14.3778 4.65716 12.0061 4.60385C9.01324 4.60385 7.53143 5.43151 7.53143 7.109C7.53143 7.72974 7.82341 8.21747 8.43657 8.62391C8.92564 8.93428 10.3126 9.61414 12.5608 10.6413C15.8164 12.0971 17.9771 13.3608 19.0647 14.4545C19.7067 15.1046 20.2091 15.8819 20.5407 16.7376C20.8723 17.5934 21.0259 18.5092 20.9918 19.4278C21.0362 20.786 20.7068 22.13 20.0404 23.3097C19.374 24.4893 18.3968 25.4582 17.218 26.1082C15.1887 27.3645 12.5462 28 9.31252 28C6.52451 27.999 3.74626 27.6666 1.03481 27.0098ZM25.1964 0.465556H32.6273V27.4384H25.1891L25.1964 0.465556ZM39.4524 27.4384V0.465556H58.5481V5.34284H46.6279V11.4468H57.0079V15.8955H46.6279V22.2951H58.8547V27.4458L39.4524 27.4384ZM63.7235 27.4384V0.465556H73.3735L80.0672 17.706L86.9507 0.465556H96.1263V27.4384H89.053V8.34309L81.2425 27.7192H76.6364L68.9719 8.34309V27.4458H63.7162L63.7235 27.4384ZM102.944 27.4384V0.465556H122.032V5.34284H110.12V11.4468H120.492V15.8955H110.12V22.2951H122.354V27.4458L102.944 27.4384ZM127.252 27.4384V0.465556H135.865L145.026 18.5336V0.472949H150.282V27.4458H141.873L132.493 9.15598V27.4532L127.252 27.4384ZM155.559 27.0098V21.6743C158.523 22.635 161.18 23.1153 163.516 23.1153C166.699 23.1153 168.283 22.2655 168.283 20.5511C168.286 20.253 168.229 19.9575 168.115 19.6828C168.001 19.4081 167.832 19.1603 167.618 18.9549C167.136 18.4893 165.91 17.8612 163.947 17.0483C160.443 15.5999 158.151 14.3584 157.085 13.3017C156.405 12.6343 155.87 11.8311 155.513 10.9432C155.156 10.0552 154.986 9.10184 155.012 8.14357C155.012 5.49063 156.019 3.45843 158.027 2.06915C160.012 0.679861 162.596 0 165.771 0C167.589 0 169.903 0.280814 172.75 0.857219L173.407 0.982848V6.09659C171.221 5.16413 168.88 4.65769 166.509 4.60385C163.523 4.60385 162.034 5.43151 162.034 7.109C162.034 7.72974 162.326 8.21747 162.939 8.61652C163.421 8.9269 164.793 9.59936 167.1 10.6413C170.334 12.0897 172.487 13.3608 173.575 14.4545C174.216 15.105 174.717 15.8825 175.047 16.7383C175.378 17.5941 175.53 18.5097 175.494 19.4278C175.494 22.3542 174.254 24.5859 171.772 26.1082C169.706 27.3645 167.071 28 163.822 28C161.041 28 158.275 27.6601 155.559 27.0098Z" fill="#121B60"/>
</g>
<defs>
<clipPath id="clip0_73_90">
<rect width="175" height="29" fill="white" transform="translate(0.499512)"/>
</clipPath>
</defs>
</svg>
