<svg width="134" height="35" viewBox="0 0 134 35" fill="none" xmlns="http://www.w3.org/2000/svg">
<g clip-path="url(#clip0_171_14)">
<path d="M27.1112 -0.114864C24.8647 0.0600243 24.3191 0.344223 23.1476 1.8308C22.1848 3.05503 21.896 3.82018 20.6925 8.21431C18.5743 15.9969 18.3978 17.0681 18.9915 18.8171C19.2964 19.7571 20.0827 20.7846 20.7567 21.1562C20.9974 21.2874 23.6611 21.4404 26.7421 21.5279C30.6254 21.6153 32.3745 21.7465 32.5029 21.9214C32.6313 22.0963 32.5992 22.5116 32.3424 23.5828C31.7969 25.769 31.7808 25.7908 30.0478 25.9657C29.2294 26.0313 25.6509 26.1187 22.1207 26.1187L15.6698 26.1406L14.9477 28.8077C13.5998 33.8577 13.5035 34.2293 13.6159 34.4042C13.68 34.4916 18.3015 34.5572 23.8698 34.5572C34.7816 34.5572 34.6371 34.5791 35.9048 33.3986C36.8676 32.5241 37.5576 31.0157 38.5205 27.6709C40.0449 22.293 40.8312 18.9701 40.8312 17.7896C40.8312 15.9532 40.2054 14.4666 39.066 13.6796C38.5686 13.3517 37.7983 13.2861 32.888 13.155C29.8071 13.0675 27.2075 12.8926 27.1272 12.7833C26.9347 12.5429 27.3679 10.6409 27.8814 9.41668L28.2505 8.54223L35.5678 8.43292C39.5956 8.36734 42.9173 8.27989 42.9654 8.21431C43.158 7.93011 45.1638 0.0600243 45.0836 -0.0711441C44.9392 -0.246033 29.4701 -0.289757 27.1112 -0.114864Z" fill="#121B60"/>
<path d="M48.0523 -0.114887L47.3302 0.0162773L46.3353 3.64526C45.7898 5.63465 45.2923 7.53658 45.2442 7.84264L45.1318 8.4329L49.0472 8.47662L52.9627 8.5422L49.5287 21.4185C46.8328 31.5622 46.1428 34.3386 46.3193 34.4916C46.56 34.7321 53.6848 34.5353 53.8292 34.273C53.8934 34.1856 55.482 28.3486 57.3595 21.2655L60.7774 8.4329H64.8052H68.8329L69.9401 4.25738C70.5339 1.96194 70.9832 0.0381393 70.919 -0.049305C70.7746 -0.246056 49.0152 -0.311642 48.0523 -0.114887Z" fill="#121B60"/>
<path d="M74.7541 -0.158566L73.4383 -0.0711174L68.865 17.1119C66.3296 26.5779 64.3077 34.3824 64.3558 34.4479C64.404 34.5135 66.1531 34.5573 68.2391 34.5573H72.0262L76.6316 17.2868C80.5631 2.53038 81.1889 -0.00553513 80.9642 -0.136703C80.7075 -0.289734 77.2414 -0.289734 74.7541 -0.158566Z" fill="#121B60"/>
<path d="M87.9284 -0.158619L86.6446 -0.0711708L82.0553 17.1337L77.4819 34.3386L77.8831 34.4698C78.1078 34.5572 79.7606 34.6228 81.5578 34.6446L84.8153 34.6665L85.1042 33.7265C85.2486 33.2237 86.099 30.0975 86.9656 26.7964C87.8321 23.4954 88.6184 20.6534 88.7147 20.4785C88.8591 20.238 89.6454 20.2162 93.3041 20.3473C95.7271 20.4348 97.733 20.5222 97.7651 20.5659C97.7971 20.5878 97.0109 23.6921 96.016 27.4304C95.0371 31.1906 94.2829 34.3167 94.3471 34.4042C94.5076 34.6228 101.664 34.5135 101.809 34.2949C102.05 33.9669 110.988 0.103718 110.891 -0.0274506C110.715 -0.267925 107.168 -0.333508 105.179 -0.158619L103.349 0.0162735L101.729 6.02814L100.124 12.04L95.5185 12.1056C92.9671 12.1275 90.897 12.1275 90.897 12.1056C90.897 12.0619 91.6191 9.32921 92.5017 6.02814C93.3682 2.72708 94.0582 -0.00558853 94.0101 -0.0930328C93.8978 -0.224201 89.7738 -0.267925 87.9284 -0.158619Z" fill="#121B60"/>
<path d="M115.689 2.46477C113.041 12.2805 107.265 34.0544 107.265 34.2074C107.265 34.6009 110.362 34.6884 120.824 34.6228L131.415 34.5572L132.49 30.5129C133.084 28.283 133.581 26.4029 133.581 26.2936C133.581 26.2062 129.939 26.1406 125.494 26.1406C121.033 26.1406 117.358 26.075 117.326 25.9657C117.294 25.8783 117.615 24.4791 118.048 22.8614C121.225 11.1 124.098 0.0381584 124.017 -0.0711479C123.969 -0.13673 122.252 -0.224178 120.182 -0.267899L116.459 -0.333485L115.689 2.46477Z" fill="#121B60"/>
</g>
<defs>
<clipPath id="clip0_171_14">
<rect width="134" height="35" fill="white"/>
</clipPath>
</defs>
</svg>
