<svg width="221" height="45" viewBox="0 0 221 45" fill="none" xmlns="http://www.w3.org/2000/svg">
<g clip-path="url(#clip0_73_119)">
<path d="M25.5319 0.646656C25.2239 0.734657 24.7693 0.895992 24.5199 1.02799C23.8306 1.39466 4.42661 15.0933 3.97195 15.5333C3.13595 16.384 3.10661 17.5427 3.91328 18.4373C4.16261 18.7307 7.28661 21.0187 10.8359 23.5267C14.3853 26.0347 17.3039 28.132 17.3333 28.1907C17.3479 28.264 16.3506 29.0267 15.0893 29.892C13.8426 30.772 12.8599 31.5493 12.9039 31.608C13.0213 31.8133 13.9599 32.2533 15.0893 32.6347C16.4533 33.0893 19.1959 33.1333 20.4426 32.708C22.5986 31.9747 24.2853 30.5667 24.7693 29.0853C25.2533 27.6627 24.8279 26.1667 23.6399 25.052C23.3759 24.788 20.8533 22.9547 18.0226 20.96C15.2066 18.9653 12.8013 17.264 12.7133 17.1613C12.5666 17.0293 14.0773 15.9 19.4159 12.116C23.1999 9.44666 26.3679 7.24666 26.4706 7.24666C26.6026 7.24666 36.3559 14.0373 36.7666 14.4187C36.8253 14.4773 35.8573 15.24 34.5959 16.12C33.3493 16.9853 32.3226 17.7627 32.3226 17.836C32.3226 18.056 34.1853 18.8333 35.2413 19.068C37.9253 19.6253 41.0639 18.8773 42.9119 17.2347C44.8919 15.4747 44.8773 12.7467 42.9119 11.06C41.7093 10.0187 29.3453 1.35066 28.5826 0.998657C27.7319 0.617325 26.3386 0.45599 25.5319 0.646656Z" fill="#121B60"/>
<path d="M133.229 17.9973C133.229 31.432 133.2 30.9773 134.285 32.0627C135.444 33.2213 135.693 33.28 140.313 33.324L144.376 33.368V30.288V27.1933H142.19H139.99L139.697 26.812C139.404 26.4307 139.389 26.2547 139.389 22.192V17.9533H141.882H144.376V14.7267V11.5H141.882H139.389V8.78666V6.07333H136.309H133.229V17.9973Z" fill="#121B60"/>
<path d="M50.1427 11.7493C50.2747 12.0867 57.828 32.4147 58.0187 32.9573L58.1653 33.3533L61.1867 33.324L64.208 33.28L68.212 22.7933C70.412 17.0293 72.2747 12.1307 72.348 11.896L72.4947 11.5H69.092H65.6893L63.4893 17.8067C62.2867 21.268 61.2747 24.0693 61.2307 24.0253C61.1867 23.996 60.1893 21.1653 59.0013 17.7627L56.86 11.5733L53.4427 11.5293C50.2307 11.5 50.04 11.5147 50.1427 11.7493Z" fill="#121B60"/>
<path d="M76.8652 11.6613C75.5012 11.984 74.5919 12.732 73.9906 13.9933L73.6092 14.8L73.5652 22.1333C73.5066 30.7867 73.5212 30.8307 74.7679 32.1213C75.9706 33.3533 76.0146 33.3533 83.2892 33.3533C90.3879 33.3533 90.4172 33.3533 91.5906 32.18C92.8372 30.9333 92.8226 31.0213 92.8226 22.5C92.8226 15.7387 92.7932 15.02 92.5586 14.3307C92.2066 13.3187 91.3266 12.3507 90.3732 11.9253C89.5959 11.5733 89.5812 11.5733 83.5092 11.544C80.1652 11.5293 77.1732 11.588 76.8652 11.6613ZM85.8706 17.9533C86.7212 18.188 86.7506 18.4227 86.7066 22.6907C86.6626 26.064 86.6332 26.4747 86.3986 26.7093C86.1786 26.944 85.7972 26.9733 83.4799 27.0173C80.5172 27.076 80.1066 26.988 79.8572 26.284C79.7546 26.0053 79.6959 24.4507 79.6959 22.368C79.6959 18.6573 79.7546 18.3347 80.4292 17.9973C80.8839 17.7627 85.0932 17.7333 85.8706 17.9533Z" fill="#121B60"/>
<path d="M99.1 11.72C97.56 12.1453 96.636 13.04 96.1813 14.5213C95.8733 15.5627 95.8733 29.452 96.196 30.5227C96.504 31.5493 97.12 32.3267 98.044 32.84L98.836 33.28L105.407 33.324L111.977 33.368L112.813 32.9867C113.84 32.5173 114.236 32.1507 114.691 31.2707C115.292 30.0973 115.365 28.9973 115.307 21.8107C115.248 15.1667 115.248 15.0787 114.911 14.2133C114.485 13.1427 113.605 12.2333 112.608 11.852C111.963 11.6027 111.332 11.5733 105.876 11.544C101.021 11.5147 99.716 11.5587 99.1 11.72ZM108.721 18.1587C109.015 18.4373 109.029 18.5547 109.029 22.4267C109.029 26.2987 109.015 26.416 108.721 26.6947C108.443 26.944 108.164 26.9733 105.553 26.9733C102.723 26.9733 102.693 26.9733 102.415 26.6213C102.151 26.3133 102.136 26.0053 102.136 22.4707C102.136 20.0653 102.195 18.5547 102.297 18.3787C102.561 17.88 103.001 17.8067 105.744 17.8507C108.135 17.88 108.443 17.9093 108.721 18.1587Z" fill="#121B60"/>
<path d="M121.349 11.7347C119.78 12.16 118.914 13.04 118.489 14.6827C118.298 15.3867 118.269 17.0147 118.269 24.436V33.3533H121.349H124.429V26.0347C124.429 18.8627 124.429 18.716 124.737 18.3347L125.03 17.9533H127.67H130.296V14.7267V11.5L126.233 11.5147C123.124 11.5147 121.965 11.5733 121.349 11.7347Z" fill="#121B60"/>
<path d="M179.576 14.7267V17.9533H185.369H191.177L191.544 18.32C191.866 18.6427 191.91 18.7893 191.866 19.6107L191.822 20.52L186.762 20.5933C181.805 20.6667 181.688 20.6667 180.998 21.0187C180.089 21.4733 179.385 22.3093 179.048 23.3507C178.813 24.0547 178.769 24.6267 178.784 27.0467C178.798 30.7133 179.077 31.6667 180.441 32.6493C181.424 33.3533 181.688 33.368 188.669 33.324L195.196 33.28L195.973 32.8547C196.897 32.3413 197.542 31.52 197.88 30.42C198.1 29.7013 198.129 28.792 198.129 22.5C198.129 16.208 198.1 15.2987 197.88 14.58C197.498 13.348 196.882 12.6147 195.738 12.0573L194.756 11.5733L187.173 11.5293L179.576 11.4853V14.7267ZM191.72 25.6093C191.998 25.888 191.954 28 191.661 28.2787C191.47 28.484 190.972 28.5133 188.449 28.5133C184.929 28.5133 185.002 28.5427 185.002 26.9293C185.002 25.36 184.826 25.4333 188.42 25.4333C190.649 25.4333 191.588 25.4773 191.72 25.6093Z" fill="#121B60"/>
<path d="M204.494 11.6907C203.086 12.0867 202.221 12.8053 201.62 14.0813C201.37 14.6093 201.356 15.3133 201.312 23.996L201.268 33.3533H204.362H207.442V25.9613C207.442 18.9067 207.457 18.5547 207.721 18.232C208 17.88 208.044 17.88 210.786 17.88C213.324 17.88 213.602 17.9093 213.881 18.1587C214.189 18.4373 214.189 18.496 214.189 25.9027V33.3533H217.342H220.496V24.876C220.496 19.8013 220.437 16.032 220.349 15.46C220.056 13.5973 219.176 12.3947 217.724 11.8373C217.122 11.6173 216.36 11.5733 211.109 11.544C206.694 11.5147 204.993 11.5587 204.494 11.6907Z" fill="#121B60"/>
<path d="M149.846 11.9107C148.717 12.3067 148.13 12.8347 147.573 13.9493L147.089 14.9467L147.045 24.1427L147.001 33.3533H150.081H153.161L153.205 25.932L153.249 18.5107L153.601 18.232C153.894 17.9827 154.188 17.9533 156.124 17.9533H158.309V25.6533V33.3533H161.462H164.616V25.6533V17.9533H166.874C168.869 17.9533 169.162 17.9827 169.47 18.232L169.822 18.5107L169.866 25.932L169.91 33.3533H172.917H175.924L175.88 24.216C175.836 15.328 175.821 15.0787 175.528 14.3453C175.058 13.216 174.501 12.5853 173.592 12.1307L172.756 11.72L161.682 11.6907C151.357 11.6613 150.565 11.676 149.846 11.9107Z" fill="#121B60"/>
<path d="M25.8547 12.072C23.7573 12.3653 21.6893 13.3773 20.8093 14.5213C19.9293 15.6653 19.6507 17.0587 20.076 18.232C20.56 19.6107 20.912 19.9187 26.588 23.9373C29.58 26.064 32.0587 27.8533 32.088 27.912C32.132 27.9707 29.0667 30.244 25.2827 32.972L18.3893 37.9147L13.3733 34.3653C10.6013 32.4147 8.28401 30.772 8.22534 30.7133C8.15201 30.64 9.00268 29.9507 10.1027 29.1587C13.0507 27.0467 12.816 27.3107 12.156 26.9147C10.5133 25.9467 8.02001 25.5507 5.96668 25.9173C1.22934 26.7827 -0.985323 30.7427 1.71334 33.5587C2.56401 34.4533 15.3387 43.5907 16.4533 44.104C17.392 44.544 19.2107 44.544 20.1493 44.1187C20.9413 43.752 40.0813 30.3173 40.8733 29.5547C41.9147 28.5573 41.8853 27.3693 40.7853 26.372C40.4333 26.0493 37.3093 23.7907 33.8187 21.3267C30.3427 18.8627 27.4973 16.824 27.4973 16.78C27.4973 16.736 28.5093 15.988 29.756 15.1227C31.0027 14.2427 32.0293 13.48 32.0293 13.4213C32.0293 13.2453 30.152 12.4093 29.3893 12.248C28.3773 12.028 26.764 11.9547 25.8547 12.072Z" fill="#121B60"/>
</g>
<defs>
<clipPath id="clip0_73_119">
<rect width="220" height="44" fill="white" transform="translate(0.495605 0.5)"/>
</clipPath>
</defs>
</svg>
