<svg width="221" height="45" viewBox="0 0 221 45" fill="none" xmlns="http://www.w3.org/2000/svg">
<g clip-path="url(#clip0_73_119)">
<path d="M25.5359 0.646671C25.2279 0.734673 24.7732 0.896008 24.5239 1.02801C23.8345 1.39467 4.43052 15.0933 3.97585 15.5333C3.13985 16.384 3.11052 17.5427 3.91719 18.4373C4.16652 18.7307 7.29052 21.0187 10.8399 23.5267C14.3892 26.0347 17.3079 28.132 17.3372 28.1907C17.3519 28.264 16.3545 29.0267 15.0932 29.892C13.8465 30.772 12.8639 31.5493 12.9079 31.608C13.0252 31.8133 13.9639 32.2533 15.0932 32.6347C16.4572 33.0893 19.1999 33.1333 20.4465 32.708C22.6025 31.9747 24.2892 30.5667 24.7732 29.0853C25.2572 27.6627 24.8319 26.1667 23.6439 25.052C23.3799 24.788 20.8572 22.9547 18.0265 20.96C15.2105 18.9653 12.8052 17.264 12.7172 17.1613C12.5705 17.0293 14.0812 15.9 19.4199 12.116C23.2039 9.44667 26.3719 7.24667 26.4745 7.24667C26.6065 7.24667 36.3599 14.0373 36.7705 14.4187C36.8292 14.4773 35.8612 15.24 34.5999 16.12C33.3532 16.9853 32.3265 17.7627 32.3265 17.836C32.3265 18.056 34.1892 18.8333 35.2452 19.068C37.9292 19.6253 41.0679 18.8773 42.9159 17.2347C44.8959 15.4747 44.8812 12.7467 42.9159 11.06C41.7132 10.0187 29.3492 1.35067 28.5865 0.998672C27.7359 0.61734 26.3425 0.456005 25.5359 0.646671Z" fill="#121B60"/>
<path d="M133.233 17.9973C133.233 31.432 133.204 30.9773 134.289 32.0626C135.448 33.2213 135.697 33.28 140.317 33.324L144.38 33.368V30.288V27.1933H142.194H139.994L139.701 26.812C139.408 26.4306 139.393 26.2546 139.393 22.192V17.9533H141.886H144.38V14.7266V11.5H141.886H139.393V8.78665V6.07331H136.313H133.233V17.9973Z" fill="#121B60"/>
<path d="M50.1466 11.7493C50.2786 12.0867 57.8319 32.4147 58.0226 32.9573L58.1693 33.3533L61.1906 33.324L64.2119 33.28L68.2159 22.7933C70.4159 17.0293 72.2786 12.1307 72.3519 11.896L72.4986 11.5H69.0959H65.6933L63.4933 17.8067C62.2906 21.268 61.2786 24.0693 61.2346 24.0253C61.1906 23.996 60.1933 21.1653 59.0053 17.7627L56.8639 11.5733L53.4466 11.5293C50.2346 11.5 50.0439 11.5147 50.1466 11.7493Z" fill="#121B60"/>
<path d="M76.8691 11.6613C75.5051 11.984 74.5958 12.732 73.9945 13.9933L73.6131 14.8L73.5691 22.1333C73.5105 30.7867 73.5251 30.8307 74.7718 32.1213C75.9745 33.3533 76.0185 33.3533 83.2931 33.3533C90.3918 33.3533 90.4211 33.3533 91.5945 32.18C92.8411 30.9333 92.8265 31.0213 92.8265 22.5C92.8265 15.7387 92.7971 15.02 92.5625 14.3307C92.2105 13.3187 91.3305 12.3507 90.3771 11.9253C89.5998 11.5733 89.5851 11.5733 83.5131 11.544C80.1691 11.5293 77.1771 11.588 76.8691 11.6613ZM85.8745 17.9533C86.7251 18.188 86.7545 18.4227 86.7105 22.6907C86.6665 26.064 86.6371 26.4747 86.4025 26.7093C86.1825 26.944 85.8011 26.9733 83.4838 27.0173C80.5211 27.076 80.1105 26.988 79.8611 26.284C79.7585 26.0053 79.6998 24.4507 79.6998 22.368C79.6998 18.6573 79.7585 18.3347 80.4331 17.9973C80.8878 17.7627 85.0971 17.7333 85.8745 17.9533Z" fill="#121B60"/>
<path d="M99.1039 11.72C97.5639 12.1453 96.6399 13.04 96.1853 14.5213C95.8773 15.5626 95.8773 29.452 96.1999 30.5226C96.5079 31.5493 97.1239 32.3266 98.0479 32.84L98.8399 33.28L105.411 33.324L111.981 33.368L112.817 32.9866C113.844 32.5173 114.24 32.1506 114.695 31.2706C115.296 30.0973 115.369 28.9973 115.311 21.8106C115.252 15.1666 115.252 15.0786 114.915 14.2133C114.489 13.1426 113.609 12.2333 112.612 11.852C111.967 11.6026 111.336 11.5733 105.88 11.544C101.025 11.5146 99.7199 11.5586 99.1039 11.72ZM108.725 18.1586C109.019 18.4373 109.033 18.5546 109.033 22.4266C109.033 26.2986 109.019 26.416 108.725 26.6946C108.447 26.944 108.168 26.9733 105.557 26.9733C102.727 26.9733 102.697 26.9733 102.419 26.6213C102.155 26.3133 102.14 26.0053 102.14 22.4706C102.14 20.0653 102.199 18.5546 102.301 18.3786C102.565 17.88 103.005 17.8066 105.748 17.8506C108.139 17.88 108.447 17.9093 108.725 18.1586Z" fill="#121B60"/>
<path d="M121.353 11.7347C119.784 12.16 118.918 13.04 118.493 14.6827C118.302 15.3867 118.273 17.0147 118.273 24.436V33.3533H121.353H124.433V26.0347C124.433 18.8627 124.433 18.716 124.741 18.3347L125.034 17.9533H127.674H130.3V14.7267V11.5L126.237 11.5147C123.128 11.5147 121.969 11.5733 121.353 11.7347Z" fill="#121B60"/>
<path d="M179.58 14.7266V17.9533H185.373H191.181L191.548 18.32C191.87 18.6426 191.914 18.7893 191.87 19.6106L191.826 20.52L186.766 20.5933C181.809 20.6666 181.692 20.6666 181.002 21.0186C180.093 21.4733 179.389 22.3093 179.052 23.3506C178.817 24.0546 178.773 24.6266 178.788 27.0466C178.802 30.7133 179.081 31.6666 180.445 32.6493C181.428 33.3533 181.692 33.368 188.673 33.324L195.2 33.28L195.977 32.8546C196.901 32.3413 197.546 31.52 197.884 30.42C198.104 29.7013 198.133 28.792 198.133 22.5C198.133 16.208 198.104 15.2986 197.884 14.58C197.502 13.348 196.886 12.6146 195.742 12.0573L194.76 11.5733L187.177 11.5293L179.58 11.4853V14.7266ZM191.724 25.6093C192.002 25.888 191.958 28 191.665 28.2786C191.474 28.484 190.976 28.5133 188.453 28.5133C184.933 28.5133 185.006 28.5426 185.006 26.9293C185.006 25.36 184.83 25.4333 188.424 25.4333C190.653 25.4333 191.592 25.4773 191.724 25.6093Z" fill="#121B60"/>
<path d="M204.498 11.6907C203.09 12.0867 202.225 12.8053 201.623 14.0813C201.374 14.6093 201.359 15.3133 201.315 23.996L201.271 33.3533H204.366H207.446V25.9613C207.446 18.9067 207.461 18.5547 207.725 18.232C208.003 17.88 208.047 17.88 210.79 17.88C213.327 17.88 213.606 17.9093 213.885 18.1587C214.193 18.4373 214.193 18.496 214.193 25.9027V33.3533H217.346H220.499V24.876C220.499 19.8013 220.441 16.032 220.353 15.46C220.059 13.5973 219.179 12.3947 217.727 11.8373C217.126 11.6173 216.363 11.5733 211.113 11.544C206.698 11.5147 204.997 11.5587 204.498 11.6907Z" fill="#121B60"/>
<path d="M149.85 11.9107C148.721 12.3067 148.134 12.8347 147.577 13.9493L147.093 14.9467L147.049 24.1427L147.005 33.3533H150.085H153.165L153.209 25.932L153.253 18.5107L153.605 18.232C153.898 17.9827 154.192 17.9533 156.128 17.9533H158.313V25.6533V33.3533H161.466H164.62V25.6533V17.9533H166.878C168.873 17.9533 169.166 17.9827 169.474 18.232L169.826 18.5107L169.87 25.932L169.914 33.3533H172.921H175.928L175.884 24.216C175.84 15.328 175.825 15.0787 175.532 14.3453C175.062 13.216 174.505 12.5853 173.596 12.1307L172.76 11.72L161.686 11.6907C151.361 11.6613 150.569 11.676 149.85 11.9107Z" fill="#121B60"/>
<path d="M25.8586 12.072C23.7612 12.3653 21.6933 13.3773 20.8132 14.5213C19.9333 15.6653 19.6546 17.0587 20.0799 18.232C20.5639 19.6107 20.9159 19.9187 26.5919 23.9373C29.5839 26.064 32.0626 27.8533 32.0919 27.912C32.1359 27.9707 29.0706 30.244 25.2866 32.972L18.3932 37.9147L13.3773 34.3653C10.6053 32.4147 8.28792 30.772 8.22925 30.7133C8.15592 30.64 9.00658 29.9507 10.1066 29.1587C13.0546 27.0467 12.8199 27.3107 12.1599 26.9147C10.5173 25.9467 8.02392 25.5507 5.97058 25.9173C1.23325 26.7827 -0.981417 30.7427 1.71725 33.5587C2.56792 34.4533 15.3426 43.5907 16.4572 44.104C17.3959 44.544 19.2146 44.544 20.1532 44.1187C20.9452 43.752 40.0853 30.3173 40.8773 29.5547C41.9186 28.5573 41.8893 27.3693 40.7892 26.372C40.4373 26.0493 37.3133 23.7907 33.8226 21.3267C30.3466 18.8627 27.5012 16.824 27.5012 16.78C27.5012 16.736 28.5133 15.988 29.7599 15.1227C31.0066 14.2427 32.0333 13.48 32.0333 13.4213C32.0333 13.2453 30.1559 12.4093 29.3932 12.248C28.3813 12.028 26.7679 11.9547 25.8586 12.072Z" fill="#121B60"/>
</g>
<defs>
<clipPath id="clip0_73_119">
<rect width="220" height="44" fill="white" transform="translate(0.499512 0.5)"/>
</clipPath>
</defs>
</svg>
