<svg width="257" height="57" viewBox="0 0 257 57" fill="none" xmlns="http://www.w3.org/2000/svg">
<g clip-path="url(#clip0_73_131)">
<path d="M38.3413 4.20793C36.08 6.48363 34.2026 8.58759 34.2026 8.84522C34.2026 9.14578 35.824 10.8204 37.7866 12.6237C42.6506 17.0463 42.992 17.0463 47.728 12.3232L51.312 8.80228L46.9173 4.37968L42.5226 1.81198e-05L38.3413 4.20793Z" fill="#121B60"/>
<path d="M59.0348 4.37967L54.6401 8.8452L58.2668 12.3661C63.1735 17.1322 63.5148 17.1322 68.2508 12.3232L71.7495 8.75933L67.6108 4.33673L63.4295 -0.0858707L59.0348 4.37967Z" fill="#121B60"/>
<path d="M89.0721 0.558189C88.5601 0.94463 88.3468 1.54576 88.4748 2.57627C88.6454 4.50847 90.4374 5.32429 91.8028 4.07909C94.0214 2.06101 91.5041 -1.20226 89.0721 0.558189ZM91.4188 0.858754C93.0828 1.76045 91.9734 4.07909 90.0108 3.77853C88.7308 3.60678 88.3894 1.80339 89.4988 0.987568C90.3948 0.300562 90.3521 0.300562 91.4188 0.858754Z" fill="#121B60"/>
<path d="M89.7123 2.44746C89.7123 3.13446 89.8403 3.39209 89.9683 3.09152C90.0963 2.70508 90.3523 2.66215 90.6936 2.96271C91.0349 3.26328 91.2056 3.09152 91.2909 2.31864C91.3336 1.54576 91.1629 1.28814 90.5229 1.28814C89.8829 1.28814 89.6696 1.54576 89.7123 2.44746Z" fill="#121B60"/>
<path d="M28.1016 14.5989C25.8402 16.9605 23.9629 19.0644 23.9629 19.2791C23.9629 19.4938 25.4989 21.1254 27.4189 22.9288C32.1549 27.4373 32.6669 27.4373 37.4882 22.6283L41.0722 19.1074L36.6349 14.6848L32.2402 10.2622L28.1016 14.5989Z" fill="#121B60"/>
<path d="M48.624 14.7706L44.4854 19.1932L47.984 22.6712C52.72 27.4373 53.1467 27.4373 58.0534 22.7571L61.5947 19.322L57.4134 14.8136C55.152 12.3232 53.1467 10.3051 53.0187 10.3051C52.8907 10.3051 50.8854 12.3232 48.624 14.7706Z" fill="#121B60"/>
<path d="M69.275 14.7277L64.8804 19.1503L68.4644 22.6712C73.2857 27.3944 73.6697 27.3944 78.5764 22.8L82.203 19.4509L79.131 16.0588C77.467 14.2124 75.547 12.1514 74.8644 11.5074L73.627 10.3051L69.275 14.7277Z" fill="#121B60"/>
<path d="M17.648 25.0757C15.472 27.2656 13.7227 29.2836 13.7227 29.4983C13.7227 29.713 15.344 31.3876 17.3067 33.191C22.1707 37.6565 22.4693 37.6565 27.2053 32.9763L30.832 29.4554L26.6507 25.2475C24.3467 22.9288 22.256 21.0396 22.0427 21.0396C21.7867 21.0396 19.7813 22.843 17.648 25.0757Z" fill="#121B60"/>
<path d="M79.3018 25.2475L75.1631 29.4124L78.6618 32.9333C83.6111 37.7853 83.8244 37.8283 88.8591 33.1051L92.7418 29.4124L88.4751 25.2045C86.0858 22.9288 83.9951 21.0396 83.8244 21.0396C83.6111 21.0396 81.6058 22.9288 79.3018 25.2475Z" fill="#121B60"/>
<path d="M129.477 34.6509C127.813 38.3865 125.765 42.9379 124.912 44.7413L123.418 48.0904H124.656C125.765 48.0904 126.064 47.7898 127.216 45.5141L128.538 42.8949L132.89 43.0237L137.242 43.1526L138.394 45.6L139.589 48.0904H141.893H144.24L144.666 45.8147C144.922 44.6124 145.434 41.7785 145.818 39.5887C146.202 37.3989 146.672 35.7243 146.885 35.939C147.056 36.1107 148.336 38.8588 149.701 41.9932C151.066 45.1706 152.346 47.7469 152.56 47.704C152.773 47.704 154.096 44.9989 155.546 41.6927C156.954 38.3865 158.277 35.6384 158.405 35.6384C158.533 35.6384 159.13 38.3865 159.685 41.7356L160.752 47.8757L162.032 48.0045L163.354 48.1333L161.392 38.043C160.325 32.504 159.301 28.0814 159.13 28.2531C158.96 28.4249 157.509 31.6023 155.888 35.3379C154.266 39.0735 152.773 42.165 152.56 42.2079C152.389 42.2509 150.853 39.1593 149.232 35.3379C147.568 31.5164 146.074 28.2961 145.946 28.1243C145.776 27.9955 144.88 32.1605 143.856 37.3559C142.874 42.5514 141.936 46.8023 141.765 46.8023C141.637 46.8023 139.589 42.5514 137.285 37.3559C134.938 32.1605 132.933 27.9096 132.762 27.9096C132.634 27.9096 131.141 30.9582 129.477 34.6509ZM134.597 37.0124L136.133 40.5763L134.426 40.7051C133.53 40.791 132.037 40.791 131.141 40.7051L129.477 40.5763L130.97 37.0124C131.781 35.0802 132.592 33.4915 132.762 33.4915C132.933 33.4915 133.786 35.0802 134.597 37.0124Z" fill="#121B60"/>
<path d="M169.839 28.5107C163.738 30.7006 161.178 38.1288 164.634 43.7108C166.938 47.4893 172.015 49.4215 176.069 48.0904C179.439 46.974 182.213 43.2384 182.255 39.8034V38.2147H178.415C174.618 38.2147 174.575 38.2147 174.575 39.2882C174.575 40.3187 174.703 40.3616 177.135 40.3616C180.037 40.3616 180.25 40.7051 178.757 42.9379C177.135 45.2995 175.642 46.1582 173.125 46.1582C169.029 46.1582 165.999 43.0667 165.701 38.6011C165.53 36.4972 165.701 35.8102 166.639 34.1785C168.175 31.5164 170.309 30.2712 173.381 30.2712C175.429 30.2712 176.111 30.4859 177.818 31.6882C179.781 33.1051 179.823 33.1051 180.634 32.2893C181.487 31.4735 181.487 31.4305 179.951 30.2712C177.007 27.9955 173.082 27.3085 169.839 28.5107Z" fill="#121B60"/>
<path d="M200.688 28.9831C197.061 30.8294 195.056 34.1785 195.056 38.3435C195.056 42.5085 197.104 45.7718 200.816 47.4893C208.069 50.9243 215.962 45.5571 215.45 37.5706C215.109 32.1175 211.226 28.296 205.765 27.9955C203.376 27.8667 202.608 28.0384 200.688 28.9831ZM209.136 31.1299C212.592 32.9333 214.085 38.2147 212.165 41.9503C208.965 48.3051 199.152 47.0599 197.701 40.1898C196.25 33.2768 202.949 27.9096 209.136 31.1299Z" fill="#121B60"/>
<path d="M101.744 29.713C102.043 30.4859 103.835 35.0373 105.712 39.8034C107.547 44.6124 109.168 48.5198 109.296 48.5198C109.424 48.5198 110.662 45.4283 112.07 41.6497C113.478 37.8712 114.715 34.7797 114.843 34.7797C114.971 34.7797 116.208 37.8712 117.616 41.6497C119.024 45.4283 120.262 48.5198 120.39 48.5198C120.56 48.5198 126.918 32.7616 128.454 28.6825C128.539 28.4678 127.942 28.339 127.174 28.4249C125.766 28.5537 125.766 28.5966 123.163 35.2949C121.755 39.0305 120.518 42.0791 120.39 42.0791C120.262 42.0791 119.024 38.9876 117.616 35.2091C116.208 31.4305 114.971 28.339 114.843 28.339C114.715 28.339 113.478 31.4305 112.07 35.2091C110.662 38.9876 109.424 42.0791 109.296 42.0791C109.168 42.0791 107.931 39.0305 106.523 35.2949C103.963 28.5966 103.92 28.5537 102.555 28.4249L101.147 28.2961L101.744 29.713Z" fill="#121B60"/>
<path d="M183.621 38.0859L183.749 47.8757L184.944 48.0045L186.096 48.1333V44.0543C186.096 41.8215 186.266 39.8893 186.48 39.7605C186.906 39.4599 188.4 41.3062 191.173 45.3853C192.794 47.8757 193.093 48.0904 194.458 48.0904H195.994L194.544 46.0294C193.733 44.913 192.368 43.0237 191.472 41.7785L189.893 39.5458L191.386 38.9017C195.397 37.2271 195.568 31.087 191.642 29.1119C190.618 28.5537 189.125 28.339 186.821 28.339H183.536L183.621 38.0859ZM189.893 30.9582C193.306 32.1605 192.666 36.7978 188.997 37.5277C186.053 38.1288 186.096 38.1288 186.096 34.1356V30.4859H187.333C187.973 30.4859 189.125 30.7006 189.893 30.9582Z" fill="#121B60"/>
<path d="M216.475 36.2396C216.603 44.913 216.731 45.2995 219.547 47.4034C221.254 48.6915 226.075 48.6915 227.782 47.4034C230.385 45.4712 230.683 44.3119 230.811 35.939L230.982 28.339H229.659H228.337V35.2091C228.337 40.2328 228.166 42.5085 227.739 43.5819C226.502 46.5446 222.406 47.1887 220.187 44.8271C219.206 43.7537 219.163 43.4961 219.035 36.0249L218.907 28.339H217.627H216.347L216.475 36.2396Z" fill="#121B60"/>
<path d="M232.604 38.2147V48.0904H233.884H235.164V44.0113V39.9322H236.273C238.449 39.9322 241.094 38.9876 242.289 37.6994C243.313 36.626 243.484 36.1107 243.484 33.9209C243.484 29.7989 241.393 28.339 235.505 28.339H232.604V38.2147ZM240.284 31.5593C240.838 32.0746 241.137 32.8904 241.137 33.9639C241.137 36.1107 239.644 37.3559 237.041 37.3559H235.164V33.878V30.3571L237.297 30.5718C238.492 30.7006 239.814 31.13 240.284 31.5593Z" fill="#121B60"/>
<path d="M27.76 35.5096L23.4507 39.7175L27.1627 43.1526C30.6187 46.33 31.0027 46.5876 32.5814 46.5017C34.1174 46.4588 34.672 46.1153 37.6587 43.1096L41.0294 39.7175L36.8907 35.5526C34.5867 33.2339 32.5814 31.3446 32.368 31.3446C32.1974 31.3446 30.1067 33.2339 27.76 35.5096Z" fill="#121B60"/>
<path d="M48.5815 35.5526L44.4429 39.7175L47.8562 43.1526C51.0989 46.4158 51.3122 46.5446 53.0615 46.4588C54.7255 46.33 55.1949 46.0294 58.2242 43.0237L61.5095 39.7175L57.3709 35.5526C55.0669 33.2339 53.1042 31.3446 52.9762 31.3446C52.8482 31.3446 50.8855 33.2339 48.5815 35.5526Z" fill="#121B60"/>
<path d="M69.0615 35.5526L64.9229 39.7175L68.2935 43.1096C71.3655 46.1582 71.8349 46.4588 73.3709 46.5017C74.9069 46.5446 75.4189 46.2011 78.5335 43.4102C80.4535 41.6927 81.9895 40.061 81.9895 39.7605C81.9895 39.1593 74.2669 31.3446 73.6695 31.3446C73.4135 31.3446 71.3655 33.2339 69.0615 35.5526Z" fill="#121B60"/>
<path d="M38.128 45.643C35.9946 47.8328 34.2026 49.8079 34.2026 50.1085C34.2026 50.3661 35.7386 51.9978 37.616 53.6723C42.4373 58.052 43.0346 58.052 47.7706 53.5006L51.312 50.0656L47.1306 45.8577C44.8266 43.539 42.7786 41.6497 42.5226 41.6497C42.2666 41.6497 40.304 43.4531 38.128 45.643Z" fill="#121B60"/>
<path d="M58.8215 45.8576L54.6401 50.0656L58.1815 53.5006C61.3815 56.5921 61.8935 56.8927 63.3441 56.8497C64.7948 56.8068 65.3921 56.4204 68.3788 53.4147L71.7495 50.0226L67.6108 45.8576C65.3068 43.539 63.3441 41.6497 63.2161 41.6497C63.0881 41.6497 61.1255 43.539 58.8215 45.8576Z" fill="#121B60"/>
</g>
<defs>
<clipPath id="clip0_73_131">
<rect width="256" height="57" fill="white" transform="translate(0.495605)"/>
</clipPath>
</defs>
</svg>
