<svg width="257" height="57" viewBox="0 0 257 57" fill="none" xmlns="http://www.w3.org/2000/svg">
<g clip-path="url(#clip0_73_131)">
<path d="M38.3452 4.20793C36.0839 6.48363 34.2065 8.58759 34.2065 8.84522C34.2065 9.14578 35.8279 10.8204 37.7905 12.6237C42.6545 17.0463 42.9959 17.0463 47.7319 12.3232L51.3159 8.80228L46.9212 4.37968L42.5265 1.81198e-05L38.3452 4.20793Z" fill="#121B60"/>
<path d="M59.0387 4.37963L54.644 8.84517L58.2707 12.3661C63.1774 17.1322 63.5187 17.1322 68.2547 12.3231L71.7534 8.7593L67.6147 4.3367L63.4334 -0.0859013L59.0387 4.37963Z" fill="#121B60"/>
<path d="M89.076 0.558189C88.564 0.94463 88.3507 1.54576 88.4787 2.57627C88.6493 4.50847 90.4413 5.32429 91.8067 4.07909C94.0253 2.06101 91.508 -1.20226 89.076 0.558189ZM91.4227 0.858754C93.0867 1.76045 91.9773 4.07909 90.0147 3.77853C88.7347 3.60678 88.3933 1.80339 89.5027 0.987568C90.3987 0.300562 90.356 0.300562 91.4227 0.858754Z" fill="#121B60"/>
<path d="M89.7162 2.44746C89.7162 3.13446 89.8442 3.39209 89.9722 3.09152C90.1002 2.70508 90.3562 2.66215 90.6975 2.96271C91.0388 3.26328 91.2095 3.09152 91.2948 2.31864C91.3375 1.54576 91.1668 1.28814 90.5268 1.28814C89.8868 1.28814 89.6735 1.54576 89.7162 2.44746Z" fill="#121B60"/>
<path d="M28.1055 14.5989C25.8441 16.9604 23.9668 19.0644 23.9668 19.2791C23.9668 19.4938 25.5028 21.1254 27.4228 22.9288C32.1588 27.4373 32.6708 27.4373 37.4921 22.6282L41.0761 19.1073L36.6388 14.6847L32.2441 10.2621L28.1055 14.5989Z" fill="#121B60"/>
<path d="M48.6279 14.7706L44.4893 19.1932L47.9879 22.6712C52.7239 27.4373 53.1506 27.4373 58.0573 22.7571L61.5986 19.3221L57.4173 14.8136C55.1559 12.3232 53.1506 10.3051 53.0226 10.3051C52.8946 10.3051 50.8893 12.3232 48.6279 14.7706Z" fill="#121B60"/>
<path d="M69.2789 14.7277L64.8843 19.1503L68.4683 22.6712C73.2896 27.3944 73.6736 27.3944 78.5803 22.8L82.2069 19.4509L79.1349 16.0588C77.4709 14.2125 75.5509 12.1514 74.8683 11.5074L73.6309 10.3051L69.2789 14.7277Z" fill="#121B60"/>
<path d="M17.6519 25.0757C15.4759 27.2655 13.7266 29.2836 13.7266 29.4983C13.7266 29.713 15.3479 31.3876 17.3106 33.1909C22.1746 37.6565 22.4732 37.6565 27.2092 32.9763L30.8359 29.4554L26.6546 25.2474C24.3506 22.9288 22.2599 21.0395 22.0466 21.0395C21.7906 21.0395 19.7852 22.8429 17.6519 25.0757Z" fill="#121B60"/>
<path d="M79.3057 25.2475L75.167 29.4124L78.6657 32.9333C83.615 37.7853 83.8283 37.8283 88.863 33.1051L92.7457 29.4124L88.479 25.2045C86.0897 22.9288 83.999 21.0396 83.8283 21.0396C83.615 21.0396 81.6097 22.9288 79.3057 25.2475Z" fill="#121B60"/>
<path d="M129.481 34.6508C127.817 38.3864 125.769 42.9378 124.916 44.7412L123.422 48.0904H124.66C125.769 48.0904 126.068 47.7898 127.22 45.5141L128.542 42.8949L132.894 43.0237L137.246 43.1525L138.398 45.6L139.593 48.0904H141.897H144.244L144.67 45.8147C144.926 44.6124 145.438 41.7785 145.822 39.5887C146.206 37.3988 146.676 35.7243 146.889 35.9389C147.06 36.1107 148.34 38.8587 149.705 41.9932C151.07 45.1706 152.35 47.7469 152.564 47.7039C152.777 47.7039 154.1 44.9988 155.55 41.6926C156.958 38.3864 158.281 35.6384 158.409 35.6384C158.537 35.6384 159.134 38.3864 159.689 41.7356L160.756 47.8757L162.036 48.0045L163.358 48.1333L161.396 38.0429C160.329 32.5039 159.305 28.0813 159.134 28.2531C158.964 28.4248 157.513 31.6022 155.892 35.3378C154.27 39.0734 152.777 42.1649 152.564 42.2079C152.393 42.2508 150.857 39.1593 149.236 35.3378C147.572 31.5163 146.078 28.296 145.95 28.1243C145.78 27.9954 144.884 32.1604 143.86 37.3559C142.878 42.5514 141.94 46.8022 141.769 46.8022C141.641 46.8022 139.593 42.5514 137.289 37.3559C134.942 32.1604 132.937 27.9096 132.766 27.9096C132.638 27.9096 131.145 30.9582 129.481 34.6508ZM134.601 37.0124L136.137 40.5762L134.43 40.7051C133.534 40.7909 132.041 40.7909 131.145 40.7051L129.481 40.5762L130.974 37.0124C131.785 35.0802 132.596 33.4915 132.766 33.4915C132.937 33.4915 133.79 35.0802 134.601 37.0124Z" fill="#121B60"/>
<path d="M169.843 28.5107C163.742 30.7006 161.182 38.1288 164.638 43.7107C166.942 47.4893 172.019 49.4215 176.073 48.0904C179.443 46.974 182.217 43.2384 182.259 39.8034V38.2147H178.419C174.622 38.2147 174.579 38.2147 174.579 39.2881C174.579 40.3186 174.707 40.3616 177.139 40.3616C180.041 40.3616 180.254 40.7051 178.761 42.9379C177.139 45.2994 175.646 46.1582 173.129 46.1582C169.033 46.1582 166.003 43.0667 165.705 38.6011C165.534 36.4972 165.705 35.8102 166.643 34.1785C168.179 31.5164 170.313 30.2712 173.385 30.2712C175.433 30.2712 176.115 30.4859 177.822 31.6881C179.785 33.1051 179.827 33.1051 180.638 32.2893C181.491 31.4734 181.491 31.4305 179.955 30.2712C177.011 27.9955 173.086 27.3085 169.843 28.5107Z" fill="#121B60"/>
<path d="M200.692 28.983C197.065 30.8293 195.06 34.1785 195.06 38.3435C195.06 42.5084 197.108 45.7717 200.82 47.4892C208.073 50.9242 215.966 45.557 215.454 37.5706C215.113 32.1175 211.23 28.296 205.769 27.9954C203.38 27.8666 202.612 28.0384 200.692 28.983ZM209.14 31.1299C212.596 32.9333 214.089 38.2146 212.169 41.9502C208.969 48.305 199.156 47.0598 197.705 40.1898C196.254 33.2768 202.953 27.9096 209.14 31.1299Z" fill="#121B60"/>
<path d="M101.748 29.713C102.047 30.4859 103.839 35.0373 105.716 39.8034C107.551 44.6124 109.172 48.5198 109.3 48.5198C109.428 48.5198 110.666 45.4282 112.074 41.6497C113.482 37.8712 114.719 34.7797 114.847 34.7797C114.975 34.7797 116.212 37.8712 117.62 41.6497C119.028 45.4282 120.266 48.5198 120.394 48.5198C120.564 48.5198 126.922 32.7616 128.458 28.6825C128.543 28.4678 127.946 28.339 127.178 28.4249C125.77 28.5537 125.77 28.5966 123.167 35.2949C121.759 39.0305 120.522 42.0791 120.394 42.0791C120.266 42.0791 119.028 38.9876 117.62 35.209C116.212 31.4305 114.975 28.339 114.847 28.339C114.719 28.339 113.482 31.4305 112.074 35.209C110.666 38.9876 109.428 42.0791 109.3 42.0791C109.172 42.0791 107.935 39.0305 106.527 35.2949C103.967 28.5966 103.924 28.5537 102.559 28.4249L101.151 28.296L101.748 29.713Z" fill="#121B60"/>
<path d="M183.625 38.0858L183.753 47.8757L184.948 48.0045L186.1 48.1333V44.0542C186.1 41.8214 186.27 39.8892 186.484 39.7604C186.91 39.4599 188.404 41.3062 191.177 45.3853C192.798 47.8757 193.097 48.0904 194.462 48.0904H195.998L194.548 46.0293C193.737 44.913 192.372 43.0237 191.476 41.7785L189.897 39.5457L191.39 38.9017C195.401 37.2271 195.572 31.087 191.646 29.1118C190.622 28.5536 189.129 28.339 186.825 28.339H183.54L183.625 38.0858ZM189.897 30.9582C193.31 32.1604 192.67 36.7977 189.001 37.5277C186.057 38.1288 186.1 38.1288 186.1 34.1356V30.4858H187.337C187.977 30.4858 189.129 30.7005 189.897 30.9582Z" fill="#121B60"/>
<path d="M216.479 36.2396C216.607 44.913 216.735 45.2995 219.551 47.4034C221.258 48.6915 226.079 48.6915 227.786 47.4034C230.388 45.4712 230.687 44.3119 230.815 35.939L230.986 28.339H229.663H228.34V35.2091C228.34 40.2328 228.17 42.5085 227.743 43.5819C226.506 46.5446 222.41 47.1887 220.191 44.8271C219.21 43.7537 219.167 43.4961 219.039 36.0249L218.911 28.339H217.631H216.351L216.479 36.2396Z" fill="#121B60"/>
<path d="M232.607 38.2147V48.0904H233.887H235.167V44.0113V39.9322H236.277C238.453 39.9322 241.098 38.9876 242.293 37.6994C243.317 36.626 243.487 36.1107 243.487 33.9209C243.487 29.7989 241.397 28.339 235.509 28.339H232.607V38.2147ZM240.287 31.5593C240.842 32.0746 241.141 32.8904 241.141 33.9638C241.141 36.1107 239.647 37.3559 237.045 37.3559H235.167V33.878V30.3571L237.301 30.5717C238.495 30.7006 239.818 31.1299 240.287 31.5593Z" fill="#121B60"/>
<path d="M27.7639 35.5096L23.4546 39.7175L27.1666 43.1525C30.6226 46.3299 31.0066 46.5875 32.5853 46.5017C34.1213 46.4587 34.6759 46.1152 37.6626 43.1096L41.0333 39.7175L36.8946 35.5525C34.5906 33.2339 32.5853 31.3446 32.3719 31.3446C32.2013 31.3446 30.1106 33.2339 27.7639 35.5096Z" fill="#121B60"/>
<path d="M48.5854 35.5525L44.4468 39.7175L47.8601 43.1525C51.1028 46.4158 51.3161 46.5446 53.0654 46.4587C54.7294 46.3299 55.1988 46.0293 58.2281 43.0237L61.5134 39.7175L57.3748 35.5525C55.0708 33.2339 53.1081 31.3446 52.9801 31.3446C52.8521 31.3446 50.8894 33.2339 48.5854 35.5525Z" fill="#121B60"/>
<path d="M69.0654 35.5525L64.9268 39.7175L68.2974 43.1096C71.3694 46.1582 71.8388 46.4587 73.3748 46.5017C74.9108 46.5446 75.4228 46.2011 78.5374 43.4101C80.4574 41.6926 81.9934 40.061 81.9934 39.7604C81.9934 39.1593 74.2708 31.3446 73.6734 31.3446C73.4174 31.3446 71.3694 33.2339 69.0654 35.5525Z" fill="#121B60"/>
<path d="M38.1319 45.6429C35.9985 47.8328 34.2065 49.8079 34.2065 50.1085C34.2065 50.3661 35.7425 51.9978 37.6199 53.6723C42.4412 58.052 43.0385 58.052 47.7745 53.5006L51.3159 50.0655L47.1345 45.8576C44.8305 43.539 42.7825 41.6497 42.5265 41.6497C42.2705 41.6497 40.3079 43.4531 38.1319 45.6429Z" fill="#121B60"/>
<path d="M58.8254 45.8576L54.644 50.0655L58.1854 53.5006C61.3854 56.5921 61.8974 56.8926 63.348 56.8497C64.7987 56.8068 65.396 56.4203 68.3827 53.4147L71.7534 50.0226L67.6147 45.8576C65.3107 43.539 63.348 41.6497 63.22 41.6497C63.092 41.6497 61.1294 43.539 58.8254 45.8576Z" fill="#121B60"/>
</g>
<defs>
<clipPath id="clip0_73_131">
<rect width="256" height="57" fill="white" transform="translate(0.499512)"/>
</clipPath>
</defs>
</svg>
