<svg width="213" height="39" viewBox="0 0 213 39" fill="none" xmlns="http://www.w3.org/2000/svg">
<path d="M67.9292 3.95368C62.1522 4.4367 60.0322 6.65505 60.0145 12.2546C59.9969 15.439 60.5975 17.2101 62.2405 18.7665C63.3535 19.822 63.7775 20.0546 69.0069 22.2729C71.9572 23.5252 73.3175 24.2051 73.8299 24.6702C74.5012 25.2784 74.5542 25.3679 74.5542 26.2624C74.5365 28.1587 73.7769 28.6239 70.7382 28.6239C67.9999 28.6239 63.6715 28.1587 61.4985 27.6041L61.0922 27.5147V30.9138V34.295L61.7635 34.4023C65.3499 34.9927 67.1519 35.1179 70.8089 35.1358C75.0489 35.1358 76.3739 34.9569 78.4939 34.1518C79.9072 33.6151 81.2145 32.2913 81.7269 30.8959C82.8752 27.783 82.5925 23.4716 81.0909 21.2532C80.0309 19.6789 79.2889 19.2495 73.7239 16.906C68.3355 14.634 67.8055 14.2762 67.8055 12.7555C67.8055 11.6463 68.1765 11.0202 69.0422 10.6624C70.3849 10.1257 75.5612 10.3583 79.7659 11.1812C80.5255 11.3243 81.1615 11.4495 81.1969 11.4495C81.2145 11.4495 81.2322 9.92891 81.2322 8.06836V4.70505L79.0769 4.40092C74.6425 3.81056 71.2682 3.66744 67.9292 3.95368Z" fill="#121B60"/>
<path d="M103.104 4.68716C100.86 8.37248 97.8744 12.5229 95.2951 15.4748L94.6591 16.1904V10.1436V4.11468H90.7724H86.8857L86.9211 19.5358L86.9741 34.9748H90.7724H94.5707L94.6237 27.2106L94.6591 19.4642L95.3481 20.3229C97.2207 22.7202 100.1 27.4789 102.291 31.7725L103.846 34.8317L109.004 34.939C111.849 35.0106 115.223 35.0642 116.477 35.0642H118.792L119.41 32.506L120.028 29.9656L125.505 29.9119L130.999 29.8762L131.494 31.7904C131.759 32.8638 132.042 34.0266 132.148 34.3844L132.307 35.0642H136.264C139.762 35.0642 140.239 35.0284 140.239 34.778C140.239 34.3486 139.426 31.1642 138.384 27.5505C136.335 20.4661 133.243 11.8431 130.77 6.40459L129.727 4.11468H125.558H121.389L120.452 6.11835C117.873 11.7179 114.499 21.1459 112.414 28.6596C111.955 30.2697 111.566 31.683 111.513 31.8262C111.46 31.9693 110.912 31.1463 110.276 29.9835C108.209 26.2266 105.206 21.611 103.174 19.0349L102.291 17.9436L103.934 16.0294C106.743 12.7734 110.153 7.96101 112.043 4.59771L112.52 3.75688H108.086H103.669L103.104 4.68716ZM127.961 19.1422C128.685 21.45 129.286 23.4358 129.286 23.561C129.286 23.7399 128.491 23.7936 125.576 23.7936C123.544 23.7936 121.866 23.7399 121.866 23.6862C121.866 23.3463 124.869 13.7931 125.399 12.4335C125.611 11.8968 125.611 11.8968 126.141 13.4174C126.424 14.2583 127.236 16.8344 127.961 19.1422Z" fill="#121B60"/>
<path d="M4.85924 5.22386C5.37157 6.52982 7.45624 11.0381 7.8979 11.861C9.9649 15.6 11.6609 18.3193 13.6396 21.0206L14.8056 22.6128V28.8385V35.0642H18.6039H22.4022V28.928V22.7917L23.5682 21.1995C26.2889 17.4784 28.4089 13.972 30.4406 9.75C31.5536 7.46009 32.8256 4.49037 32.8256 4.20413C32.8256 4.15046 30.8646 4.13257 28.4796 4.15046L24.1336 4.20413L23.1796 6.61927C22.6672 7.94312 21.4306 10.6803 20.4412 12.6839C18.7982 16.0294 18.6216 16.2977 18.3919 15.9936C17.4379 14.6876 14.3639 8.13991 13.3746 5.3133L12.9506 4.11468H8.67524H4.3999L4.85924 5.22386Z" fill="#121B60"/>
<path d="M39.0974 5.93945C36.1117 12.4514 32.2074 23.6684 30.1757 31.5757C29.7694 33.15 29.3984 34.5812 29.3631 34.7422C29.2747 35.0463 29.5397 35.0642 33.3204 35.0642H37.3661L37.8254 33.1321C38.0904 32.0766 38.3907 30.9138 38.4791 30.5381L38.6734 29.8762H44.1147H49.5737L49.9271 31.2537C50.1391 32.0229 50.4394 33.1858 50.5984 33.8477L50.8811 35.0642H54.9091H58.9194L58.7074 34.1161C56.9407 26.4771 52.9657 14.7055 49.5207 6.83395L48.3194 4.11468H44.1324H39.9454L39.0974 5.93945ZM45.5104 16.2798C46.1994 18.3908 46.9767 20.8417 47.2417 21.7362C47.5067 22.6128 47.7541 23.4537 47.7894 23.561C47.8601 23.7399 47.0651 23.7936 44.1501 23.7936C40.8111 23.7936 40.4224 23.7578 40.4224 23.5073C40.4224 22.6486 43.9557 11.861 44.1324 12.183C44.2031 12.3261 44.8391 14.1688 45.5104 16.2798Z" fill="#121B60"/>
<path d="M138.384 4.32936C138.419 4.45459 138.737 5.81422 139.091 7.33486C140.663 14.2225 143.507 24.3661 145.998 32.0587L146.988 35.0642H151.104H155.22L155.503 34.1161C155.874 32.8995 159.089 19.8041 159.248 18.9096C159.301 18.5518 159.425 18.2477 159.496 18.2477C159.566 18.2477 159.69 18.5518 159.743 18.9096C159.902 19.8041 163.117 32.8995 163.488 34.1161L163.771 35.0642H167.887H172.021L173.081 31.7904C175.519 24.2229 178.081 15.0812 179.795 7.72844L180.643 4.11468H176.721H172.799L172.392 6.2078C171.209 12.505 168.488 24.4018 168.17 24.7417C167.905 25.0101 164.495 10.8413 163.647 5.93945L163.329 4.11468L159.602 4.15046L155.892 4.20413L155.733 5.00918C154.849 9.69633 151.546 24.0261 151.192 24.6702C150.998 25.028 147.995 12.344 146.864 6.44037C146.723 5.59954 146.546 4.74083 146.493 4.50826L146.422 4.11468H142.359C139.197 4.11468 138.331 4.16835 138.384 4.32936Z" fill="#121B60"/>
<path d="M188.857 6.06468C185.271 13.7752 180.996 26.4592 179.211 34.5633L179.105 35.0642H183.133H187.161L187.568 33.3289C187.797 32.3628 188.098 31.2 188.239 30.7349L188.486 29.8762H193.945H199.387L199.581 30.8243C199.687 31.3252 199.952 32.506 200.164 33.4005L200.553 35.0642H204.581H208.609L208.503 34.5812C208.026 32.3271 206.188 25.9046 204.952 22.094C202.743 15.278 200.906 10.4477 198.857 6.0289L197.956 4.11468H193.857H189.758L188.857 6.06468ZM194.988 15.2422C196.578 20.1083 197.62 23.5968 197.514 23.7041C197.461 23.7578 195.8 23.7936 193.822 23.7936C190.5 23.7936 190.235 23.7757 190.235 23.4716C190.235 22.8812 193.68 11.9862 193.857 11.9862C193.892 11.9862 194.405 13.4532 194.988 15.2422Z" fill="#121B60"/>
</svg>
