<svg width="213" height="39" viewBox="0 0 213 39" fill="none" xmlns="http://www.w3.org/2000/svg">
<path d="M67.9331 3.95369C62.1561 4.43672 60.0361 6.65507 60.0184 12.2546C60.0008 15.439 60.6014 17.2101 62.2444 18.7665C63.3574 19.822 63.7814 20.0546 69.0108 22.273C71.9611 23.5253 73.3214 24.2051 73.8338 24.6702C74.5051 25.2785 74.5581 25.3679 74.5581 26.2624C74.5404 28.1587 73.7808 28.6239 70.7421 28.6239C68.0038 28.6239 63.6754 28.1587 61.5024 27.6042L61.0961 27.5147V30.9138V34.295L61.7674 34.4023C65.3538 34.9927 67.1558 35.1179 70.8128 35.1358C75.0528 35.1358 76.3778 34.9569 78.4978 34.1519C79.9111 33.6152 81.2184 32.2913 81.7308 30.8959C82.8791 27.7831 82.5964 23.4716 81.0948 21.2532C80.0348 19.6789 79.2928 19.2496 73.7278 16.906C68.3394 14.634 67.8094 14.2762 67.8094 12.7555C67.8094 11.6464 68.1804 11.0202 69.0461 10.6624C70.3888 10.1257 75.5651 10.3583 79.7698 11.1812C80.5294 11.3243 81.1654 11.4496 81.2008 11.4496C81.2184 11.4496 81.2361 9.92892 81.2361 8.06837V4.70507L79.0808 4.40094C74.6464 3.81057 71.2721 3.66745 67.9331 3.95369Z" fill="#121B60"/>
<path d="M103.108 4.6872C100.864 8.37252 97.8783 12.523 95.299 15.4748L94.663 16.1904V10.1436V4.11473H90.7763H86.8896L86.925 19.5358L86.978 34.9748H90.7763H94.5746L94.6276 27.2106L94.663 19.4643L95.352 20.323C97.2246 22.7202 100.104 27.4789 102.295 31.7725L103.85 34.8317L109.008 34.939C111.853 35.0106 115.227 35.0643 116.481 35.0643H118.796L119.414 32.506L120.032 29.9656L125.509 29.912L131.003 29.8762L131.498 31.7904C131.763 32.8638 132.046 34.0267 132.152 34.3845L132.311 35.0643H136.268C139.766 35.0643 140.243 35.0285 140.243 34.778C140.243 34.3487 139.43 31.1643 138.388 27.5505C136.339 20.4661 133.247 11.8432 130.774 6.40463L129.731 4.11473H125.562H121.393L120.456 6.1184C117.877 11.7179 114.503 21.1459 112.418 28.6597C111.959 30.2698 111.57 31.6831 111.517 31.8262C111.464 31.9693 110.916 31.1464 110.28 29.9835C108.213 26.2267 105.21 21.6111 103.178 19.0349L102.295 17.9436L103.938 16.0294C106.747 12.7734 110.157 7.96106 112.047 4.59775L112.524 3.75693H108.09H103.673L103.108 4.6872ZM127.965 19.1423C128.689 21.45 129.29 23.4358 129.29 23.5611C129.29 23.74 128.495 23.7936 125.58 23.7936C123.548 23.7936 121.87 23.74 121.87 23.6863C121.87 23.3464 124.873 13.7932 125.403 12.4335C125.615 11.8968 125.615 11.8968 126.145 13.4175C126.428 14.2583 127.24 16.8345 127.965 19.1423Z" fill="#121B60"/>
<path d="M4.86314 5.2239C5.37548 6.52987 7.46014 11.0381 7.90181 11.8611C9.96881 15.6 11.6648 18.3193 13.6435 21.0207L14.8095 22.6129V28.8386V35.0643H18.6078H22.4061V28.928V22.7918L23.5721 21.1996C26.2928 17.4785 28.4128 13.9721 30.4445 9.75005C31.5575 7.46014 32.8295 4.49042 32.8295 4.20418C32.8295 4.15051 30.8685 4.13262 28.4835 4.15051L24.1375 4.20418L23.1835 6.61931C22.6711 7.94317 21.4345 10.6803 20.4451 12.684C18.8021 16.0294 18.6255 16.2978 18.3958 15.9936C17.4418 14.6877 14.3678 8.13996 13.3785 5.31335L12.9545 4.11473H8.67914H4.40381L4.86314 5.2239Z" fill="#121B60"/>
<path d="M39.1013 5.9395C36.1156 12.4514 32.2113 23.6684 30.1796 31.5757C29.7733 33.15 29.4023 34.5812 29.367 34.7423C29.2786 35.0464 29.5436 35.0643 33.3243 35.0643H37.37L37.8293 33.1322C38.0943 32.0767 38.3946 30.9138 38.483 30.5381L38.6773 29.8762H44.1186H49.5776L49.931 31.2537C50.143 32.023 50.4433 33.1858 50.6023 33.8478L50.885 35.0643H54.913H58.9233L58.7113 34.1161C56.9446 26.4771 52.9696 14.7056 49.5246 6.83399L48.3233 4.11473H44.1363H39.9493L39.1013 5.9395ZM45.5143 16.2799C46.2033 18.3909 46.9806 20.8418 47.2456 21.7363C47.5106 22.6129 47.758 23.4537 47.7933 23.5611C47.864 23.74 47.069 23.7936 44.154 23.7936C40.815 23.7936 40.4263 23.7578 40.4263 23.5074C40.4263 22.6487 43.9596 11.8611 44.1363 12.1831C44.207 12.3262 44.843 14.1689 45.5143 16.2799Z" fill="#121B60"/>
<path d="M138.388 4.3294C138.423 4.45464 138.741 5.81427 139.095 7.33491C140.667 14.2225 143.511 24.3661 146.002 32.0588L146.992 35.0643H151.108H155.224L155.507 34.1161C155.878 32.8996 159.093 19.8042 159.252 18.9097C159.305 18.5519 159.429 18.2478 159.5 18.2478C159.57 18.2478 159.694 18.5519 159.747 18.9097C159.906 19.8042 163.121 32.8996 163.492 34.1161L163.775 35.0643H167.891H172.025L173.085 31.7904C175.523 24.223 178.085 15.0812 179.799 7.72849L180.647 4.11473H176.725H172.803L172.396 6.20785C171.213 12.5051 168.492 24.4019 168.174 24.7418C167.909 25.0101 164.499 10.8413 163.651 5.9395L163.333 4.11473L159.606 4.15051L155.896 4.20418L155.737 5.00922C154.853 9.69638 151.55 24.0262 151.196 24.6702C151.002 25.028 147.999 12.3441 146.868 6.44041C146.727 5.59959 146.55 4.74087 146.497 4.5083L146.426 4.11473H142.363C139.201 4.11473 138.335 4.1684 138.388 4.3294Z" fill="#121B60"/>
<path d="M188.861 6.06473C185.275 13.7753 181 26.4592 179.215 34.5634L179.109 35.0643H183.137H187.165L187.572 33.3289C187.801 32.3629 188.102 31.2 188.243 30.7349L188.49 29.8762H193.949H199.391L199.585 30.8244C199.691 31.3253 199.956 32.506 200.168 33.4005L200.557 35.0643H204.585H208.613L208.507 34.5812C208.03 32.3271 206.192 25.9046 204.956 22.0941C202.747 15.278 200.91 10.4478 198.861 6.02895L197.96 4.11473H193.861H189.762L188.861 6.06473ZM194.992 15.2423C196.582 20.1083 197.624 23.5968 197.518 23.7042C197.465 23.7578 195.804 23.7936 193.826 23.7936C190.504 23.7936 190.239 23.7757 190.239 23.4716C190.239 22.8812 193.684 11.9863 193.861 11.9863C193.896 11.9863 194.409 13.4533 194.992 15.2423Z" fill="#121B60"/>
</svg>
